<?xml version="1.0" encoding="UTF-8" standalone="no"?>
<svg
   id="svg946"
   viewBox="0 0 162382200 120243600"
   height="12.024360cm"
   width="16.238220cm"
   version="1.1"
   xmlns="http://www.w3.org/2000/svg"
   xmlns:svg="http://www.w3.org/2000/svg"
   xmlns:rdf="http://www.w3.org/1999/02/22-rdf-syntax-ns#"
   xmlns:cc="http://creativecommons.org/ns#"
   xmlns:dc="http://purl.org/dc/elements/1.1/">
  <defs
     id="defs950" />
  <title
     id="title2">SVG Picture created as klor1_3-brd.svg date 2023/01/15 19:44:36 </title>
  <desc
     id="desc4">Picture generated by PCBNEW </desc>
  <g
     id="g29463">
    <path
       id="path602"
       style="fill:#000000;fill-opacity:0;stroke:#000000;stroke-width:100000;stroke-linecap:round;stroke-linejoin:round;stroke-dasharray:none;stroke-opacity:1"
       d="m 115012910,77932763 -599390,3490612 m -85643377,24187465 c 35258,35260 70516,35260 105774,35260 M 83950001,89920719 V 76875001 M 99358053,645698 l -19674354,-1 M 11810707,89215546 h 7510103 m 13257271,-77146032 -10260282,1 M 139024090,4594671 h -38996120 m 0,-3279059 c 0,-352585 -317329,-669914 -669917,-669914 m -86595361,3948973 -916726,-1 m 43227162,88569848 c 6170275,-1657159 12481578,-2503365 18369783,-2538625 m -35505510,9731397 c 5535617,-3208537 11494337,-5676648 17135727,-7192772 m 105776092,-48586485 -18083820,-3169327 1723790,-9841130 599390,-3420095 M 79683699,645697 c -352586,0 -669915,317328 -669915,669916 m 55285636,84268286 c 352590,70517 705170,-176294 775690,-528881 m -20132710,-2891213 19357020,3420094 m 20273750,-2150779 6734410,-38079396 M 73442911,90625893 h 9801918 m 705172,-13750892 H 99922192 M 32578081,4594671 v 7474843 m 102497029,72985504 742110,-4259648 17980260,3201889 c 387850,70517 705180,-176295 775690,-564139 M 140716510,5335105 c 0,-423104 -317330,-705174 -740440,-740434 m -39948100,0 V 1315612 m 14385550,80107763 c -35260,352585 211550,669913 528880,740430 M 79013784,1315613 l 1,3279058 m -67908250,705175 v 83210525 m 0,0 c 1,387844 317329,705175 705172,705175 M 139976070,4594671 h -951980 M 28770143,105610840 c -211554,-352590 -1269315,-2186040 -1269315,-2186040 L 20237536,90766928 19320810,89215546 M 145088580,28147481 c 70520,-352585 -211550,-705174 -528880,-775691 m -44637508,49503211 15090718,1057762 m -86136993,27713337 6769671,-3913720 M 22317799,4594671 h -9555107 m -916726,-1 c -423103,1 -740431,317332 -740431,705176 m 133454165,22071944 -3843200,-669914 M 35645588,101732380 c 740432,-493620 1516124,-951980 2291813,-1375090 M 79013785,4594671 H 32578081 m 128729499,40759053 c 141040,-387842 -105770,-705171 -458360,-775691 M 83244829,90625893 c 387845,-1 705173,-317329 705172,-705174 M 22317799,12069515 V 4594671 m 118398701,22107205 10,-21366771" />
  </g>
  <g
     id="g1725">
    <circle
       cx="97775000"
       cy="39500000"
       id="circle1591"
       style="fill:#000000;fill-opacity:0;stroke:#000000;stroke-width:114504;stroke-linecap:round;stroke-linejoin:round;stroke-opacity:1"
       r="2442748" />
    <circle
       cx="13795002"
       cy="7170002"
       id="circle240"
       style="display:inline;fill:#000000;fill-opacity:0;stroke:#000000;stroke-width:150000;stroke-linecap:round;stroke-linejoin:round;stroke-opacity:1"
       r="2300000" />
    <circle
       cx="104625000"
       cy="7170000"
       id="circle1591-7"
       style="fill:#000000;fill-opacity:0;stroke:#000000;stroke-width:105344;stroke-linecap:round;stroke-linejoin:round;stroke-opacity:1"
       r="2247328.2" />
    <circle
       cx="75875000"
       cy="7170001"
       id="circle1591-5"
       style="fill:#000000;fill-opacity:0;stroke:#000000;stroke-width:105344;stroke-linecap:round;stroke-linejoin:round;stroke-opacity:1"
       r="2247328.2" />
    <circle
       cx="119465000"
       cy="8180001"
       id="circle1591-3"
       style="fill:#000000;fill-opacity:0;stroke:#000000;stroke-width:114504;stroke-linecap:round;stroke-linejoin:round;stroke-opacity:1"
       r="2442748" />
    <circle
       cx="112035000"
       cy="73920000"
       id="circle1591-56"
       style="fill:#000000;fill-opacity:0;stroke:#000000;stroke-width:114504;stroke-linecap:round;stroke-linejoin:round;stroke-opacity:1"
       r="2442748" />
    <circle
       cx="100425000"
       cy="73160000"
       id="circle1591-2"
       style="fill:#000000;fill-opacity:0;stroke:#000000;stroke-width:114504;stroke-linecap:round;stroke-linejoin:round;stroke-opacity:1"
       r="2442748" />
    <circle
       cx="13795002"
       cy="86600000"
       id="circle1591-9"
       style="fill:#000000;fill-opacity:0;stroke:#000000;stroke-width:114504;stroke-linecap:round;stroke-linejoin:round;stroke-opacity:1"
       r="2442748" />
  </g>
  <metadata
     id="metadata1890">
    <rdf:RDF>
      <cc:Work
         rdf:about="">
        <dc:title>SVG Picture created as klor1_3-brd.svg date 2023/01/15 19:44:36 </dc:title>
      </cc:Work>
    </rdf:RDF>
  </metadata>
</svg>
