0
SECTION
2
HEADER
9
$INSUNITS
70
4
9
$ACADVER
1
AC1014
9
$HANDSEED
5
FFFF
0
ENDSEC
0
SECTION
2
TABLES
0
TABLE
2
VPORT
5
8
100
AcDbSymbolTable
0
ENDTAB
0
TABLE
2
LTYPE
5
5
100
AcDbSymbolTable
0
LTYPE
5
14
100
AcDbSymbolTableRecord
100
AcDbLinetypeTableRecord
2
BYBLOCK
70
0
0
LTYPE
5
15
100
AcDbSymbolTableRecord
100
AcDbLinetypeTableRecord
2
BYLAYER
70
0
0
ENDTAB
0
TABLE
2
LAYER
5
2
100
AcDbSymbolTable
70
2
0
LAYER
5
50
100
AcDbSymbolTableRecord
100
AcDbLayerTableRecord
2
0
70
0
6
CONTINUOUS
0
ENDTAB
0
TABLE
2
STYLE
5
3
100
AcDbSymbolTable
70
1
0
STYLE
5
11
100
AcDbSymbolTableRecord
100
AcDbTextStyleTableRecord
2
STANDARD
70
0
0
ENDTAB
0
TABLE
2
VIEW
5
6
100
AcDbSymbolTable
70
0
0
ENDTAB
0
TABLE
2
UCS
5
7
100
AcDbSymbolTable
70
0
0
ENDTAB
0
TABLE
2
APPID
5
9
100
AcDbSymbolTable
70
2
0
APPID
5
12
100
AcDbSymbolTableRecord
100
AcDbRegAppTableRecord
2
ACAD
70
0
0
ENDTAB
0
TABLE
2
DIMSTYLE
5
A
100
AcDbSymbolTable
70
1
0
ENDTAB
0
TABLE
2
BLOCK_RECORD
5
1
100
AcDbSymbolTable
70
1
0
BLOCK_RECORD
5
1F
100
AcDbSymbolTableRecord
100
AcDbBlockTableRecord
2
*MODEL_SPACE
0
BLOCK_RECORD
5
1B
100
AcDbSymbolTableRecord
100
AcDbBlockTableRecord
2
*PAPER_SPACE
0
ENDTAB
0
ENDSEC
0
SECTION
2
BLOCKS
0
BLOCK
5
20
100
AcDbEntity
100
AcDbBlockBegin
2
*MODEL_SPACE
0
ENDBLK
5
21
100
AcDbEntity
100
AcDbBlockEnd
0
BLOCK
5
1C
100
AcDbEntity
100
AcDbBlockBegin
2
*PAPER_SPACE
0
ENDBLK
5
1D
100
AcDbEntity
100
AcDbBlockEnd
0
ENDSEC
0
SECTION
2
ENTITIES
0
LWPOLYLINE
5
100
100
AcDbEntity
8
0
100
AcDbPolyline
90
37
70
1
43
0.0
10
112.079241
20
93.704886999996006
10
112.079241
20
92.893935622544021
10
110.62924100000001
20
92.893935622544021
10
110.62924100000001
20
92.815838377448017
10
112.079241
20
92.815838377448017
10
112.079241
20
92.004886999996017
10
110.429241
20
92.004886999996017
10
110.42924100000005
20
91.479151068712014
42
-0.19891236737955736
10
110.341373034356
20
91.267019034356011
10
109.667108965644
20
90.59275496564409
42
-0.1989123673797015
10
109.454976931288
20
90.504887000000011
10
107.57924099999998
20
90.504887000000039
42
0.28595477969229127
10
105.88450918917103
20
89.054886999993016
42
-0.32717070374708002
10
104.929241000015
20
88.354886999993013
10
101.62924100002
20
88.354886999989986
42
-0.41421356237675
10
100.829241
20
89.154887000000002
10
100.82924100000065
20
89.804887000000008
10
99.179241000000005
20
89.804887000000022
10
99.179241000000005
20
90.615838377451922
10
100.62924100000001
20
90.615838377451922
10
100.62924100000001
20
90.693935622548096
10
99.179241000000005
20
90.693935622548096
10
99.179241000000005
20
91.504886999999997
10
100.82924100000234
20
91.504887000000025
10
100.82924100000299
20
92.154887000000016
42
-0.41421356237675655
10
101.62924100002
20
92.95488700000702
10
104.52924100001499
20
92.954887000007005
42
0.38898369055622256
10
105.72924100000023
20
94.054886999999994
10
105.72924099999996
20
94.230622931288011
42
-0.19891236737969967
10
105.81710896564401
20
94.442754965644014
10
106.49137303435602
20
95.117019034355963
42
-0.19891236737953116
10
106.703505068712
20
95.204887000000014
10
109.454976931288
20
95.20488700000007
42
-0.19891236737971052
10
109.667108965644
20
95.117019034356005
10
110.34137303435597
20
94.442754965643999
42
-0.19891236737959453
10
110.429241
20
94.230622931288011
10
110.429241
20
93.704886999996006
0
LWPOLYLINE
5
101
100
AcDbEntity
8
0
100
AcDbPolyline
90
37
70
1
43
0.0
10
112.079241
20
76.704666999996007
10
112.079241
20
75.893715622544008
10
110.62924100000001
20
75.893715622544022
10
110.62924100000001
20
75.815618377448004
10
112.079241
20
75.815618377448004
10
112.079241
20
75.004666999996005
10
110.429241
20
75.004666999996005
10
110.42924100000005
20
74.478931068712001
42
-0.19891236737957824
10
110.341373034356
20
74.266799034356012
10
109.66710896564399
20
73.592534965644063
42
-0.19891236737968523
10
109.454976931288
20
73.504667000000012
10
107.57924099999998
20
73.50466700000004
42
0.28595477969228283
10
105.88450918917103
20
72.054666999993003
42
-0.32717070374709156
10
104.929241000015
20
71.354666999993
10
101.62924100002002
20
71.354666999990002
42
-0.41421356237674678
10
100.829241
20
72.154667000000018
10
100.82924100000065
20
72.804667000000009
10
99.179241000000005
20
72.804667000000009
10
99.179241000000005
20
73.615618377451909
10
100.62924100000001
20
73.615618377451909
10
100.62924100000001
20
73.693715622548098
10
99.179241000000005
20
73.693715622548098
10
99.179241000000005
20
74.504667000000012
10
100.82924100000236
20
74.504667000000012
10
100.82924100000301
20
75.154667000000018
42
-0.41421356237675655
10
101.62924100002002
20
75.954667000007007
10
104.52924100001499
20
75.954667000007007
42
0.38898369055622006
10
105.72924100000021
20
77.054666999999995
10
105.72924099999994
20
77.230402931288012
42
-0.19891236737967982
10
105.81710896564401
20
77.442534965644001
10
106.49137303435606
20
78.116799034355978
42
-0.19891236737963169
10
106.703505068712
20
78.204667000000001
10
109.454976931288
20
78.204667000000057
42
-0.19891236737966886
10
109.667108965644
20
78.116799034356006
10
110.34137303435598
20
77.442534965643986
42
-0.1989123673796625
10
110.429241
20
77.230402931287998
10
110.429241
20
76.704666999996007
0
LWPOLYLINE
5
102
100
AcDbEntity
8
0
100
AcDbPolyline
90
37
70
1
43
0.0
10
127.42317637608357
20
119.60459355741931
10
127.63306603722064
20
118.82127467807381
10
126.23247358910166
20
118.44598706267449
10
126.25268664350259
20
118.37055091667425
10
127.65327909162156
20
118.74583853207356
10
127.86316875275864
20
117.96251965272809
10
126.26939113938187
20
117.53546822830816
10
126.40546161109316
20
117.02764631447288
42
-0.19891236737976362
10
126.37549148434189
20
116.80000060094208
10
125.89871478904556
20
115.97419914082325
42
-0.19891236737974133
10
125.71655288144106
20
115.83442139293643
10
123.90473110211182
20
115.34894521033513
42
0.2859547796922956
10
122.64303349279984
20
113.50972389322496
42
-0.3271707037470879
10
121.90148860943383
20
112.58633421428809
10
118.71393338268595
20
111.73223136544662
42
-0.41421356237674356
10
117.73413748555049
20
112.29791679039988
10
117.56590510623417
20
112.92576857748787
10
115.9721274928568
20
112.49871715306779
10
115.76223783171974
20
113.28203603241317
10
117.1628302798387
20
113.6573236478125
10
117.14261722543775
20
113.7327597938129
10
115.74202477731876
20
113.35747217841357
10
115.53213511618173
20
114.14079105775897
10
117.12591272956074
20
114.5678424821795
10
116.9576803502444
20
115.19569426926749
42
-0.41421356237675983
10
117.52336577520781
20
116.17549016639219
10
120.32455067144092
20
116.92606539718955
42
0.38898369055622389
10
121.19896071336191
20
118.29916666022038
10
121.15347690743536
20
118.46891453485837
42
-0.19891236737976209
10
121.18344703418668
20
118.69656024838916
10
121.66022372948304
20
119.52236170850801
42
-0.19891236737968732
10
121.84238563708752
20
119.66213945639481
10
124.50010336945701
20
120.37427277649451
42
-0.19891236737973186
10
124.72774908298783
20
120.34430264974321
10
125.55355054310668
20
119.8675259544469
42
-0.19891236737964876
10
125.69332829099349
20
119.68536404684238
10
125.8293987627068
20
119.17754213299938
0
LWPOLYLINE
5
103
100
AcDbEntity
8
0
100
AcDbPolyline
90
37
70
1
43
0.0
10
117.17920500000002
20
92.524989000000005
10
117.17920500000002
20
93.335940377451919
10
118.62920500000001
20
93.335940377451919
10
118.62920500000001
20
93.414037622548079
10
117.17920500000002
20
93.414037622548079
10
117.17920500000002
20
94.224988999999994
10
118.82920500000236
20
94.224989000000008
10
118.82920500000303
20
94.874988999999999
42
-0.41421356237672402
10
119.62920500002001
20
95.674989000007002
10
122.52920500001501
20
95.674989000007002
42
0.38898369055621829
10
123.72920500000023
20
96.774988999999977
10
123.72920499999998
20
96.950724931287994
42
-0.19891236737969967
10
123.81707296564402
20
97.162856965643996
10
124.49133703435604
20
97.83712103435596
42
-0.19891236737953116
10
124.70346906871201
20
97.924988999999997
10
127.45494093128801
20
97.924989000000039
42
-0.19891236737969967
10
127.66707296564402
20
97.837121034355988
10
128.34133703435597
20
97.162856965643968
42
-0.19891236737961634
10
128.42920500000002
20
96.950724931288022
10
128.42920500000002
20
96.424988999996003
10
130.079205
20
96.424988999996003
10
130.079205
20
95.614037622544004
10
128.62920500000001
20
95.614037622544004
10
128.62920500000001
20
95.535940377448
10
130.079205
20
95.535940377448
10
130.079205
20
94.724988999996
10
128.42920500000002
20
94.724988999996
10
128.42920500000005
20
94.199253068711997
42
-0.19891236737955736
10
128.341337034356
20
93.987121034355994
10
127.667072965644
20
93.312856965644045
42
-0.19891236737974768
10
127.45494093128801
20
93.224988999999994
10
125.579205
20
93.224989000000022
42
0.28595477969229416
10
123.88447318917103
20
91.774988999992999
42
-0.32717070374708146
10
122.929205000015
20
91.074988999992996
10
119.62920500002001
20
91.074988999989984
42
-0.41421356237675
10
118.829205
20
91.874988999999999
10
118.82920500000067
20
92.524988999999991
0
LWPOLYLINE
5
104
100
AcDbEntity
8
0
100
AcDbPolyline
90
37
70
1
43
0.0
10
112.079241
20
59.704446999996001
10
112.079241
20
58.893495622544009
10
110.62924100000001
20
58.893495622544009
10
110.62924100000001
20
58.815398377447998
10
112.079241
20
58.815398377447998
10
112.079241
20
58.004446999996006
10
110.429241
20
58.004446999996006
10
110.42924100000005
20
57.478711068712002
42
-0.19891236737957824
10
110.341373034356
20
57.266579034356006
10
109.66710896564399
20
56.592314965644057
42
-0.19891236737968523
10
109.454976931288
20
56.504447000000006
10
107.57924099999998
20
56.504447000000027
42
0.28595477969228283
10
105.88450918917103
20
55.05444699999299
42
-0.32717070374709156
10
104.929241000015
20
54.354446999993002
10
101.62924100002002
20
54.354446999989996
42
-0.41421356237674678
10
100.829241
20
55.154447000000005
10
100.82924100000065
20
55.804447000000003
10
99.179241000000005
20
55.804447000000003
10
99.179241000000005
20
56.615398377451911
10
100.62924100000001
20
56.615398377451911
10
100.62924100000001
20
56.693495622548085
10
99.179241000000005
20
56.693495622548085
10
99.179241000000005
20
57.504446999999999
10
100.82924100000236
20
57.504446999999999
10
100.82924100000301
20
58.154447000000005
42
-0.41421356237675655
10
101.62924100002002
20
58.954447000007008
10
104.52924100001499
20
58.954447000007008
42
0.38898369055622006
10
105.72924100000021
20
60.054446999999982
10
105.72924099999994
20
60.230182931287999
42
-0.19891236737967982
10
105.81710896564401
20
60.442314965644002
10
106.49137303435606
20
61.116579034355979
42
-0.19891236737963169
10
106.703505068712
20
61.204447000000002
10
109.454976931288
20
61.204447000000059
42
-0.19891236737966886
10
109.667108965644
20
61.116579034356
10
110.34137303435598
20
60.442314965643973
42
-0.1989123673796625
10
110.429241
20
60.230182931287992
10
110.429241
20
59.704446999996001
0
LWPOLYLINE
5
105
100
AcDbEntity
8
0
100
AcDbPolyline
90
37
70
1
43
0.0
10
117.17920500000002
20
58.524549000000007
10
117.17920500000002
20
59.335500377451915
10
118.62920500000001
20
59.335500377451922
10
118.62920500000001
20
59.413597622548089
10
117.17920500000002
20
59.413597622548089
10
117.17920500000002
20
60.224549000000003
10
118.82920500000237
20
60.224549000000003
10
118.82920500000303
20
60.874549000000009
42
-0.41421356237675655
10
119.62920500002002
20
61.674549000007005
10
122.52920500001501
20
61.674549000007005
42
0.38898369055622006
10
123.72920500000022
20
62.774548999999986
10
123.72920499999995
20
62.950284931288003
42
-0.19891236737967982
10
123.81707296564402
20
63.162416965644006
10
124.49133703435606
20
63.836681034355976
42
-0.19891236737963169
10
124.70346906871201
20
63.924549000000006
10
127.45494093128801
20
63.924549000000056
42
-0.19891236737966886
10
127.66707296564402
20
63.836681034356005
10
128.341337034356
20
63.162416965643978
42
-0.1989123673796625
10
128.42920500000002
20
62.950284931287996
10
128.42920500000002
20
62.424548999996006
10
130.079205
20
62.424548999996006
10
130.079205
20
61.613597622544006
10
128.62920500000001
20
61.613597622544006
10
128.62920500000001
20
61.535500377448002
10
130.079205
20
61.535500377448002
10
130.079205
20
60.724548999996003
10
128.42920500000002
20
60.724548999996003
10
128.42920500000005
20
60.198813068711999
42
-0.19891236737957824
10
128.341337034356
20
59.98668103435601
10
127.667072965644
20
59.312416965644061
42
-0.19891236737968523
10
127.45494093128801
20
59.22454900000001
10
125.579205
20
59.224549000000039
42
0.28595477969228283
10
123.88447318917103
20
57.774548999992994
42
-0.32717070374709156
10
122.929205000015
20
57.074548999992999
10
119.62920500002002
20
57.07454899999
42
-0.41421356237674678
10
118.829205
20
57.874549000000009
10
118.82920500000067
20
58.524549000000007
0
LWPOLYLINE
5
106
100
AcDbEntity
8
0
100
AcDbPolyline
90
37
70
1
43
0.0
10
145.67849236386789
20
129.72787432893855
10
146.08396805259406
20
129.02556983483123
10
144.82823121710678
20
128.30056983483098
10
144.8672798396548
20
128.23293563661224
10
146.12301667514205
20
128.95793563661252
10
146.52849236386822
20
128.25563114250519
10
145.09955044762407
20
127.43063114250488
10
145.3624184132662
20
126.97533047033076
42
-0.19891236737969931
10
145.39238854001766
20
126.74768475679996
10
145.14559076201016
20
125.82662291008027
42
-0.19891236737963075
10
145.00581301412348
20
125.64446100247565
10
143.38137804683697
20
124.70659303683134
42
0.28595477969227995
10
142.63869724606147
20
122.60349029592317
42
-0.32717070374710117
10
142.16141072682544
20
121.51963841869593
10
139.30352689434298
20
119.86963841869523
42
-0.41421356237676227
10
138.21070657129306
20
120.1624587417212
10
137.8857065712935
20
120.7253752541813
10
136.45676465504877
20
119.90037525418067
10
136.05128896632269
20
120.60267974828793
10
137.30702580180997
20
121.32767974828822
10
137.26797717926186
20
121.39531394650706
10
136.01224034377458
20
120.67031394650678
10
135.60676465504849
20
121.37261844061405
10
137.03570657129464
20
122.19761844061553
10
136.71070657129508
20
122.76053495307566
42
-0.41421356237676055
10
137.00352689433362
20
123.85335527611785
10
139.51500056530386
20
125.30335527611591
42
0.38898369055621607
10
140.00423104983554
20
126.85598322026541
10
139.91636308419123
20
127.00817500111839
42
-0.19891236737957491
10
139.88639295743982
20
127.23582071464919
10
140.13319073544727
20
128.15688256136889
42
-0.19891236737958276
10
140.27296848333398
20
128.3390444689735
10
142.65581301412254
20
129.71478040026204
42
-0.19891236737977711
10
142.88345872765336
20
129.74475052701351
10
143.80452057437304
20
129.497952749006
42
-0.19891236737958276
10
143.98668248197765
20
129.35817500111932
10
144.24955044762373
20
128.90287432893825
0
LWPOLYLINE
5
107
100
AcDbEntity
8
0
100
AcDbPolyline
90
37
70
1
43
0.0
10
130.079205
20
79.424768999996004
10
130.079205
20
78.613817622543991
10
128.62920500000001
20
78.613817622543991
10
128.62920500000001
20
78.535720377448001
10
130.079205
20
78.535720377448001
10
130.079205
20
77.724768999996002
10
128.42920500000002
20
77.724768999996002
10
128.42920500000005
20
77.199033068711998
42
-0.19891236737961993
10
128.341337034356
20
76.986901034356009
10
127.667072965644
20
76.31263696564406
42
-0.19891236737967519
10
127.45494093128801
20
76.224769000000009
10
125.579205
20
76.224769000000038
42
0.28595477969228106
10
123.88447318917103
20
74.774768999993
42
-0.32717070374709389
10
122.929205000015
20
74.074768999992997
10
119.62920500002002
20
74.074768999989999
42
-0.41421356237674678
10
118.829205
20
74.874769000000015
10
118.82920500000067
20
75.524769000000006
10
117.17920500000002
20
75.524769000000006
10
117.17920500000002
20
76.335720377451906
10
118.62920500000001
20
76.335720377451906
10
118.62920500000001
20
76.413817622548081
10
117.17920500000002
20
76.413817622548081
10
117.17920500000002
20
77.224769000000009
10
118.82920500000236
20
77.224769000000009
10
118.82920500000301
20
77.874769000000001
42
-0.41421356237673052
10
119.62920500002001
20
78.674769000007004
10
122.52920500001501
20
78.674769000007004
42
0.38898369055622006
10
123.72920500000022
20
79.774768999999978
10
123.72920499999998
20
79.950504931287981
42
-0.19891236737969967
10
123.81707296564402
20
80.162636965643998
10
124.49133703435604
20
80.836901034355947
42
-0.19891236737953116
10
124.70346906871201
20
80.924768999999998
10
127.45494093128801
20
80.924769000000055
42
-0.19891236737955736
10
127.66707296564402
20
80.836901034356003
10
128.34133703435594
20
80.162636965643969
42
-0.19891236737965351
10
128.42920500000002
20
79.950504931288009
10
128.42920500000002
20
79.424768999996004
0
CIRCLE
5
108
100
AcDbEntity
8
0
100
AcDbCircle
10
139.5
20
112.00000000000001
30
0
40
1.6000000000000014
210
0
220
0
230
1
0
CIRCLE
5
109
100
AcDbEntity
8
0
100
AcDbCircle
10
34.299999999999997
20
121.014348
30
0
40
1.6000000000000014
210
0
220
0
230
1
0
LWPOLYLINE
5
110
100
AcDbEntity
8
0
100
AcDbPolyline
90
37
70
1
43
0.0
10
74.442594475967468
20
77.888282814229811
10
74.38602536749849
20
77.079306873575007
10
72.939557494621738
20
77.180453760503966
10
72.934109706194704
20
77.102546756371879
10
74.380577579071456
20
77.001399869442906
10
74.324008470602465
20
76.192423928788102
10
72.678027787673756
20
76.307522110465897
10
72.641354302986855
20
75.783066845487099
42
-0.19891236737972609
10
72.538902796606038
20
75.577580913543471
10
71.819246917471304
20
74.951993602020224
42
-0.19891236737966583
10
71.601502266650897
20
74.879137261009092
10
69.730335533817367
20
75.009981985250917
42
0.28595477969228489
10
67.938585117573169
20
73.681732627432552
42
-0.32717070374707258
10
66.936814382093445
20
73.050073932606139
10
63.644853016240795
20
73.280270295958374
42
-0.41421356237675699
10
62.902606955008977
20
74.134126715172911
10
62.947948662943304
20
74.782543347841752
10
61.301967980013941
20
74.897641529519603
10
61.358537088482933
20
75.706617470174308
10
62.805004961359671
20
75.605470583245321
10
62.810452749786705
20
75.683377587377606
10
61.363984876909967
20
75.784524474306579
10
61.420553985378952
20
76.593500414961298
10
63.066534668310005
20
76.478402233283333
10
63.111876376244318
20
77.126818865952174
42
-0.41421356237676532
10
63.96573279546493
20
77.869064927170527
10
66.858668541213433
20
77.666771153312951
42
0.38898369055621829
10
68.132477522628506
20
78.680383840099836
10
68.144736241505015
20
78.855691687491728
42
-0.19891236737967924
10
68.247187747885846
20
79.061177619435355
10
68.966843627020623
20
79.686764930958603
42
-0.19891236737972701
10
69.184588277840987
20
79.759621271969735
10
71.929357693248264
20
79.567688297230347
42
-0.1989123673797156
10
72.134843625191891
20
79.465236790849502
10
72.760430936715139
20
78.745580911714754
42
-0.19891236737973764
10
72.833287277726271
20
78.527836260894361
10
72.796613793038759
20
78.003380995907591
0
LWPOLYLINE
5
111
100
AcDbEntity
8
0
100
AcDbPolyline
90
37
70
1
43
0.0
10
73.25671847596746
20
60.929474814229813
10
73.200149367498483
20
60.120498873575002
10
71.753681494621731
20
60.221645760503989
10
71.748233706194696
20
60.143738756371874
10
73.194701579071449
20
60.042591869442901
10
73.138132470602457
20
59.233615928788112
10
71.492151787673748
20
59.348714110465899
10
71.455478302986847
20
58.824258845487108
42
-0.19891236737972079
10
71.353026796606031
20
58.618772913543481
10
70.633370917471311
20
57.993185602020247
42
-0.19891236737962636
10
70.415626266650889
20
57.920329261009094
10
68.54445953381736
20
58.051173985250919
42
0.28595477969228705
10
66.752709117573147
20
56.722924627432562
42
-0.32717070374708307
10
65.750938382093437
20
56.091265932606149
10
62.458977016240794
20
56.321462295958383
42
-0.41421356237675699
10
61.71673095500897
20
57.175318715172921
10
61.762072662943297
20
57.823735347841762
10
60.116091980013941
20
57.938833529519599
10
60.172661088482926
20
58.74780947017431
10
61.619128961359664
20
58.646662583245337
10
61.624576749786698
20
58.724569587377616
10
60.17810887690996
20
58.825716474306581
10
60.234677985378944
20
59.634692414961307
10
61.880658668309998
20
59.519594233283343
10
61.926000376244318
20
60.168010865952184
42
-0.41421356237676532
10
62.77985679546493
20
60.910256927170536
10
65.67279254121344
20
60.70796315331296
42
0.38898369055621829
10
66.946601522628512
20
61.721575840099845
10
66.958860241505008
20
61.896883687491737
42
-0.19891236737967924
10
67.061311747885838
20
62.102369619435365
10
67.780967627020615
20
62.727956930958612
42
-0.19891236737972701
10
67.99871227784098
20
62.800813271969737
10
70.743481693248242
20
62.608880297230336
42
-0.19891236737972609
10
70.94896762519187
20
62.506428790849512
10
71.574554936715131
20
61.786772911714756
42
-0.19891236737973209
10
71.647411277726263
20
61.56902826089437
10
71.610737793038751
20
61.0445729959076
0
LWPOLYLINE
5
112
100
AcDbEntity
8
0
100
AcDbPolyline
90
37
70
1
43
0.0
10
75.628469475967478
20
94.847091814229799
10
75.571900367498486
20
94.038115873575009
10
74.125432494621734
20
94.139262760503982
10
74.119984706194714
20
94.061355756371881
10
75.566452579071466
20
93.960208869442909
10
75.50988347060246
20
93.151232928788104
10
73.863902787673766
20
93.266331110465899
10
73.827229302986865
20
92.741875845487073
42
-0.19891236737972123
10
73.724777796606048
20
92.536389913543474
10
73.005121917471328
20
91.910802602020212
42
-0.19891236737975229
10
72.787377266650907
20
91.83794626100908
10
70.916210533817363
20
91.968790985250905
42
0.28595477969228955
10
69.124460117573179
20
90.640541627432583
42
-0.32717070374710222
10
68.122689382093455
20
90.008882932606141
10
64.830728016240798
20
90.239079295958362
42
-0.41421356237674684
10
64.088481955008973
20
91.092935715172914
10
64.1338236629433
20
91.741352347841755
10
62.487842980013951
20
91.856450529519606
10
62.544412088482929
20
92.66542647017431
10
63.990879961359674
20
92.564279583245337
10
63.996327749786708
20
92.642186587377608
10
62.54985987690997
20
92.743333474306581
10
62.606428985378955
20
93.5523094149613
10
64.252409668310008
20
93.437211233283335
10
64.297751376244321
20
94.085627865952191
42
-0.41421356237675561
10
65.151607795464926
20
94.827873927170558
10
68.044543541213443
20
94.625580153312953
42
0.38898369055622245
10
69.318352522628516
20
95.639192840099852
10
69.330611241505039
20
95.814500687491716
42
-0.19891236737973036
10
69.433062747885856
20
96.019986619435372
10
70.152718627020604
20
96.645573930958619
42
-0.19891236737981682
10
70.370463277840997
20
96.718430271969737
10
73.115232693248259
20
96.526497297230321
42
-0.19891236737964335
10
73.320718625191887
20
96.424045790849519
10
73.946305936715149
20
95.704389911714742
42
-0.19891236737961759
10
74.019162277726281
20
95.486645260894363
10
73.982488793038769
20
94.962189995907593
0
LWPOLYLINE
5
113
100
AcDbEntity
8
0
100
AcDbPolyline
90
37
70
1
43
0.0
10
94.079228999999998
20
68.268187999996002
10
94.079228999999998
20
67.457236622544002
10
92.629228999999995
20
67.457236622544002
10
92.629228999999995
20
67.379139377447984
10
94.079228999999998
20
67.379139377447999
10
94.079228999999998
20
66.568187999995999
10
92.429228999999992
20
66.568187999995999
10
92.429229000000035
20
66.042452068711995
42
-0.19891236737957824
10
92.341361034355998
20
65.830320034356006
10
91.667096965643978
20
65.156055965644057
42
-0.19891236737968523
10
91.454964931288004
20
65.068188000000006
10
89.579228999999984
20
65.068188000000035
42
0.28595477969228283
10
87.884497189171014
20
63.61818799999299
42
-0.32717070374709156
10
86.929229000014985
20
62.918187999992995
10
83.629229000020018
20
62.918187999989996
42
-0.41421356237674678
10
82.829228999999998
20
63.718188000000005
10
82.829229000000652
20
64.368188000000004
10
81.179228999999992
20
64.368188000000004
10
81.179228999999992
20
65.179139377451904
10
82.629228999999995
20
65.179139377451904
10
82.629228999999995
20
65.257236622548078
10
81.179228999999992
20
65.257236622548078
10
81.179228999999992
20
66.068188000000006
10
82.829229000002357
20
66.068188000000006
10
82.829229000003011
20
66.718187999999998
42
-0.41421356237675655
10
83.629229000020018
20
67.518188000007001
10
86.529229000014993
20
67.518188000007001
42
0.38898369055622006
10
87.729229000000203
20
68.618187999999975
10
87.729228999999947
20
68.793923931287992
42
-0.19891236737967982
10
87.817096965643998
20
69.006055965644009
10
88.491361034356046
20
69.680320034355972
42
-0.19891236737963169
10
88.703493068711992
20
69.768188000000009
10
91.454964931288004
20
69.768188000000052
42
-0.19891236737966886
10
91.667096965643992
20
69.680320034356001
10
92.34136103435597
20
69.006055965643981
42
-0.1989123673796625
10
92.429228999999992
20
68.793923931287992
10
92.429228999999992
20
68.268187999996002
0
LWPOLYLINE
5
114
100
AcDbEntity
8
0
100
AcDbPolyline
90
37
70
1
43
0.0
10
107.05316500000001
20
114.41434799999601
10
107.05316500000001
20
113.60339662254403
10
105.603165
20
113.60339662254403
10
105.603165
20
113.52529937744802
10
107.05316500000001
20
113.52529937744802
10
107.05316500000001
20
112.71434799999602
10
105.40316500000002
20
112.71434799999602
10
105.40316500000004
20
112.18861206871202
42
-0.19891236737955736
10
105.31529703435601
20
111.97648003435602
10
104.641032965644
20
111.30221596564405
42
-0.19891236737960999
10
104.42890093128801
20
111.21434800000002
10
102.55316499999999
20
111.21434800000004
42
0.28595477969229127
10
100.85843318917102
20
109.76434799999302
42
-0.32717070374708812
10
99.903165000014994
20
109.06434799999302
10
96.603165000019999
20
109.06434799999003
42
-0.41421356237676304
10
95.803165000000007
20
109.86434800000001
10
95.803165000000661
20
110.51434800000001
10
94.153165000000016
20
110.51434800000003
10
94.153165000000016
20
111.32529937745193
10
95.603165000000004
20
111.32529937745196
10
95.603165000000004
20
111.4033966225481
10
94.153165000000016
20
111.4033966225481
10
94.153165000000016
20
112.214348
10
95.803165000002352
20
112.21434800000003
10
95.803165000003006
20
112.86434800000002
42
-0.41421356237678253
10
96.603165000019999
20
113.66434800000702
10
99.503165000015002
20
113.66434800000701
42
0.38898369055622256
10
100.70316500000024
20
114.764348
10
100.70316499999997
20
114.94008393128802
42
-0.19891236737955736
10
100.79103296564401
20
115.15221596564402
10
101.46529703435603
20
115.82648003435597
42
-0.19891236737955748
10
101.677429068712
20
115.91434800000002
10
104.42890093128801
20
115.91434800000007
42
-0.19891236737971052
10
104.64103296564402
20
115.82648003435601
10
105.31529703435596
20
115.152215965644
42
-0.19891236737959453
10
105.40316500000002
20
114.94008393128802
10
105.40316500000002
20
114.41434799999601
0
LWPOLYLINE
5
115
100
AcDbEntity
8
0
100
AcDbPolyline
90
37
70
1
43
0.0
10
39.463014674224951
20
104.67925432613363
10
39.322194445353844
20
103.88062312230298
10
37.89422320348617
20
104.13241297992018
10
37.880661759194439
20
104.05550220746076
10
39.308633001062113
20
103.80371234984354
10
39.167812772191006
20
103.00508114601291
10
37.542879979720887
20
103.29160063916351
10
37.451586893319401
20
102.77385181799792
42
-0.19891236737968154
10
37.328217498321003
20
102.58020065801128
10
36.547112289077674
20
102.03326490236444
42
-0.19891236737973442
10
36.322944904872259
20
101.98356818974747
10
34.475705617136292
20
102.30928631600024
42
0.28595477969227973
10
32.554930732937109
20
101.17560216471047
42
-0.32717070374708113
10
31.49262148968343
20
100.65211731783215
10
28.242755904747604
20
101.22515630412951
42
-0.4142135623767621
10
27.593828244453512
20
102.15192104868622
10
27.706699559937729
20
102.79204608814405
10
26.081766767466981
20
103.07856558129475
10
26.222586996338073
20
103.87719678512532
10
27.650558238205747
20
103.62540692750812
10
27.664119682497521
20
103.70231769996772
10
26.236148440629847
20
103.95410755758492
10
26.37696866950094
20
104.75273876141549
10
28.001901461973375
20
104.46621926826447
10
28.114772777457592
20
105.10634430772228
42
-0.41421356237677048
10
29.04153752201891
20
105.75527196800235
10
31.897480005749337
20
105.25169225276882
42
0.38898369055622123
10
33.270262304781923
20
106.12660296787745
10
33.300778529000446
20
106.29966907549276
42
-0.19891236737973694
10
33.424147923998831
20
106.49332023547939
10
34.205253133242181
20
107.04025599112626
42
-0.1989123673795907
10
34.429420517447575
20
107.08995270374322
10
37.139091339907317
20
106.61216462890482
42
-0.19891236737965487
10
37.332742499893968
20
106.48879523390642
10
37.879678255540838
20
105.70769002466307
42
-0.19891236737969517
10
37.929374968157781
20
105.48352264045768
10
37.838081881754846
20
104.96577381928424
0
LWPOLYLINE
5
116
100
AcDbEntity
8
0
100
AcDbPolyline
90
37
70
1
43
0.0
10
94.079228999999998
20
51.267967999996003
10
94.079228999999998
20
50.457016622544003
10
92.629228999999995
20
50.457016622544003
10
92.629228999999995
20
50.378919377448
10
94.079228999999998
20
50.378919377448
10
94.079228999999998
20
49.567967999996007
10
92.429228999999992
20
49.567967999996007
10
92.429229000000035
20
49.042232068712003
42
-0.19891236737961993
10
92.341361034355998
20
48.830100034356008
10
91.667096965643978
20
48.155835965644073
42
-0.19891236737967519
10
91.454964931288004
20
48.067968000000008
10
89.579228999999984
20
48.067968000000036
42
0.28595477969228106
10
87.884497189171014
20
46.617967999992999
42
-0.32717070374709389
10
86.929229000014985
20
45.917967999993003
10
83.629229000020018
20
45.917967999989997
42
-0.41421356237674678
10
82.829228999999998
20
46.717968000000013
10
82.829229000000652
20
47.367968000000005
10
81.179228999999992
20
47.367968000000005
10
81.179228999999992
20
48.178919377451912
10
82.629228999999995
20
48.178919377451912
10
82.629228999999995
20
48.257016622548086
10
81.179228999999992
20
48.257016622548086
10
81.179228999999992
20
49.067968000000008
10
82.829229000002329
20
49.067968000000008
10
82.829229000002996
20
49.717968000000006
42
-0.41421356237673052
10
83.62922900001999
20
50.517968000007009
10
86.529229000014993
20
50.517968000007009
42
0.38898369055622006
10
87.729229000000203
20
51.617967999999983
10
87.729228999999961
20
51.793703931288
42
-0.19891236737969967
10
87.817096965643998
20
52.005835965644003
10
88.491361034356046
20
52.680100034355981
42
-0.19891236737962084
10
88.703493068711992
20
52.767968000000003
10
91.454964931288004
20
52.76796800000006
42
-0.1989123673795892
10
91.667096965643992
20
52.680100034356002
10
92.34136103435597
20
52.005835965643982
42
-0.19891236737965706
10
92.429228999999992
20
51.793703931288
10
92.429228999999992
20
51.267967999996003
0
LWPOLYLINE
5
117
100
AcDbEntity
8
0
100
AcDbPolyline
90
37
70
1
43
0.0
10
94.079228999999998
20
85.268407999996015
10
94.079228999999998
20
84.457456622544015
10
92.629228999999995
20
84.457456622544015
10
92.629228999999995
20
84.379359377447997
10
94.079228999999998
20
84.379359377447997
10
94.079228999999998
20
83.568407999996012
10
92.429228999999992
20
83.568407999996012
10
92.429229000000035
20
83.042672068712008
42
-0.19891236737955736
10
92.341361034355998
20
82.830540034356005
10
91.667096965643992
20
82.156275965644085
42
-0.1989123673797015
10
91.454964931288004
20
82.068408000000005
10
89.579228999999984
20
82.068408000000034
42
0.2859547796922795
10
87.884497189171014
20
80.618407999993011
42
-0.32717070374708002
10
86.929229000014985
20
79.918407999993008
10
83.62922900001999
20
79.918407999989981
42
-0.41421356237675
10
82.829228999999998
20
80.718408000000011
10
82.829229000000652
20
81.368408000000002
10
81.179228999999992
20
81.368408000000017
10
81.179228999999992
20
82.179359377451931
10
82.629228999999995
20
82.179359377451931
10
82.629228999999995
20
82.257456622548091
10
81.179228999999992
20
82.257456622548091
10
81.179228999999992
20
83.068408000000005
10
82.829229000002329
20
83.068408000000019
10
82.829229000002996
20
83.718408000000011
42
-0.41421356237675655
10
83.62922900001999
20
84.518408000007014
10
86.529229000014993
20
84.518408000006986
42
0.38898369055622256
10
87.729229000000231
20
85.618407999999988
10
87.729228999999961
20
85.794143931288005
42
-0.19891236737969967
10
87.817096965643998
20
86.006275965644008
10
88.491361034356004
20
86.680540034355971
42
-0.19891236737953116
10
88.703493068711992
20
86.768408000000008
10
91.454964931288004
20
86.768408000000065
42
-0.19891236737971052
10
91.667096965643992
20
86.680540034356
10
92.341361034355955
20
86.006275965643994
42
-0.19891236737959453
10
92.429228999999992
20
85.794143931288005
10
92.429228999999992
20
85.268407999996015
0
LWPOLYLINE
5
118
100
AcDbEntity
8
0
100
AcDbPolyline
90
37
70
1
43
0.0
10
45.18382476746698
20
107.47051658129476
10
45.324644996338073
20
108.26914778512531
10
46.752616238205746
20
108.01735792750812
10
46.766177682497514
20
108.09426869996771
10
45.33820644062984
20
108.34605855758491
10
45.479026669500939
20
109.14468976141548
10
47.103959461973361
20
108.85817026826446
10
47.216830777457552
20
109.49829530772227
42
-0.41421356237675977
10
48.143595522018913
20
110.14722296800232
10
50.999538005749336
20
109.64364325276881
42
0.38898369055622228
10
52.37232030478193
20
110.51855396787744
10
52.402836529000432
20
110.69162007549275
42
-0.1989123673795907
10
52.52620592399883
20
110.88527123547937
10
53.30731113324218
20
111.43220699112625
42
-0.19891236737957096
10
53.531478517447582
20
111.48190370374321
10
56.241149339907331
20
111.00411562890484
42
-0.19891236737964924
10
56.434800499893967
20
110.88074623390641
10
56.981736255540852
20
110.09964102466306
42
-0.19891236737963075
10
57.031432968157787
20
109.87547364045767
10
56.940139881754853
20
109.35772481928423
10
58.565072674224972
20
109.07120532613362
10
58.424252445353851
20
108.27257412230297
10
56.996281203486177
20
108.52436397992017
10
56.982719759194453
20
108.44745320746074
10
58.410691001062112
20
108.19566334984353
10
58.269870772191005
20
107.3970321460129
10
56.644937979720893
20
107.68355163916351
10
56.553644893319429
20
107.16580281799791
42
-0.19891236737972598
10
56.430275498321009
20
106.97215165801127
10
55.649170289077674
20
106.42521590236443
42
-0.19891236737973442
10
55.425002904872258
20
106.37551918974748
10
53.577763617136299
20
106.70123731600023
42
0.2859547796922845
10
51.656988732937101
20
105.56755316471046
42
-0.32717070374707785
10
50.594679489683429
20
105.04406831783214
10
47.344813904747618
20
105.61710730412952
42
-0.41421356237675222
10
46.695886244453526
20
106.5438720486862
10
46.808757559937739
20
107.18399708814404
0
LWPOLYLINE
5
119
100
AcDbEntity
8
0
100
AcDbPolyline
90
37
70
1
43
0.0
10
42.231766767466965
20
90.728565581294745
10
42.372586996338065
20
91.527196785125312
10
43.800558238205738
20
91.275406927508115
10
43.814119682497505
20
91.352317699967713
10
42.386148440629832
20
91.604107557584911
10
42.526968669500931
20
92.402738761415463
10
44.151901461973353
20
92.116219268264459
10
44.264772777457551
20
92.756344307722273
42
-0.41421356237674695
10
45.191537522018905
20
93.405271968002324
10
48.047480005749328
20
92.901692252768811
42
0.38898369055622228
10
49.420262304781922
20
93.776602967877437
10
49.450778529000424
20
93.94966907549275
42
-0.19891236737977688
10
49.574147923998822
20
94.143320235479365
10
50.355253133242201
20
94.69025599112625
42
-0.19891236737949469
10
50.579420517447574
20
94.739952703743185
10
53.289091339907316
20
94.262164628904813
42
-0.19891236737963919
10
53.482742499893959
20
94.138795233906407
10
54.029678255540851
20
93.357690024663071
42
-0.19891236737973139
10
54.079374968157779
20
93.13352264045767
10
53.988081881754852
20
92.615773819284215
10
55.613014674224964
20
92.329254326133622
10
55.47219444535385
20
91.53062312230297
10
54.044223203486169
20
91.782412979920153
10
54.030661759194444
20
91.705502207460739
10
55.458633001062111
20
91.453712349843528
10
55.317812772190997
20
90.65508114601289
10
53.692879979720885
20
90.941600639163497
10
53.601586893319407
20
90.423851817997928
42
-0.19891236737979859
10
53.478217498321001
20
90.23020065801127
10
52.697112289077666
20
89.683264902364428
42
-0.19891236737972287
10
52.47294490487225
20
89.633568189747464
10
50.62570561713629
20
89.959286316000231
42
0.28595477969228233
10
48.704930732937093
20
88.825602164710432
42
-0.32717070374707674
10
47.642621489683421
20
88.302117317832142
10
44.392755904747609
20
88.875156304129504
42
-0.41421356237675222
10
43.743828244453518
20
89.801921048686197
10
43.856699559937731
20
90.442046088144039
0
CIRCLE
5
120
100
AcDbEntity
8
0
100
AcDbCircle
10
131.19999999999999
20
52.700000000000003
30
0
40
1.6000000000000014
210
0
220
0
230
1
0
CIRCLE
5
121
100
AcDbEntity
8
0
100
AcDbCircle
10
57
20
52.700000000000003
30
0
40
1.6000000000000014
210
0
220
0
230
1
0
LWPOLYLINE
5
122
100
AcDbEntity
8
0
100
AcDbPolyline
90
37
70
1
43
0.0
10
39.279710767466973
20
73.986618581294749
10
39.420530996338066
20
74.785249785125302
10
40.848502238205739
20
74.533459927508105
10
40.862063682497507
20
74.610370699967703
10
39.434092440629833
20
74.862160557584914
10
39.574912669500932
20
75.660791761415467
10
41.199845461973361
20
75.374272268264463
10
41.312716777457567
20
76.014397307722263
42
-0.41421356237675339
10
42.239481522018906
20
76.663324968002343
10
45.095424005749329
20
76.159745252768815
42
0.38898369055621818
10
46.468206304781923
20
77.034655967877427
10
46.498722529000425
20
77.20772207549274
42
-0.198912367379634
10
46.622091923998823
20
77.401373235479383
10
47.403197133242195
20
77.948308991126268
42
-0.19891236737959797
10
47.627364517447575
20
77.998005703743203
10
50.337035339907317
20
77.520217628904831
42
-0.19891236737961032
10
50.53068649989396
20
77.396848233906425
10
51.077622255540838
20
76.615743024663075
42
-0.19891236737958332
10
51.12731896815778
20
76.391575640457688
10
51.036025881754846
20
75.873826819284233
10
52.660958674224965
20
75.587307326133612
10
52.520138445353844
20
74.788676122302974
10
51.09216720348617
20
75.040465979920171
10
51.078605759194446
20
74.963555207460757
10
52.506577001062105
20
74.711765349843546
10
52.365756772190998
20
73.913134146012908
10
50.740823979720886
20
74.1996536391635
10
50.649530893319394
20
73.681904817997932
42
-0.19891236737964416
10
50.526161498321002
20
73.488253658011288
10
49.745056289077667
20
72.941317902364432
42
-0.19891236737966159
10
49.520888904872251
20
72.891621189747468
10
47.673649617136292
20
73.217339316000235
42
0.28595477969228117
10
45.752874732937094
20
72.08365516471045
42
-0.32717070374707852
10
44.690565489683408
20
71.560170317832132
10
41.440699904747611
20
72.133209304129522
42
-0.4142135623767586
10
40.791772244453519
20
73.059974048686215
10
40.904643559937732
20
73.700099088144043
0
LINE
5
123
100
AcDbEntity
8
0
100
AcDbLine
10
143.27041399999999
20
69.884348000000003
30
0
11
143.27041399999999
21
106.28435100000002
31
0
0
LINE
5
124
100
AcDbEntity
8
0
100
AcDbLine
10
143.27041399999999
20
106.28435100000002
30
0
11
143.26690500000001
21
112.28009100000001
31
0
0
LINE
5
125
100
AcDbEntity
8
0
100
AcDbLine
10
143.26690500000001
20
112.28009100000001
30
0
11
143.26690500000001
21
121.57578800000002
31
0
0
LINE
5
126
100
AcDbEntity
8
0
100
AcDbLine
10
143.26690500000001
20
121.57578800000002
30
0
11
148.60090299999999
21
124.655542
31
0
0
SPLINE
5
127
100
AcDbEntity
8
0
100
AcDbSpline
70
0
71
3
72
8
73
4
74
0
42
0.000000001
43
0.0000000001
44
0.0000000001
40
-1
40
-1
40
-1
40
-1
40
0
40
0
40
0
40
0
10
148.60090299999999
20
124.655542
30
0
10
148.74201199999999
20
124.73668500000001
30
0
10
148.79140599999999
20
124.91660500000002
30
0
10
148.710263
20
125.057714
30
0
0
LINE
5
128
100
AcDbEntity
8
0
100
AcDbLine
10
148.71026300000003
20
125.05771400000002
30
0
11
140.25417900000002
21
139.70152300000001
31
0
0
SPLINE
5
129
100
AcDbEntity
8
0
100
AcDbSpline
70
0
71
3
72
8
73
4
74
0
42
0.000000001
43
0.0000000001
44
0.0000000001
40
-1
40
-1
40
-1
40
-1
40
0
40
0
40
0
40
0
10
140.25417900000002
20
139.70152300000001
30
0
10
140.17303699999999
20
139.84263200000001
30
0
10
139.99311599999999
20
139.89202599999999
30
0
10
139.85200700000001
20
139.81088299999999
30
0
0
SPLINE
5
130
100
AcDbEntity
8
0
100
AcDbSpline
70
0
71
3
72
8
73
4
74
0
42
0.000000001
43
0.0000000001
44
0.0000000001
40
-1
40
-1
40
-1
40
-1
40
0
40
0
40
0
40
0
10
139.85200700000001
20
139.81088299999999
30
0
10
138.871286
20
139.24643599999999
30
0
10
135.255313
20
137.15798699999999
30
0
10
132.189674
20
135.387047
30
0
0
SPLINE
5
131
100
AcDbEntity
8
0
100
AcDbSpline
70
0
71
3
72
8
73
4
74
0
42
0.000000001
43
0.0000000001
44
0.0000000001
40
-1
40
-1
40
-1
40
-1
40
0
40
0
40
0
40
0
10
132.189674
20
135.387047
30
0
10
128.23150699999999
20
133.10105300000001
30
0
10
124.27333900000001
20
130.81505000000001
30
0
10
115.460947
20
128.45496499999999
30
0
0
SPLINE
5
132
100
AcDbEntity
8
0
100
AcDbSpline
70
0
71
3
72
8
73
4
74
0
42
0.000000001
43
0.0000000001
44
0.0000000001
40
-1
40
-1
40
-1
40
-1
40
0
40
0
40
0
40
0
10
115.460947
20
128.45496499999999
30
0
10
106.648554
20
126.094881
30
0
10
102.200031
20
126.094881
30
0
10
97.755028999999993
20
126.094881
30
0
0
LINE
5
133
100
AcDbEntity
8
0
100
AcDbLine
10
97.755028999999979
20
126.094881
30
0
11
89.157836000000032
21
126.094881
31
0
0
SPLINE
5
134
100
AcDbEntity
8
0
100
AcDbSpline
70
0
71
3
72
8
73
4
74
0
42
0.000000001
43
0.0000000001
44
0.0000000001
40
-1
40
-1
40
-1
40
-1
40
0
40
0
40
0
40
0
10
89.157836000000003
20
126.094881
30
0
10
88.992030999999997
20
126.094881
30
0
10
88.861503999999996
20
125.960824
30
0
10
88.861503999999996
20
125.79854900000001
30
0
0
LINE
5
135
100
AcDbEntity
8
0
100
AcDbLine
10
88.861503999999996
20
125.79854900000001
30
0
11
88.861503999999996
21
124.59204400000002
31
0
0
LINE
5
136
100
AcDbEntity
8
0
100
AcDbLine
10
88.861503999999996
20
124.59204400000002
30
0
11
31.630362000000005
21
124.59204399999999
31
0
0
SPLINE
5
137
100
AcDbEntity
8
0
100
AcDbSpline
70
0
71
3
72
8
73
4
74
0
42
0.000000001
43
0.0000000001
44
0.0000000001
40
-1
40
-1
40
-1
40
-1
40
0
40
0
40
0
40
0
10
31.630362000000005
20
124.59204400000002
30
0
10
31.080027000000001
20
124.59204400000002
30
0
10
30.632000000000001
20
124.14755200000002
30
0
10
30.632000000000001
20
123.593688
30
0
0
LINE
5
138
100
AcDbEntity
8
0
100
AcDbLine
10
30.632000000000001
20
123.59368800000001
30
0
11
30.632000000000001
21
118.04802100000002
31
0
0
LINE
5
139
100
AcDbEntity
8
0
100
AcDbLine
10
30.632000000000001
20
118.04802100000002
30
0
11
23.872776000000009
21
119.24041199999999
31
0
0
SPLINE
5
140
100
AcDbEntity
8
0
100
AcDbSpline
70
0
71
3
72
8
73
4
74
0
42
0.000000001
43
0.0000000001
44
0.0000000001
40
-1
40
-1
40
-1
40
-1
40
0
40
0
40
0
40
0
10
23.872776000000005
20
119.24041200000002
30
0
10
23.710498999999999
20
119.26864000000002
30
0
10
23.558803999999999
20
119.1628
30
0
10
23.530581999999999
20
119.00052500000001
30
0
0
LINE
5
141
100
AcDbEntity
8
0
100
AcDbLine
10
23.530581999999995
20
119.00052500000001
30
0
11
20.595472000000008
21
102.34940999999999
31
0
0
SPLINE
5
142
100
AcDbEntity
8
0
100
AcDbSpline
70
0
71
3
72
8
73
4
74
0
42
0.000000001
43
0.0000000001
44
0.0000000001
40
-1
40
-1
40
-1
40
-1
40
0
40
0
40
0
40
0
10
20.595472000000004
20
102.34941000000001
30
0
10
20.567250000000001
20
102.187135
30
0
10
20.673083000000002
20
102.035432
30
0
10
20.835360999999999
20
102.007215
30
0
0
LINE
5
143
100
AcDbEntity
8
0
100
AcDbLine
10
20.835360999999999
20
102.00721500000002
30
0
11
30.632000000000001
21
100.278606
31
0
0
LINE
5
144
100
AcDbEntity
8
0
100
AcDbLine
10
30.632000000000001
20
100.278606
30
0
11
30.632000000000001
21
50.653362000000008
31
0
0
SPLINE
5
145
100
AcDbEntity
8
0
100
AcDbSpline
70
0
71
3
72
8
73
4
74
0
42
0.000000001
43
0.0000000001
44
0.0000000001
40
-1
40
-1
40
-1
40
-1
40
0
40
0
40
0
40
0
10
30.632000000000001
20
50.653362000000008
30
0
10
30.632000000000001
20
50.103030000000004
30
0
10
31.076501000000004
20
49.655000000000001
30
0
10
31.630362000000005
20
49.655000000000001
30
0
0
LINE
5
146
100
AcDbEntity
8
0
100
AcDbLine
10
31.630362000000002
20
49.655000000000001
30
0
11
75.896883000000003
21
49.655000000000001
31
0
0
LINE
5
147
100
AcDbEntity
8
0
100
AcDbLine
10
75.896883000000003
20
49.655000000000001
30
0
11
75.896883000000003
21
45.795611000000001
31
0
0
SPLINE
5
148
100
AcDbEntity
8
0
100
AcDbSpline
70
0
71
3
72
8
73
4
74
0
42
0.000000001
43
0.0000000001
44
0.0000000001
40
-1
40
-1
40
-1
40
-1
40
0
40
0
40
0
40
0
10
75.896883000000003
20
45.795611000000001
30
0
10
75.896883000000003
20
45.633336
30
0
10
76.030934999999999
20
45.499277999999997
30
0
10
76.193214999999995
20
45.499277999999997
30
0
0
LINE
5
149
100
AcDbEntity
8
0
100
AcDbLine
10
76.193214999999995
20
45.49927799999999
30
0
11
94.100214000000022
21
45.499277999999997
31
0
0
SPLINE
5
150
100
AcDbEntity
8
0
100
AcDbSpline
70
0
71
3
72
8
73
4
74
0
42
0.000000001
43
0.0000000001
44
0.0000000001
40
-1
40
-1
40
-1
40
-1
40
0
40
0
40
0
40
0
10
94.100213999999994
20
45.499277999999997
30
0
10
94.262488000000019
20
45.499277999999997
30
0
10
94.396546000000001
20
45.633330000000001
30
0
10
94.396546000000001
20
45.795611000000001
30
0
0
LINE
5
151
100
AcDbEntity
8
0
100
AcDbLine
10
94.396546000000001
20
45.795611000000001
30
0
11
94.396546000000001
21
49.655000000000001
31
0
0
LINE
5
152
100
AcDbEntity
8
0
100
AcDbLine
10
94.396546000000001
20
49.655000000000001
30
0
11
142.27554599999999
21
49.654999999999994
31
0
0
SPLINE
5
153
100
AcDbEntity
8
0
100
AcDbSpline
70
0
71
3
72
8
73
4
74
0
42
0.000000001
43
0.0000000001
44
0.0000000001
40
-1
40
-1
40
-1
40
-1
40
0
40
0
40
0
40
0
10
142.27554599999999
20
49.655000000000001
30
0
10
142.82587799999999
20
49.655000000000001
30
0
10
143.27390199999999
20
50.099498000000004
30
0
10
143.27390199999999
20
50.653362000000008
30
0
0
LINE
5
154
100
AcDbEntity
8
0
100
AcDbLine
10
143.27390199999999
20
50.653362000000001
30
0
11
143.27390199999999
21
63.884351000000009
31
0
0
LINE
5
155
100
AcDbEntity
8
0
100
AcDbLine
10
143.27390199999999
20
63.884351000000009
30
0
11
143.27041399999999
21
69.884348000000003
31
0
0
LWPOLYLINE
5
156
100
AcDbEntity
8
0
100
AcDbPolyline
90
37
70
1
43
0.0
10
40.904643559937732
20
73.700099088144043
10
39.279710767466973
20
73.986618581294749
10
39.420530996338066
20
74.785249785125302
10
40.848502238205739
20
74.533459927508105
10
40.862063682497507
20
74.610370699967703
10
39.434092440629833
20
74.862160557584914
10
39.574912669500954
20
75.660791761415609
10
41.199845461973361
20
75.374272268264463
10
41.312716777457567
20
76.014397307722263
42
-0.41421356237675339
10
42.239481522018906
20
76.663324968002343
10
45.095424005749329
20
76.159745252768815
42
0.38898369055621934
10
46.46820630478171
20
77.034655967877484
10
46.498722529000446
20
77.20772207549274
42
-0.19891236737969586
10
46.622091923998823
20
77.401373235479383
10
47.403197133242195
20
77.948308991126268
42
-0.19891236737959175
10
47.627364517447575
20
77.998005703743203
10
50.337035339907317
20
77.520217628904817
42
-0.19891236737968038
10
50.53068649989396
20
77.396848233906425
10
51.077622255540824
20
76.615743024663047
42
-0.19891236737964646
10
51.12731896815778
20
76.391575640457674
10
51.036025881754846
20
75.873826819284233
10
52.660958674224943
20
75.587307326133612
10
52.520138445353844
20
74.788676122302974
10
51.09216720348617
20
75.040465979920171
10
51.078605759194446
20
74.963555207460757
10
52.506577001062112
20
74.711765349843546
10
52.365756772190991
20
73.913134146012865
10
50.740823979720886
20
74.1996536391635
10
50.649530893319394
20
73.681904817997932
42
-0.19891236737964288
10
50.526161498321002
20
73.488253658011288
10
49.745056289077667
20
72.941317902364432
42
-0.19891236737966597
10
49.520888904872251
20
72.891621189747468
10
47.673649617136292
20
73.217339316000235
42
0.28595477969228239
10
45.752874732937101
20
72.08365516471045
42
-0.32717070374707236
10
44.690565489683422
20
71.560170317832132
10
41.440699904747611
20
72.133209304129522
42
-0.41421356237675716
10
40.791772244453519
20
73.059974048686215
0
CIRCLE
5
157
100
AcDbEntity
8
0
100
AcDbCircle
10
57
20
52.700000000000003
30
0
40
1.6000000000000014
210
0
220
-0
230
1
0
CIRCLE
5
158
100
AcDbEntity
8
0
100
AcDbCircle
10
131.19999999999999
20
52.700000000000003
30
0
40
1.6000000000000014
210
0
220
-0
230
1
0
LWPOLYLINE
5
159
100
AcDbEntity
8
0
100
AcDbPolyline
90
37
70
1
43
0.0
10
43.856699559937731
20
90.442046088144039
10
42.231766767466965
20
90.728565581294745
10
42.372586996338065
20
91.527196785125312
10
43.800558238205738
20
91.275406927508115
10
43.814119682497505
20
91.352317699967713
10
42.386148440629832
20
91.604107557584911
10
42.52696866950096
20
92.402738761415605
10
44.151901461973353
20
92.116219268264459
10
44.264772777457551
20
92.756344307722273
42
-0.41421356237674695
10
45.191537522018905
20
93.405271968002324
10
48.047480005749328
20
92.901692252768811
42
0.3889836905562214
10
49.420262304781708
20
93.776602967877494
10
49.450778529000424
20
93.94966907549275
42
-0.19891236737977688
10
49.574147923998822
20
94.143320235479365
10
50.355253133242201
20
94.690255991126236
42
-0.19891236737964529
10
50.579420517447574
20
94.739952703743185
10
53.289091339907316
20
94.262164628904813
42
-0.19891236737963919
10
53.482742499893959
20
94.138795233906407
10
54.029678255540851
20
93.357690024663071
42
-0.19891236737973139
10
54.079374968157779
20
93.13352264045767
10
53.988081881754852
20
92.615773819284215
10
55.613014674224956
20
92.329254326133622
10
55.47219444535385
20
91.53062312230297
10
54.044223203486169
20
91.782412979920153
10
54.030661759194444
20
91.705502207460739
10
55.458633001062118
20
91.453712349843528
10
55.317812772191004
20
90.655081146012947
10
53.692879979720885
20
90.941600639163497
10
53.601586893319407
20
90.423851817997928
42
-0.1989123673797972
10
53.478217498321001
20
90.23020065801127
10
52.697112289077666
20
89.683264902364428
42
-0.19891236737972287
10
52.47294490487225
20
89.633568189747464
10
50.62570561713629
20
89.959286316000231
42
0.28595477969228295
10
48.704930732937086
20
88.825602164710432
42
-0.32717070374708179
10
47.642621489683421
20
88.302117317832142
10
44.392755904747609
20
88.87515630412949
42
-0.41421356237675661
10
43.743828244453518
20
89.801921048686211
0
LWPOLYLINE
5
160
100
AcDbEntity
8
0
100
AcDbPolyline
90
37
70
1
43
0.0
10
46.808757559937739
20
107.18399708814404
10
45.18382476746698
20
107.47051658129476
10
45.324644996338073
20
108.26914778512531
10
46.752616238205746
20
108.01735792750812
10
46.766177682497514
20
108.09426869996771
10
45.33820644062984
20
108.34605855758491
10
45.479026669500968
20
109.14468976141562
10
47.103959461973361
20
108.85817026826446
10
47.216830777457552
20
109.49829530772227
42
-0.41421356237676038
10
48.143595522018913
20
110.14722296800232
10
50.999538005749336
20
109.64364325276881
42
0.3889836905562214
10
52.372320304781717
20
110.51855396787749
10
52.402836529000439
20
110.69162007549275
42
-0.19891236737968571
10
52.52620592399883
20
110.88527123547937
10
53.30731113324218
20
111.43220699112625
42
-0.19891236737957096
10
53.531478517447582
20
111.48190370374321
10
56.241149339907331
20
111.00411562890483
42
-0.19891236737964427
10
56.434800499893967
20
110.88074623390641
10
56.981736255540852
20
110.09964102466306
42
-0.19891236737963075
10
57.031432968157787
20
109.87547364045767
10
56.940139881754853
20
109.35772481928423
10
58.565072674224965
20
109.07120532613362
10
58.424252445353851
20
108.27257412230297
10
56.996281203486177
20
108.52436397992017
10
56.982719759194453
20
108.44745320746074
10
58.410691001062119
20
108.19566334984353
10
58.269870772191013
20
107.39703214601295
10
56.644937979720893
20
107.68355163916351
10
56.553644893319429
20
107.16580281799791
42
-0.19891236737972459
10
56.430275498321009
20
106.97215165801127
10
55.649170289077674
20
106.42521590236443
42
-0.19891236737973442
10
55.425002904872258
20
106.37551918974748
10
53.577763617136299
20
106.70123731600023
42
0.28595477969228567
10
51.656988732937094
20
105.56755316471043
42
-0.32717070374708179
10
50.594679489683429
20
105.04406831783214
10
47.344813904747618
20
105.61710730412952
42
-0.41421356237674267
10
46.695886244453526
20
106.54387204868621
0
LWPOLYLINE
5
161
100
AcDbEntity
8
0
100
AcDbPolyline
90
37
70
1
43
0.0
10
92.429228999999992
20
85.268407999996015
10
94.079228999999998
20
85.268407999996015
10
94.079228999999998
20
84.457456622544015
10
92.629228999999995
20
84.457456622544015
10
92.629228999999995
20
84.379359377447997
10
94.079228999999998
20
84.379359377447997
10
94.079228999999998
20
83.568407999996012
10
92.429228999999992
20
83.568407999996012
10
92.429229000000035
20
83.042672068712008
42
-0.19891236737955736
10
92.341361034355998
20
82.830540034356005
10
91.667096965644035
20
82.156275965644099
42
-0.19891236737976487
10
91.454964931288004
20
82.068408000000005
10
89.579228999999984
20
82.068408000000034
42
0.28595477969227912
10
87.884497189171014
20
80.618407999993011
42
-0.32717070374708074
10
86.929229000014985
20
79.918407999993008
10
83.62922900001999
20
79.918407999989981
42
-0.41421356237675
10
82.829228999999998
20
80.718408000000011
10
82.829229000000652
20
81.368408000000002
10
81.179228999999992
20
81.368408000000017
10
81.179228999999992
20
82.179359377451931
10
82.629228999999995
20
82.179359377451931
10
82.629228999999995
20
82.257456622548091
10
81.179228999999992
20
82.257456622548091
10
81.179228999999992
20
83.068408000000019
10
82.829229000002329
20
83.068408000000019
10
82.829229000002996
20
83.718408000000011
42
-0.41421356237675655
10
83.62922900001999
20
84.518408000007014
10
86.529229000014993
20
84.518408000006986
42
0.38898369055622201
10
87.729228999999989
20
85.618408000000002
10
87.729228999999947
20
85.794143931288005
42
-0.19891236737953752
10
87.817096965643998
20
86.006275965644008
10
88.491361034356004
20
86.680540034355971
42
-0.19891236737953116
10
88.703493068711992
20
86.768408000000008
10
91.454964931288004
20
86.768408000000065
42
-0.19891236737954834
10
91.667096965643992
20
86.680540034356
10
92.341361034355955
20
86.006275965643994
42
-0.19891236737959453
10
92.429228999999992
20
85.794143931288005
0
LWPOLYLINE
5
162
100
AcDbEntity
8
0
100
AcDbPolyline
90
37
70
1
43
0.0
10
92.429228999999992
20
51.267967999996003
10
94.079228999999998
20
51.267967999996003
10
94.079228999999998
20
50.457016622544003
10
92.629228999999995
20
50.457016622544003
10
92.629228999999995
20
50.378919377448
10
94.079228999999998
20
50.378919377448
10
94.079228999999998
20
49.567967999996007
10
92.429228999999992
20
49.567967999996007
10
92.429229000000035
20
49.042232068712003
42
-0.19891236737961529
10
92.341361034355998
20
48.830100034356008
10
91.667096965643978
20
48.155835965644059
42
-0.19891236737966886
10
91.454964931288004
20
48.067968000000008
10
89.579228999999984
20
48.067968000000036
42
0.28595477969228067
10
87.884497189171014
20
46.617967999993006
42
-0.32717070374709462
10
86.929229000014985
20
45.917967999993003
10
83.629229000019976
20
45.917967999989997
42
-0.41421356237673373
10
82.829228999999998
20
46.717968000000013
10
82.829229000000652
20
47.367968000000005
10
81.179228999999992
20
47.367968000000005
10
81.179228999999992
20
48.178919377451912
10
82.629228999999995
20
48.178919377451912
10
82.629228999999995
20
48.257016622548086
10
81.179228999999992
20
48.257016622548086
10
81.179228999999992
20
49.067968000000008
10
82.829229000002329
20
49.067968000000008
10
82.829229000002996
20
49.717968000000006
42
-0.41421356237673052
10
83.62922900001999
20
50.517968000007009
10
86.529229000014993
20
50.517968000007009
42
0.3889836905562199
10
87.729228999999989
20
51.617968000000005
10
87.729228999999961
20
51.793703931288
42
-0.19891236737969967
10
87.817096965643998
20
52.005835965644003
10
88.491361034356046
20
52.680100034355981
42
-0.19891236737962084
10
88.703493068711992
20
52.767968000000003
10
91.454964931288004
20
52.767968000000053
42
-0.19891236737970508
10
91.667096965643992
20
52.680100034356002
10
92.34136103435597
20
52.005835965643982
42
-0.19891236737965706
10
92.429228999999992
20
51.793703931288
0
LWPOLYLINE
5
163
100
AcDbEntity
8
0
100
AcDbPolyline
90
37
70
1
43
0.0
10
37.838081881754846
20
104.96577381928424
10
39.463014674224958
20
104.67925432613363
10
39.322194445353851
20
103.88062312230298
10
37.894223203486177
20
104.13241297992018
10
37.880661759194439
20
104.05550220746076
10
39.308633001062113
20
103.80371234984354
10
39.167812772191013
20
103.00508114601297
10
37.542879979720894
20
103.29160063916351
10
37.451586893319401
20
102.77385181799792
42
-0.19891236737969967
10
37.328217498321003
20
102.58020065801128
10
36.547112289077674
20
102.03326490236444
42
-0.19891236737973442
10
36.322944904872259
20
101.98356818974747
10
34.475705617136299
20
102.30928631600024
42
0.28595477969228278
10
32.554930732937095
20
101.17560216471045
42
-0.32717070374707052
10
31.492621489683422
20
100.65211731783215
10
28.242755904747607
20
101.22515630412951
42
-0.41421356237676382
10
27.593828244453512
20
102.15192104868622
10
27.706699559937729
20
102.79204608814405
10
26.081766767466974
20
103.07856558129475
10
26.222586996338073
20
103.87719678512532
10
27.65055823820575
20
103.62540692750812
10
27.664119682497518
20
103.70231769996772
10
26.23614844062984
20
103.95410755758492
10
26.376968669500954
20
104.75273876141563
10
28.001901461973368
20
104.46621926826447
10
28.114772777457592
20
105.10634430772228
42
-0.41421356237677026
10
29.04153752201891
20
105.75527196800235
10
31.897480005749333
20
105.25169225276882
42
0.38898369055622167
10
33.270262304781717
20
106.1266029678775
10
33.300778529000446
20
106.29966907549276
42
-0.19891236737973625
10
33.424147923998831
20
106.49332023547939
10
34.205253133242181
20
107.04025599112626
42
-0.1989123673795907
10
34.429420517447575
20
107.08995270374322
10
37.139091339907324
20
106.61216462890485
42
-0.19891236737968512
10
37.332742499893961
20
106.48879523390642
10
37.879678255540846
20
105.70769002466307
42
-0.19891236737969287
10
37.929374968157781
20
105.48352264045768
0
LWPOLYLINE
5
164
100
AcDbEntity
8
0
100
AcDbPolyline
90
37
70
1
43
0.0
10
105.40316500000002
20
114.41434799999601
10
107.05316500000001
20
114.41434799999601
10
107.05316500000001
20
113.60339662254403
10
105.603165
20
113.60339662254403
10
105.603165
20
113.52529937744802
10
107.05316500000001
20
113.52529937744802
10
107.05316500000001
20
112.71434799999602
10
105.40316500000002
20
112.71434799999602
10
105.40316500000004
20
112.18861206871202
42
-0.19891236737955736
10
105.31529703435601
20
111.97648003435602
10
104.64103296564397
20
111.30221596564402
42
-0.19891236737957721
10
104.42890093128801
20
111.21434800000002
10
102.55316499999999
20
111.21434800000004
42
0.28595477969229088
10
100.85843318917102
20
109.76434799999302
42
-0.32717070374708879
10
99.903165000014994
20
109.06434799999302
10
96.603165000019999
20
109.06434799999003
42
-0.41421356237676304
10
95.803165000000007
20
109.86434800000001
10
95.803165000000661
20
110.51434800000001
10
94.153165000000016
20
110.51434800000003
10
94.153165000000016
20
111.32529937745193
10
95.603165000000004
20
111.32529937745196
10
95.603165000000004
20
111.4033966225481
10
94.153165000000016
20
111.4033966225481
10
94.153165000000016
20
112.21434800000003
10
95.803165000002352
20
112.21434800000003
10
95.803165000003006
20
112.86434800000002
42
-0.41421356237678253
10
96.603165000019999
20
113.66434800000702
10
99.503165000015002
20
113.66434800000701
42
0.38898369055622201
10
100.70316500000001
20
114.76434800000001
10
100.70316499999997
20
114.94008393128802
42
-0.19891236737955736
10
100.79103296564401
20
115.15221596564402
10
101.46529703435603
20
115.82648003435597
42
-0.19891236737955748
10
101.677429068712
20
115.91434800000002
10
104.42890093128801
20
115.91434800000007
42
-0.19891236737955298
10
104.64103296564402
20
115.82648003435601
10
105.31529703435596
20
115.152215965644
42
-0.19891236737959453
10
105.40316500000002
20
114.94008393128802
0
LWPOLYLINE
5
165
100
AcDbEntity
8
0
100
AcDbPolyline
90
37
70
1
43
0.0
10
92.429228999999992
20
68.268187999996002
10
94.079228999999998
20
68.268187999996002
10
94.079228999999998
20
67.457236622544002
10
92.629228999999995
20
67.457236622544002
10
92.629228999999995
20
67.379139377447984
10
94.079228999999998
20
67.379139377447999
10
94.079228999999998
20
66.568187999995999
10
92.429228999999992
20
66.568187999995999
10
92.429229000000035
20
66.042452068711995
42
-0.19891236737957824
10
92.341361034355998
20
65.830320034356006
10
91.667096965643978
20
65.156055965644057
42
-0.19891236737966342
10
91.454964931288004
20
65.068188000000006
10
89.579228999999984
20
65.068188000000035
42
0.28595477969228361
10
87.884497189171014
20
63.618187999992983
42
-0.32717070374708995
10
86.929229000014985
20
62.918187999992995
10
83.629229000019976
20
62.918187999989996
42
-0.41421356237673373
10
82.829228999999998
20
63.718188000000005
10
82.829229000000652
20
64.368188000000004
10
81.179228999999992
20
64.368188000000004
10
81.179228999999992
20
65.179139377451904
10
82.629228999999995
20
65.179139377451904
10
82.629228999999995
20
65.257236622548078
10
81.179228999999992
20
65.257236622548078
10
81.179228999999992
20
66.068188000000006
10
82.829229000002357
20
66.068188000000006
10
82.829229000003025
20
66.718187999999998
42
-0.4142135623767435
10
83.62922900001999
20
67.518188000007001
10
86.529229000014993
20
67.518188000007001
42
0.3889836905562199
10
87.729228999999989
20
68.618188000000004
10
87.729228999999961
20
68.793923931287992
42
-0.19891236737966261
10
87.817096965643998
20
69.006055965644009
10
88.491361034356046
20
69.680320034355972
42
-0.19891236737963169
10
88.703493068711992
20
69.768188000000009
10
91.454964931288004
20
69.768188000000052
42
-0.19891236737970508
10
91.667096965643992
20
69.680320034356001
10
92.34136103435597
20
69.006055965643981
42
-0.19891236737961218
10
92.429228999999992
20
68.793923931287992
0
LWPOLYLINE
5
166
100
AcDbEntity
8
0
100
AcDbPolyline
90
37
70
1
43
0.0
10
73.982488793038769
20
94.962189995907593
10
75.628469475967478
20
94.847091814229799
10
75.571900367498486
20
94.038115873575009
10
74.125432494621734
20
94.139262760503982
10
74.119984706194714
20
94.061355756371881
10
75.566452579071466
20
93.960208869442909
10
75.50988347060246
20
93.151232928788161
10
73.863902787673766
20
93.266331110465899
10
73.827229302986865
20
92.741875845487073
42
-0.19891236737972123
10
73.724777796606048
20
92.536389913543474
10
73.005121917471328
20
91.910802602020212
42
-0.19891236737975229
10
72.787377266650907
20
91.83794626100908
10
70.916210533817363
20
91.968790985250905
42
0.28595477969228711
10
69.124460117573193
20
90.640541627432597
42
-0.32717070374708163
10
68.122689382093455
20
90.008882932606141
10
64.830728016240798
20
90.239079295958362
42
-0.41421356237674606
10
64.088481955008973
20
91.092935715172914
10
64.1338236629433
20
91.741352347841755
10
62.487842980013951
20
91.856450529519606
10
62.544412088482929
20
92.66542647017431
10
63.990879961359674
20
92.564279583245337
10
63.996327749786708
20
92.642186587377608
10
62.54985987690997
20
92.743333474306581
10
62.606428985378955
20
93.552309414961243
10
64.252409668310008
20
93.437211233283335
10
64.297751376244335
20
94.085627865952191
42
-0.41421356237674928
10
65.151607795464926
20
94.827873927170558
10
68.044543541213443
20
94.625580153312953
42
0.38898369055622328
10
69.318352522628302
20
95.639192840099895
10
69.330611241505039
20
95.814500687491716
42
-0.19891236737973036
10
69.433062747885856
20
96.019986619435372
10
70.152718627020604
20
96.645573930958619
42
-0.19891236737981682
10
70.370463277840997
20
96.718430271969737
10
73.115232693248259
20
96.526497297230321
42
-0.19891236737964335
10
73.320718625191887
20
96.424045790849519
10
73.946305936715149
20
95.704389911714742
42
-0.19891236737961759
10
74.019162277726281
20
95.486645260894363
0
LWPOLYLINE
5
167
100
AcDbEntity
8
0
100
AcDbPolyline
90
37
70
1
43
0.0
10
71.610737793038751
20
61.0445729959076
10
73.25671847596746
20
60.929474814229813
10
73.200149367498483
20
60.120498873575002
10
71.753681494621731
20
60.221645760503989
10
71.748233706194696
20
60.143738756371874
10
73.194701579071449
20
60.042591869442901
10
73.138132470602457
20
59.233615928788062
10
71.492151787673748
20
59.348714110465899
10
71.455478302986862
20
58.824258845487108
42
-0.19891236737964449
10
71.353026796606031
20
58.618772913543481
10
70.633370917471311
20
57.99318560202024
42
-0.19891236737960225
10
70.415626266650889
20
57.920329261009094
10
68.54445953381736
20
58.051173985250919
42
0.28595477969228755
10
66.752709117573147
20
56.722924627432562
42
-0.3271707037470819
10
65.750938382093437
20
56.091265932606149
10
62.458977016240794
20
56.321462295958383
42
-0.41421356237675583
10
61.71673095500897
20
57.175318715172921
10
61.762072662943297
20
57.823735347841762
10
60.116091980013941
20
57.938833529519599
10
60.172661088482926
20
58.74780947017431
10
61.619128961359664
20
58.646662583245337
10
61.624576749786698
20
58.724569587377616
10
60.17810887690996
20
58.825716474306581
10
60.234677985378944
20
59.634692414961343
10
61.880658668310005
20
59.519594233283343
10
61.926000376244318
20
60.168010865952184
42
-0.41421356237676554
10
62.77985679546493
20
60.910256927170536
10
65.67279254121344
20
60.70796315331296
42
0.38898369055621873
10
66.946601522628299
20
61.721575840099881
10
66.958860241505008
20
61.896883687491737
42
-0.19891236737967924
10
67.061311747885838
20
62.102369619435365
10
67.780967627020615
20
62.727956930958612
42
-0.19891236737972701
10
67.99871227784098
20
62.800813271969737
10
70.743481693248242
20
62.60888029723035
42
-0.19891236737965556
10
70.94896762519187
20
62.506428790849512
10
71.574554936715145
20
61.786772911714742
42
-0.19891236737973003
10
71.647411277726263
20
61.56902826089437
0
LWPOLYLINE
5
168
100
AcDbEntity
8
0
100
AcDbPolyline
90
37
70
1
43
0.0
10
72.796613793038759
20
78.003380995907591
10
74.442594475967468
20
77.888282814229811
10
74.38602536749849
20
77.079306873575007
10
72.939557494621738
20
77.180453760503966
10
72.934109706194704
20
77.102546756371879
10
74.380577579071456
20
77.001399869442906
10
74.324008470602465
20
76.19242392878806
10
72.678027787673756
20
76.307522110465897
10
72.641354302986883
20
75.783066845487099
42
-0.19891236737965556
10
72.538902796606038
20
75.577580913543471
10
71.819246917471304
20
74.951993602020224
42
-0.19891236737966009
10
71.601502266650897
20
74.879137261009092
10
69.730335533817367
20
75.009981985250917
42
0.28595477969228583
10
67.938585117573155
20
73.681732627432552
42
-0.32717070374707707
10
66.936814382093445
20
73.050073932606139
10
63.644853016240795
20
73.280270295958374
42
-0.41421356237675583
10
62.902606955008977
20
74.134126715172911
10
62.947948662943304
20
74.782543347841752
10
61.301967980013941
20
74.897641529519603
10
61.358537088482933
20
75.706617470174308
10
62.805004961359671
20
75.605470583245321
10
62.810452749786705
20
75.683377587377606
10
61.363984876909967
20
75.784524474306579
10
61.420553985378952
20
76.593500414961341
10
63.066534668310005
20
76.478402233283333
10
63.111876376244318
20
77.126818865952174
42
-0.41421356237676554
10
63.96573279546493
20
77.869064927170527
10
66.858668541213433
20
77.666771153312951
42
0.38898369055621906
10
68.132477522628307
20
78.680383840099879
10
68.144736241505015
20
78.855691687491728
42
-0.19891236737967924
10
68.247187747885846
20
79.061177619435355
10
68.966843627020623
20
79.686764930958603
42
-0.19891236737972701
10
69.184588277840987
20
79.759621271969735
10
71.929357693248264
20
79.567688297230347
42
-0.19891236737971618
10
72.134843625191891
20
79.465236790849502
10
72.760430936715153
20
78.74558091171474
42
-0.19891236737971951
10
72.833287277726271
20
78.527836260894361
0
CIRCLE
5
169
100
AcDbEntity
8
0
100
AcDbCircle
10
34.299999999999997
20
121.014348
30
0
40
1.6000000000000014
210
0
220
-0
230
1
0
CIRCLE
5
170
100
AcDbEntity
8
0
100
AcDbCircle
10
139.5
20
112.00000000000001
30
0
40
1.6000000000000014
210
0
220
-0
230
1
0
LWPOLYLINE
5
171
100
AcDbEntity
8
0
100
AcDbPolyline
90
37
70
1
43
0.0
10
128.42920500000002
20
79.424768999996004
10
130.079205
20
79.424768999996004
10
130.079205
20
78.613817622543991
10
128.62920500000001
20
78.613817622543991
10
128.62920500000001
20
78.535720377448001
10
130.079205
20
78.535720377448001
10
130.079205
20
77.724768999996002
10
128.42920500000002
20
77.724768999996002
10
128.42920500000005
20
77.199033068711998
42
-0.19891236737961529
10
128.341337034356
20
76.986901034356009
10
127.667072965644
20
76.31263696564406
42
-0.19891236737966886
10
127.45494093128801
20
76.224769000000009
10
125.579205
20
76.224769000000038
42
0.28595477969228067
10
123.88447318917103
20
74.774768999993
42
-0.32717070374709462
10
122.929205000015
20
74.074768999992997
10
119.62920500001999
20
74.074768999989999
42
-0.41421356237673373
10
118.829205
20
74.874769000000015
10
118.82920500000067
20
75.524769000000006
10
117.17920500000002
20
75.524769000000006
10
117.17920500000002
20
76.335720377451906
10
118.62920500000001
20
76.335720377451906
10
118.62920500000001
20
76.413817622548081
10
117.17920500000002
20
76.413817622548081
10
117.17920500000002
20
77.224769000000009
10
118.82920500000236
20
77.224769000000009
10
118.82920500000301
20
77.874769000000001
42
-0.41421356237673052
10
119.62920500002001
20
78.674769000007004
10
122.52920500001501
20
78.674769000007004
42
0.3889836905562199
10
123.72920500000001
20
79.774769000000006
10
123.72920499999999
20
79.950504931287981
42
-0.19891236737970738
10
123.81707296564402
20
80.162636965643998
10
124.49133703435604
20
80.836901034355947
42
-0.19891236737953116
10
124.70346906871201
20
80.924768999999998
10
127.45494093128801
20
80.924769000000055
42
-0.19891236737955736
10
127.66707296564402
20
80.836901034356003
10
128.34133703435597
20
80.162636965643969
42
-0.19891236737966353
10
128.42920500000002
20
79.950504931287995
0
LWPOLYLINE
5
172
100
AcDbEntity
8
0
100
AcDbPolyline
90
37
70
1
43
0.0
10
144.24955044762373
20
128.90287432893825
10
145.67849236386789
20
129.72787432893855
10
146.08396805259406
20
129.02556983483123
10
144.82823121710678
20
128.30056983483098
10
144.8672798396548
20
128.23293563661224
10
146.12301667514205
20
128.95793563661252
10
146.52849236386822
20
128.25563114250519
10
145.09955044762407
20
127.43063114250488
10
145.3624184132662
20
126.97533047033076
42
-0.19891236737969931
10
145.39238854001766
20
126.74768475679996
10
145.14559076201016
20
125.82662291008027
42
-0.19891236737962673
10
145.00581301412348
20
125.64446100247565
10
143.38137804683697
20
124.70659303683134
42
0.285954779692279
10
142.63869724606147
20
122.60349029592317
42
-0.32717070374710311
10
142.16141072682544
20
121.51963841869593
10
139.30352689434298
20
119.86963841869523
42
-0.41421356237676055
10
138.21070657129306
20
120.1624587417212
10
137.8857065712935
20
120.7253752541813
10
136.45676465504877
20
119.90037525418067
10
136.05128896632269
20
120.60267974828793
10
137.30702580180997
20
121.32767974828822
10
137.26797717926186
20
121.39531394650706
10
136.01224034377458
20
120.67031394650678
10
135.60676465504844
20
121.37261844061412
10
137.03570657129464
20
122.19761844061553
10
136.71070657129508
20
122.76053495307566
42
-0.41421356237676055
10
137.00352689433362
20
123.85335527611785
10
139.51500056530386
20
125.30335527611591
42
0.38898369055621657
10
140.00423104983534
20
126.85598322026533
10
139.91636308419123
20
127.00817500111839
42
-0.19891236737957491
10
139.88639295743982
20
127.23582071464919
10
140.13319073544727
20
128.15688256136889
42
-0.19891236737949089
10
140.27296848333398
20
128.3390444689735
10
142.65581301412254
20
129.71478040026204
42
-0.19891236737977711
10
142.88345872765336
20
129.74475052701351
10
143.80452057437304
20
129.497952749006
42
-0.19891236737949089
10
143.98668248197765
20
129.35817500111932
0
LWPOLYLINE
5
173
100
AcDbEntity
8
0
100
AcDbPolyline
90
37
70
1
43
0.0
10
118.82920500000067
20
58.524549000000007
10
117.17920500000002
20
58.524549000000007
10
117.17920500000002
20
59.335500377451915
10
118.62920500000001
20
59.335500377451922
10
118.62920500000001
20
59.413597622548089
10
117.17920500000002
20
59.413597622548089
10
117.17920500000002
20
60.224549000000003
10
118.82920500000237
20
60.224549000000003
10
118.82920500000304
20
60.874549000000009
42
-0.4142135623767435
10
119.62920500002001
20
61.674549000007005
10
122.52920500001501
20
61.674549000007005
42
0.3889836905562199
10
123.72920500000001
20
62.774549000000007
10
123.72920499999998
20
62.950284931288003
42
-0.19891236737966261
10
123.81707296564402
20
63.162416965644006
10
124.49133703435606
20
63.836681034355976
42
-0.19891236737963169
10
124.70346906871201
20
63.924549000000006
10
127.45494093128801
20
63.924549000000049
42
-0.19891236737970508
10
127.66707296564402
20
63.836681034356005
10
128.341337034356
20
63.162416965643985
42
-0.19891236737961218
10
128.42920500000002
20
62.950284931288003
10
128.42920500000002
20
62.424548999996006
10
130.079205
20
62.424548999996006
10
130.079205
20
61.613597622544006
10
128.62920500000001
20
61.613597622544006
10
128.62920500000001
20
61.535500377448002
10
130.079205
20
61.535500377448002
10
130.079205
20
60.724548999996003
10
128.42920500000002
20
60.724548999996003
10
128.42920500000005
20
60.198813068711999
42
-0.19891236737957824
10
128.341337034356
20
59.98668103435601
10
127.667072965644
20
59.312416965644061
42
-0.19891236737966342
10
127.45494093128801
20
59.22454900000001
10
125.579205
20
59.224549000000039
42
0.28595477969228361
10
123.88447318917103
20
57.774548999992987
42
-0.32717070374708995
10
122.929205000015
20
57.074548999992999
10
119.62920500001999
20
57.07454899999
42
-0.41421356237673373
10
118.829205
20
57.874549000000009
0
LWPOLYLINE
5
174
100
AcDbEntity
8
0
100
AcDbPolyline
90
37
70
1
43
0.0
10
110.429241
20
59.704446999996001
10
112.079241
20
59.704446999996001
10
112.079241
20
58.893495622544009
10
110.62924100000001
20
58.893495622544009
10
110.62924100000001
20
58.815398377447998
10
112.079241
20
58.815398377447998
10
112.079241
20
58.004446999996006
10
110.429241
20
58.004446999996006
10
110.42924100000005
20
57.478711068712002
42
-0.19891236737957824
10
110.341373034356
20
57.266579034356006
10
109.66710896564399
20
56.592314965644057
42
-0.19891236737966342
10
109.454976931288
20
56.504447000000006
10
107.57924099999998
20
56.504447000000027
42
0.28595477969228361
10
105.88450918917103
20
55.054446999992983
42
-0.32717070374708995
10
104.929241000015
20
54.354446999993002
10
101.62924100001999
20
54.354446999989996
42
-0.41421356237673373
10
100.829241
20
55.154447000000005
10
100.82924100000065
20
55.804447000000003
10
99.179241000000005
20
55.804447000000003
10
99.179241000000005
20
56.615398377451911
10
100.62924100000001
20
56.615398377451911
10
100.62924100000001
20
56.693495622548085
10
99.179241000000005
20
56.693495622548085
10
99.179241000000005
20
57.504446999999999
10
100.82924100000236
20
57.504446999999999
10
100.82924100000304
20
58.154447000000005
42
-0.4142135623767435
10
101.62924100002
20
58.954447000007008
10
104.52924100001499
20
58.954447000007008
42
0.3889836905562199
10
105.729241
20
60.054446999999996
10
105.72924099999996
20
60.230182931287999
42
-0.19891236737966261
10
105.81710896564401
20
60.442314965644002
10
106.49137303435606
20
61.116579034355979
42
-0.19891236737963169
10
106.703505068712
20
61.204447000000002
10
109.454976931288
20
61.204447000000044
42
-0.19891236737970508
10
109.667108965644
20
61.116579034356
10
110.34137303435598
20
60.442314965643988
42
-0.19891236737961218
10
110.429241
20
60.230182931287999
0
LWPOLYLINE
5
175
100
AcDbEntity
8
0
100
AcDbPolyline
90
37
70
1
43
0.0
10
118.82920500000067
20
92.524988999999991
10
117.17920500000002
20
92.524989000000005
10
117.17920500000002
20
93.335940377451919
10
118.62920500000001
20
93.335940377451919
10
118.62920500000001
20
93.414037622548079
10
117.17920500000002
20
93.414037622548079
10
117.17920500000002
20
94.224989000000008
10
118.82920500000236
20
94.224989000000008
10
118.82920500000303
20
94.874988999999999
42
-0.41421356237672402
10
119.62920500002001
20
95.674989000007002
10
122.52920500001501
20
95.674989000007002
42
0.38898369055621779
10
123.72920500000001
20
96.774989000000005
10
123.72920499999998
20
96.950724931287994
42
-0.19891236737954202
10
123.81707296564402
20
97.162856965643996
10
124.49133703435604
20
97.83712103435596
42
-0.19891236737953116
10
124.70346906871201
20
97.924988999999997
10
127.45494093128801
20
97.924989000000053
42
-0.19891236737953752
10
127.66707296564402
20
97.837121034355988
10
128.34133703435597
20
97.162856965643982
42
-0.19891236737962084
10
128.42920500000002
20
96.950724931287994
10
128.42920500000002
20
96.424988999996003
10
130.079205
20
96.424988999996003
10
130.079205
20
95.614037622544004
10
128.62920500000001
20
95.614037622544004
10
128.62920500000001
20
95.535940377448
10
130.079205
20
95.535940377448
10
130.079205
20
94.724988999996
10
128.42920500000002
20
94.724988999996
10
128.42920500000005
20
94.199253068711997
42
-0.19891236737955736
10
128.341337034356
20
93.987121034355994
10
127.667072965644
20
93.312856965644045
42
-0.19891236737974768
10
127.45494093128801
20
93.224988999999994
10
125.579205
20
93.224989000000022
42
0.28595477969229449
10
123.88447318917103
20
91.774988999992999
42
-0.32717070374708074
10
122.929205000015
20
91.074988999992996
10
119.62920500002001
20
91.074988999989984
42
-0.41421356237675
10
118.829205
20
91.874988999999999
0
LWPOLYLINE
5
176
100
AcDbEntity
8
0
100
AcDbPolyline
90
37
70
1
43
0.0
10
125.8293987627068
20
119.17754213299938
10
127.42317637608357
20
119.60459355741931
10
127.63306603722064
20
118.82127467807381
10
126.23247358910166
20
118.44598706267449
10
126.25268664350259
20
118.37055091667425
10
127.65327909162158
20
118.74583853207356
10
127.86316875275864
20
117.96251965272808
10
126.26939113938187
20
117.53546822830816
10
126.40546161109316
20
117.02764631447288
42
-0.19891236737976764
10
126.37549148434189
20
116.80000060094208
10
125.89871478904556
20
115.97419914082325
42
-0.19891236737974133
10
125.71655288144106
20
115.83442139293643
10
123.90473110211182
20
115.34894521033513
42
0.28595477969229632
10
122.64303349279983
20
113.50972389322494
42
-0.32717070374707696
10
121.90148860943384
20
112.58633421428809
10
118.71393338268595
20
111.73223136544662
42
-0.41421356237675822
10
117.73413748555049
20
112.2979167903999
10
117.56590510623417
20
112.92576857748787
10
115.97212749285677
20
112.49871715306779
10
115.76223783171974
20
113.28203603241317
10
117.1628302798387
20
113.6573236478125
10
117.14261722543775
20
113.7327597938129
10
115.74202477731875
20
113.35747217841357
10
115.53213511618173
20
114.14079105775899
10
117.12591272956074
20
114.5678424821795
10
116.9576803502444
20
115.19569426926749
42
-0.41421356237675816
10
117.52336577520781
20
116.17549016639219
10
120.32455067144092
20
116.92606539718955
42
0.38898369055622439
10
121.1989607133617
20
118.29916666022035
10
121.15347690743539
20
118.46891453485837
42
-0.19891236737975818
10
121.18344703418668
20
118.69656024838916
10
121.66022372948304
20
119.52236170850801
42
-0.19891236737968732
10
121.84238563708752
20
119.66213945639481
10
124.50010336945701
20
120.37427277649451
42
-0.19891236737973186
10
124.72774908298783
20
120.34430264974321
10
125.5535505431067
20
119.8675259544469
42
-0.19891236737964116
10
125.69332829099349
20
119.68536404684238
0
LWPOLYLINE
5
177
100
AcDbEntity
8
0
100
AcDbPolyline
90
37
70
1
43
0.0
10
110.429241
20
76.704666999996007
10
112.079241
20
76.704666999996007
10
112.079241
20
75.893715622544008
10
110.62924100000001
20
75.893715622544022
10
110.62924100000001
20
75.815618377448004
10
112.079241
20
75.815618377448004
10
112.079241
20
75.004666999996005
10
110.429241
20
75.004666999996005
10
110.42924100000005
20
74.478931068712001
42
-0.19891236737957824
10
110.341373034356
20
74.266799034356012
10
109.66710896564399
20
73.592534965644063
42
-0.19891236737966342
10
109.454976931288
20
73.504667000000012
10
107.57924099999998
20
73.50466700000004
42
0.28595477969228361
10
105.88450918917103
20
72.054666999992989
42
-0.32717070374708995
10
104.929241000015
20
71.354666999993
10
101.62924100001999
20
71.354666999990002
42
-0.41421356237673373
10
100.829241
20
72.154667000000018
10
100.82924100000065
20
72.804667000000009
10
99.179241000000005
20
72.804667000000009
10
99.179241000000005
20
73.615618377451909
10
100.62924100000001
20
73.615618377451909
10
100.62924100000001
20
73.693715622548098
10
99.179241000000005
20
73.693715622548098
10
99.179241000000005
20
74.504667000000012
10
100.82924100000236
20
74.504667000000012
10
100.82924100000304
20
75.154667000000018
42
-0.4142135623767435
10
101.62924100002
20
75.954667000007007
10
104.52924100001499
20
75.954667000007007
42
0.3889836905562199
10
105.729241
20
77.054667000000009
10
105.72924099999996
20
77.230402931288012
42
-0.19891236737966261
10
105.81710896564401
20
77.442534965644001
10
106.49137303435606
20
78.116799034355978
42
-0.19891236737963169
10
106.703505068712
20
78.204667000000001
10
109.454976931288
20
78.204667000000057
42
-0.19891236737970508
10
109.667108965644
20
78.116799034356006
10
110.34137303435598
20
77.442534965643986
42
-0.19891236737961218
10
110.429241
20
77.230402931288012
0
LWPOLYLINE
5
178
100
AcDbEntity
8
0
100
AcDbPolyline
90
37
70
1
43
0.0
10
110.429241
20
93.704886999996006
10
112.079241
20
93.704886999996006
10
112.079241
20
92.893935622544021
10
110.62924100000001
20
92.893935622544021
10
110.62924100000001
20
92.815838377448017
10
112.079241
20
92.815838377448017
10
112.079241
20
92.004886999996017
10
110.429241
20
92.004886999996017
10
110.42924100000005
20
91.479151068712014
42
-0.19891236737955736
10
110.341373034356
20
91.267019034356011
10
109.66710896564405
20
90.592754965644104
42
-0.19891236737976487
10
109.454976931288
20
90.504887000000011
10
107.57924099999998
20
90.504887000000039
42
0.28595477969229088
10
105.88450918917103
20
89.054886999993016
42
-0.32717070374708074
10
104.929241000015
20
88.354886999993013
10
101.62924100002
20
88.354886999989986
42
-0.41421356237675
10
100.829241
20
89.154887000000002
10
100.82924100000065
20
89.804887000000008
10
99.179241000000005
20
89.804887000000022
10
99.179241000000005
20
90.615838377451922
10
100.62924100000001
20
90.615838377451922
10
100.62924100000001
20
90.693935622548096
10
99.179241000000005
20
90.693935622548096
10
99.179241000000005
20
91.504887000000025
10
100.82924100000234
20
91.504887000000025
10
100.82924100000299
20
92.154887000000016
42
-0.41421356237675655
10
101.62924100002
20
92.95488700000702
10
104.52924100001499
20
92.954887000007005
42
0.38898369055622201
10
105.729241
20
94.054887000000008
10
105.72924099999994
20
94.230622931288011
42
-0.19891236737953752
10
105.81710896564401
20
94.442754965644014
10
106.49137303435602
20
95.117019034355963
42
-0.19891236737953116
10
106.703505068712
20
95.204887000000014
10
109.454976931288
20
95.20488700000007
42
-0.19891236737954834
10
109.667108965644
20
95.117019034356005
10
110.34137303435597
20
94.442754965643999
42
-0.19891236737959453
10
110.429241
20
94.230622931288011
0
LINE
5
179
100
AcDbEntity
8
0
100
AcDbLine
10
143.27041399999999
20
69.884348000000003
30
0
11
143.27390199999999
21
63.884351000000009
31
0
0
LINE
5
180
100
AcDbEntity
8
0
100
AcDbLine
10
143.27390199999999
20
63.884351000000009
30
0
11
143.27390199999999
21
50.653362000000008
31
0
0
SPLINE
5
181
100
AcDbEntity
8
0
100
AcDbSpline
70
0
71
3
72
8
73
4
74
0
42
0.000000001
43
0.0000000001
44
0.0000000001
40
0
40
0
40
0
40
0
40
1
40
1
40
1
40
1
10
143.27390199999999
20
50.653362000000008
30
0
10
143.27390199999999
20
50.099498000000004
30
0
10
142.82587799999999
20
49.655000000000001
30
0
10
142.27554599999999
20
49.655000000000001
30
0
0
LINE
5
182
100
AcDbEntity
8
0
100
AcDbLine
10
142.27554599999999
20
49.654999999999994
30
0
11
94.396546000000001
21
49.655000000000001
31
0
0
LINE
5
183
100
AcDbEntity
8
0
100
AcDbLine
10
94.396546000000001
20
49.655000000000001
30
0
11
94.396546000000001
21
45.795611000000001
31
0
0
SPLINE
5
184
100
AcDbEntity
8
0
100
AcDbSpline
70
0
71
3
72
8
73
4
74
0
42
0.000000001
43
0.0000000001
44
0.0000000001
40
0
40
0
40
0
40
0
40
1
40
1
40
1
40
1
10
94.396546000000001
20
45.795611000000001
30
0
10
94.396546000000001
20
45.633330000000001
30
0
10
94.262488000000019
20
45.499277999999997
30
0
10
94.100213999999994
20
45.499277999999997
30
0
0
LINE
5
185
100
AcDbEntity
8
0
100
AcDbLine
10
94.100214000000022
20
45.499277999999997
30
0
11
76.193214999999995
21
45.499277999999997
31
0
0
SPLINE
5
186
100
AcDbEntity
8
0
100
AcDbSpline
70
0
71
3
72
8
73
4
74
0
42
0.000000001
43
0.0000000001
44
0.0000000001
40
0
40
0
40
0
40
0
40
1
40
1
40
1
40
1
10
76.193214999999995
20
45.499277999999997
30
0
10
76.030934999999999
20
45.499277999999997
30
0
10
75.896883000000003
20
45.633336
30
0
10
75.896883000000003
20
45.795611000000001
30
0
0
LINE
5
187
100
AcDbEntity
8
0
100
AcDbLine
10
75.896883000000003
20
45.795611000000001
30
0
11
75.896883000000003
21
49.655000000000001
31
0
0
LINE
5
188
100
AcDbEntity
8
0
100
AcDbLine
10
75.896883000000003
20
49.655000000000001
30
0
11
31.630362000000005
21
49.655000000000001
31
0
0
SPLINE
5
189
100
AcDbEntity
8
0
100
AcDbSpline
70
0
71
3
72
8
73
4
74
0
42
0.000000001
43
0.0000000001
44
0.0000000001
40
0
40
0
40
0
40
0
40
1
40
1
40
1
40
1
10
31.630362000000005
20
49.655000000000001
30
0
10
31.076501000000004
20
49.655000000000001
30
0
10
30.632000000000001
20
50.103030000000004
30
0
10
30.632000000000001
20
50.653362000000008
30
0
0
LINE
5
190
100
AcDbEntity
8
0
100
AcDbLine
10
30.631999999999998
20
50.653362000000008
30
0
11
30.632000000000001
21
100.278606
31
0
0
LINE
5
191
100
AcDbEntity
8
0
100
AcDbLine
10
30.632000000000001
20
100.278606
30
0
11
20.835360999999999
21
102.007215
31
0
0
SPLINE
5
192
100
AcDbEntity
8
0
100
AcDbSpline
70
0
71
3
72
8
73
4
74
0
42
0.000000001
43
0.0000000001
44
0.0000000001
40
0
40
0
40
0
40
0
40
1
40
1
40
1
40
1
10
20.835360999999999
20
102.007215
30
0
10
20.673083000000002
20
102.035432
30
0
10
20.567250000000001
20
102.187135
30
0
10
20.595472000000004
20
102.34941000000001
30
0
0
LINE
5
193
100
AcDbEntity
8
0
100
AcDbLine
10
20.595472000000008
20
102.34940999999999
30
0
11
23.530581999999999
21
119.00052500000001
31
0
0
SPLINE
5
194
100
AcDbEntity
8
0
100
AcDbSpline
70
0
71
3
72
8
73
4
74
0
42
0.000000001
43
0.0000000001
44
0.0000000001
40
0
40
0
40
0
40
0
40
1
40
1
40
1
40
1
10
23.530581999999999
20
119.00052500000001
30
0
10
23.558803999999999
20
119.1628
30
0
10
23.710498999999999
20
119.26864000000002
30
0
10
23.872776000000005
20
119.24041200000002
30
0
0
LINE
5
195
100
AcDbEntity
8
0
100
AcDbLine
10
23.872776000000009
20
119.24041199999999
30
0
11
30.632000000000001
21
118.04802100000002
31
0
0
LINE
5
196
100
AcDbEntity
8
0
100
AcDbLine
10
30.632000000000001
20
118.04802100000002
30
0
11
30.632000000000001
21
123.593688
31
0
0
SPLINE
5
197
100
AcDbEntity
8
0
100
AcDbSpline
70
0
71
3
72
8
73
4
74
0
42
0.000000001
43
0.0000000001
44
0.0000000001
40
0
40
0
40
0
40
0
40
1
40
1
40
1
40
1
10
30.632000000000001
20
123.593688
30
0
10
30.632000000000001
20
124.14755200000002
30
0
10
31.080027000000001
20
124.59204400000002
30
0
10
31.630362000000005
20
124.59204400000002
30
0
0
LINE
5
198
100
AcDbEntity
8
0
100
AcDbLine
10
31.630362000000005
20
124.59204399999999
30
0
11
88.861503999999996
21
124.59204400000002
31
0
0
LINE
5
199
100
AcDbEntity
8
0
100
AcDbLine
10
88.861503999999996
20
124.59204400000002
30
0
11
88.861503999999996
21
125.79854900000001
31
0
0
SPLINE
5
200
100
AcDbEntity
8
0
100
AcDbSpline
70
0
71
3
72
8
73
4
74
0
42
0.000000001
43
0.0000000001
44
0.0000000001
40
0
40
0
40
0
40
0
40
1
40
1
40
1
40
1
10
88.861503999999996
20
125.79854900000001
30
0
10
88.861503999999996
20
125.960824
30
0
10
88.992030999999997
20
126.094881
30
0
10
89.157836000000003
20
126.094881
30
0
0
LINE
5
201
100
AcDbEntity
8
0
100
AcDbLine
10
89.157836000000032
20
126.094881
30
0
11
97.755028999999993
21
126.094881
31
0
0
SPLINE
5
202
100
AcDbEntity
8
0
100
AcDbSpline
70
0
71
3
72
8
73
4
74
0
42
0.000000001
43
0.0000000001
44
0.0000000001
40
0
40
0
40
0
40
0
40
1
40
1
40
1
40
1
10
97.755028999999993
20
126.094881
30
0
10
102.200031
20
126.094881
30
0
10
106.648554
20
126.094881
30
0
10
115.460947
20
128.45496499999999
30
0
0
SPLINE
5
203
100
AcDbEntity
8
0
100
AcDbSpline
70
0
71
3
72
8
73
4
74
0
42
0.000000001
43
0.0000000001
44
0.0000000001
40
0
40
0
40
0
40
0
40
1
40
1
40
1
40
1
10
115.460947
20
128.45496499999999
30
0
10
124.27333900000001
20
130.81505000000001
30
0
10
128.23150699999999
20
133.10105300000001
30
0
10
132.189674
20
135.387047
30
0
0
SPLINE
5
204
100
AcDbEntity
8
0
100
AcDbSpline
70
0
71
3
72
8
73
4
74
0
42
0.000000001
43
0.0000000001
44
0.0000000001
40
0
40
0
40
0
40
0
40
1
40
1
40
1
40
1
10
132.189674
20
135.387047
30
0
10
135.255313
20
137.15798699999999
30
0
10
138.871286
20
139.24643599999999
30
0
10
139.85200700000001
20
139.81088299999999
30
0
0
SPLINE
5
205
100
AcDbEntity
8
0
100
AcDbSpline
70
0
71
3
72
8
73
4
74
0
42
0.000000001
43
0.0000000001
44
0.0000000001
40
0
40
0
40
0
40
0
40
1
40
1
40
1
40
1
10
139.85200700000001
20
139.81088299999999
30
0
10
139.99311599999999
20
139.89202599999999
30
0
10
140.17303699999999
20
139.84263200000001
30
0
10
140.25417900000002
20
139.70152300000001
30
0
0
LINE
5
206
100
AcDbEntity
8
0
100
AcDbLine
10
140.25417900000002
20
139.70152300000001
30
0
11
148.710263
21
125.057714
31
0
0
SPLINE
5
207
100
AcDbEntity
8
0
100
AcDbSpline
70
0
71
3
72
8
73
4
74
0
42
0.000000001
43
0.0000000001
44
0.0000000001
40
0
40
0
40
0
40
0
40
1
40
1
40
1
40
1
10
148.710263
20
125.057714
30
0
10
148.79140599999999
20
124.91660500000002
30
0
10
148.74201199999999
20
124.73668500000001
30
0
10
148.60090299999999
20
124.655542
30
0
0
LINE
5
208
100
AcDbEntity
8
0
100
AcDbLine
10
148.60090299999999
20
124.655542
30
0
11
143.26690500000001
21
121.57578800000002
31
0
0
LINE
5
209
100
AcDbEntity
8
0
100
AcDbLine
10
143.26690500000001
20
121.57578800000002
30
0
11
143.26690500000001
21
112.28009100000001
31
0
0
LINE
5
210
100
AcDbEntity
8
0
100
AcDbLine
10
143.26690500000001
20
112.28009100000001
30
0
11
143.27041399999999
21
106.28435100000002
31
0
0
LINE
5
211
100
AcDbEntity
8
0
100
AcDbLine
10
143.27041399999999
20
69.884348000000003
30
0
11
143.27041399999999
21
106.28435100000002
31
0
0
ENDSEC
0
SECTION
2
OBJECTS
0
DICTIONARY
5
C
100
AcDbDictionary
3
ACAD_GROUP
350
D
3
ACAD_MLINESTYLE
350
17
0
DICTIONARY
5
D
100
AcDbDictionary
0
DICTIONARY
5
1A
330
C
100
AcDbDictionary
0
DICTIONARY
5
17
100
AcDbDictionary
0
ENDSEC
0
EOF
