0
SECTION
2
HEADER
9
$INSUNITS
70
4
9
$ACADVER
1
AC1014
9
$HANDSEED
5
FFFF
0
ENDSEC
0
SECTION
2
TABLES
0
TABLE
2
VPORT
5
8
100
AcDbSymbolTable
0
ENDTAB
0
TABLE
2
LTYPE
5
5
100
AcDbSymbolTable
0
LTYPE
5
14
100
AcDbSymbolTableRecord
100
AcDbLinetypeTableRecord
2
BYBLOCK
70
0
0
LTYPE
5
15
100
AcDbSymbolTableRecord
100
AcDbLinetypeTableRecord
2
BYLAYER
70
0
0
ENDTAB
0
TABLE
2
LAYER
5
2
100
AcDbSymbolTable
70
2
0
LAYER
5
50
100
AcDbSymbolTableRecord
100
AcDbLayerTableRecord
2
0
70
0
6
CONTINUOUS
0
ENDTAB
0
TABLE
2
STYLE
5
3
100
AcDbSymbolTable
70
1
0
STYLE
5
11
100
AcDbSymbolTableRecord
100
AcDbTextStyleTableRecord
2
STANDARD
70
0
0
ENDTAB
0
TABLE
2
VIEW
5
6
100
AcDbSymbolTable
70
0
0
ENDTAB
0
TABLE
2
UCS
5
7
100
AcDbSymbolTable
70
0
0
ENDTAB
0
TABLE
2
APPID
5
9
100
AcDbSymbolTable
70
2
0
APPID
5
12
100
AcDbSymbolTableRecord
100
AcDbRegAppTableRecord
2
ACAD
70
0
0
ENDTAB
0
TABLE
2
DIMSTYLE
5
A
100
AcDbSymbolTable
70
1
0
ENDTAB
0
TABLE
2
BLOCK_RECORD
5
1
100
AcDbSymbolTable
70
1
0
BLOCK_RECORD
5
1F
100
AcDbSymbolTableRecord
100
AcDbBlockTableRecord
2
*MODEL_SPACE
0
BLOCK_RECORD
5
1B
100
AcDbSymbolTableRecord
100
AcDbBlockTableRecord
2
*PAPER_SPACE
0
ENDTAB
0
ENDSEC
0
SECTION
2
BLOCKS
0
BLOCK
5
20
100
AcDbEntity
100
AcDbBlockBegin
2
*MODEL_SPACE
0
ENDBLK
5
21
100
AcDbEntity
100
AcDbBlockEnd
0
BLOCK
5
1C
100
AcDbEntity
100
AcDbBlockBegin
2
*PAPER_SPACE
0
ENDBLK
5
1D
100
AcDbEntity
100
AcDbBlockEnd
0
ENDSEC
0
SECTION
2
ENTITIES
0
LWPOLYLINE
5
100
100
AcDbEntity
8
0
100
AcDbPolyline
90
37
70
1
43
0.0
10
210.72816500000002
20
114.41434799999601
10
210.72816500000002
20
113.60339662254403
10
209.27816500000003
20
113.60339662254403
10
209.27816500000003
20
113.52529937744802
10
210.72816500000002
20
113.52529937744802
10
210.72816500000002
20
112.71434799999602
10
209.07816500000001
20
112.71434799999602
10
209.07816500000007
20
112.18861206871202
42
-0.19891236737952667
10
208.99029703435602
20
111.97648003435602
10
208.31603296564401
20
111.30221596564409
42
-0.19891236737983931
10
208.10390093128802
20
111.21434800000002
10
206.22816500000002
20
111.21434800000006
42
0.28595477969226729
10
204.53343318917103
20
109.76434799999302
42
-0.32717070374705248
10
203.57816500001505
20
109.06434799999302
10
200.27816500002004
20
109.06434799999002
42
-0.41421356237676304
10
199.47816500000002
20
109.86434800000001
10
199.47816500000067
20
110.51434800000001
10
197.82816500000001
20
110.51434800000003
10
197.82816500000001
20
111.32529937745193
10
199.27816500000003
20
111.32529937745196
10
199.27816500000003
20
111.4033966225481
10
197.82816500000001
20
111.4033966225481
10
197.82816500000001
20
112.214348
10
199.47816500000238
20
112.21434800000003
10
199.478165000003
20
112.86434800000002
42
-0.41421356237678902
10
200.27816500002007
20
113.66434800000702
10
203.17816500001501
20
113.66434800000701
42
0.38898369055622256
10
204.37816500000025
20
114.764348
10
204.37816499999997
20
114.94008393128802
42
-0.19891236737953566
10
204.46603296564402
20
115.15221596564402
10
205.14029703435602
20
115.826480034356
42
-0.19891236737944598
10
205.35242906871201
20
115.91434800000002
10
208.10390093128802
20
115.91434800000007
42
-0.19891236737971052
10
208.31603296564401
20
115.82648003435601
10
208.99029703435599
20
115.15221596564399
42
-0.19891236737960549
10
209.07816500000001
20
114.94008393128802
10
209.07816500000001
20
114.41434799999601
0
LWPOLYLINE
5
101
100
AcDbEntity
8
0
100
AcDbPolyline
90
37
70
1
43
0.0
10
223.70316500000001
20
68.268187999996002
10
223.70316500000001
20
67.457236622544002
10
222.25316500000002
20
67.457236622544002
10
222.25316500000002
20
67.379139377447984
10
223.70316500000001
20
67.379139377447999
10
223.70316500000001
20
66.568187999995999
10
222.05316500000004
20
66.568187999995999
10
222.05316500000006
20
66.042452068711995
42
-0.19891236737960005
10
221.96529703435601
20
65.830320034356006
10
221.29103296564398
20
65.156055965644086
42
-0.1989123673798085
10
221.07890093128802
20
65.068188000000006
10
219.20316500000001
20
65.068188000000035
42
0.28595477969227873
10
217.50843318917103
20
63.618187999992998
42
-0.32717070374706869
10
216.55316500001504
20
62.918187999992995
10
213.25316500002003
20
62.918187999989989
42
-0.41421356237676954
10
212.45316500000001
20
63.718188000000005
10
212.45316500000064
20
64.368188000000004
10
210.80316500000004
20
64.368188000000004
10
210.80316500000004
20
65.179139377451904
10
212.25316500000002
20
65.179139377451904
10
212.25316500000002
20
65.257236622548078
10
210.80316500000004
20
65.257236622548078
10
210.80316500000004
20
66.068188000000006
10
212.45316500000234
20
66.068188000000006
10
212.453165000003
20
66.718187999999998
42
-0.41421356237675327
10
213.25316500002003
20
67.518188000007001
10
216.15316500001501
20
67.518188000007001
42
0.38898369055622045
10
217.35316500000025
20
68.618187999999975
10
217.35316499999999
20
68.793923931287992
42
-0.19891236737951165
10
217.44103296564401
20
69.006055965644009
10
218.1152970343561
20
69.680320034355972
42
-0.19891236737955828
10
218.32742906871201
20
69.768188000000009
10
221.07890093128802
20
69.768188000000066
42
-0.19891236737960005
10
221.29103296564404
20
69.680320034356001
10
221.96529703435598
20
69.006055965643981
42
-0.19891236737958909
10
222.05316500000004
20
68.793923931287992
10
222.05316500000004
20
68.268187999996002
0
LWPOLYLINE
5
102
100
AcDbEntity
8
0
100
AcDbPolyline
90
37
70
1
43
0.0
10
242.04718102367792
20
96.10237669424717
10
242.1037501321469
20
95.293400753592366
10
240.65728225927018
20
95.192253866663378
10
240.66273004769721
20
95.114346862531306
10
242.10919792057393
20
95.215493749460265
10
242.16576702904291
20
94.406517808805461
10
240.51978634611419
20
94.291419627127681
10
240.55645983080123
20
93.766964362148912
42
-0.19891236737971202
10
240.48360348979008
20
93.549219711328462
10
239.85801617826672
20
92.829563832193827
42
-0.1989123673796841
10
239.65253024632315
20
92.727112325812982
10
237.78136351348959
20
92.596267601571213
42
0.28595477969227601
10
236.19190687110429
20
91.031581213622047
42
-0.32717070374708523
10
235.28779519886638
20
90.266650238084708
10
231.99583383301413
20
90.036453874726476
42
-0.41421356237672474
10
231.14197741379033
20
90.778699935947628
10
231.0966357058573
20
91.427116568616569
10
229.45065502292792
20
91.312018386938718
10
229.39408591445897
20
92.120994327593436
10
230.84055378733569
20
92.222141214522409
10
230.83510599890869
20
92.300048218654666
10
229.38863812603194
20
92.198901331725693
10
229.33206901756296
20
93.007877272380426
10
230.97804970049401
20
93.122975454058391
10
230.93270799256101
20
93.771392086727317
42
-0.41421356237675927
10
231.67495405379003
20
94.625248505938643
10
234.56788979953853
20
94.827542279796234
42
0.38898369055621801
10
235.68823453871755
20
96.008570503566943
10
235.67597581984046
20
96.18387835095875
42
-0.19891236737973822
10
235.74883216085158
20
96.4016230017792
10
236.37441947237494
20
97.121278880913891
42
-0.19891236737983112
10
236.57990540431851
20
97.223730387294694
10
239.32467481972577
20
97.415663362034209
42
-0.19891236737972748
10
239.54241947054624
20
97.342807021023077
10
240.26207534968094
20
96.717219709499773
42
-0.19891236737960699
10
240.36452685606173
20
96.511733777556131
10
240.4012003407492
20
95.987278512569375
0
LWPOLYLINE
5
103
100
AcDbEntity
8
0
100
AcDbPolyline
90
37
70
1
43
0.0
10
205.70320500000003
20
93.704886999996006
10
205.70320500000003
20
92.893935622544021
10
204.25320500000001
20
92.893935622544021
10
204.25320500000001
20
92.815838377448017
10
205.70320500000003
20
92.815838377448017
10
205.70320500000003
20
92.004886999996017
10
204.05320500000002
20
92.004886999996017
10
204.05320500000005
20
91.479151068712014
42
-0.19891236737952667
10
203.96533703435603
20
91.267019034356011
10
203.29107296564402
20
90.59275496564409
42
-0.19891236737983931
10
203.078940931288
20
90.504887000000011
10
201.20320500000003
20
90.504887000000053
42
0.28595477969226729
10
199.50847318917101
20
89.054886999993016
42
-0.32717070374705248
10
198.55320500001505
20
88.354886999993013
10
195.25320500002005
20
88.354886999990015
42
-0.41421356237676304
10
194.45320500000003
20
89.154887000000002
10
194.45320500000065
20
89.804887000000008
10
192.80320500000002
20
89.804887000000022
10
192.80320500000002
20
90.615838377451922
10
194.25320500000001
20
90.615838377451922
10
194.25320500000001
20
90.693935622548096
10
192.80320500000002
20
90.693935622548096
10
192.80320500000002
20
91.504886999999997
10
194.45320500000236
20
91.504887000000025
10
194.45320500000298
20
92.154887000000016
42
-0.41421356237678902
10
195.25320500002007
20
92.95488700000702
10
198.15320500001502
20
92.954887000007005
42
0.38898369055622256
10
199.35320500000023
20
94.054886999999994
10
199.35320499999995
20
94.230622931288011
42
-0.19891236737953566
10
199.441072965644
20
94.442754965644014
10
200.11533703435603
20
95.117019034355991
42
-0.19891236737944598
10
200.32746906871199
20
95.204887000000014
10
203.078940931288
20
95.20488700000007
42
-0.19891236737971052
10
203.29107296564402
20
95.117019034356005
10
203.96533703435597
20
94.442754965643985
42
-0.19891236737960549
10
204.05320500000002
20
94.230622931288011
10
204.05320500000002
20
93.704886999996006
0
LWPOLYLINE
5
104
100
AcDbEntity
8
0
100
AcDbPolyline
90
37
70
1
43
0.0
10
223.70316500000001
20
51.267967999996003
10
223.70316500000001
20
50.457016622544003
10
222.25316500000002
20
50.457016622544003
10
222.25316500000002
20
50.378919377448
10
223.70316500000001
20
50.378919377448
10
223.70316500000001
20
49.567967999996007
10
222.05316500000004
20
49.567967999996007
10
222.05316500000006
20
49.042232068712003
42
-0.19891236737957374
10
221.96529703435601
20
48.830100034356008
10
221.29103296564398
20
48.155835965644087
42
-0.19891236737976672
10
221.07890093128802
20
48.067968000000008
10
219.20316500000001
20
48.067968000000036
42
0.28595477969227961
10
217.50843318917103
20
46.617967999992999
42
-0.32717070374706636
10
216.55316500001504
20
45.917967999993003
10
213.25316500002003
20
45.917967999990012
42
-0.41421356237676304
10
212.45316500000001
20
46.717968000000013
10
212.45316500000064
20
47.367968000000005
10
210.80316500000004
20
47.367968000000005
10
210.80316500000004
20
48.178919377451912
10
212.25316500000002
20
48.178919377451912
10
212.25316500000002
20
48.257016622548086
10
210.80316500000004
20
48.257016622548086
10
210.80316500000004
20
49.067968000000008
10
212.45316500000234
20
49.067968000000008
10
212.45316500000297
20
49.717968000000006
42
-0.4142135623767858
10
213.25316500002006
20
50.517968000007009
10
216.15316500001501
20
50.517968000007009
42
0.38898369055622045
10
217.35316500000025
20
51.617967999999983
10
217.35316499999996
20
51.793703931288
42
-0.19891236737978935
10
217.44103296564401
20
52.005835965644003
10
218.1152970343561
20
52.680100034355974
42
-0.19891236737956383
10
218.32742906871201
20
52.767968000000003
10
221.07890093128802
20
52.76796800000006
42
-0.1989123673795892
10
221.29103296564404
20
52.680100034356002
10
221.96529703435598
20
52.005835965643968
42
-0.19891236737960549
10
222.05316500000004
20
51.793703931288
10
222.05316500000004
20
51.267967999996003
0
LWPOLYLINE
5
105
100
AcDbEntity
8
0
100
AcDbPolyline
90
37
70
1
43
0.0
10
223.70316500000001
20
85.268407999996015
10
223.70316500000001
20
84.457456622544015
10
222.25316500000002
20
84.457456622544015
10
222.25316500000002
20
84.379359377447997
10
223.70316500000001
20
84.379359377447997
10
223.70316500000001
20
83.568407999996012
10
222.05316500000004
20
83.568407999996012
10
222.05316500000006
20
83.042672068712008
42
-0.19891236737952667
10
221.96529703435601
20
82.830540034356005
10
221.29103296564404
20
82.156275965644085
42
-0.19891236737983931
10
221.07890093128802
20
82.068408000000005
10
219.20316500000001
20
82.068408000000034
42
0.28595477969227456
10
217.50843318917103
20
80.618407999993011
42
-0.32717070374705076
10
216.55316500001504
20
79.918407999993008
10
213.25316500002003
20
79.918407999989995
42
-0.41421356237676304
10
212.45316500000001
20
80.718408000000011
10
212.45316500000064
20
81.368408000000002
10
210.80316500000004
20
81.368408000000017
10
210.80316500000004
20
82.179359377451931
10
212.25316500000002
20
82.179359377451931
10
212.25316500000002
20
82.257456622548091
10
210.80316500000004
20
82.257456622548091
10
210.80316500000004
20
83.068408000000005
10
212.45316500000234
20
83.068408000000019
10
212.453165000003
20
83.718408000000011
42
-0.41421356237678902
10
213.25316500002006
20
84.518408000007014
10
216.15316500001501
20
84.518408000006986
42
0.38898369055622256
10
217.35316500000025
20
85.618407999999988
10
217.35316499999996
20
85.794143931288005
42
-0.19891236737953566
10
217.44103296564401
20
86.006275965644008
10
218.11529703435605
20
86.680540034355985
42
-0.19891236737944598
10
218.32742906871201
20
86.768408000000008
10
221.07890093128802
20
86.768408000000065
42
-0.19891236737971052
10
221.29103296564404
20
86.680540034356
10
221.96529703435598
20
86.006275965643965
42
-0.19891236737960549
10
222.05316500000004
20
85.794143931288005
10
222.05316500000004
20
85.268407999996015
0
LWPOLYLINE
5
106
100
AcDbEntity
8
0
100
AcDbPolyline
90
37
70
1
43
0.0
10
230.63653102292795
20
74.353210386938699
10
230.57996191445898
20
75.162186327593417
10
232.0264297873357
20
75.263333214522376
10
232.0209819989087
20
75.341240218654661
10
230.57451412603194
20
75.240093331725689
10
230.51794501756297
20
76.049069272380407
10
232.16392570049408
20
76.164167454058372
10
232.11858399256101
20
76.812584086727298
42
-0.4142135623767435
10
232.86083005379004
20
77.666440505938624
10
235.75376579953854
20
77.868734279796215
42
0.3889836905562159
10
236.87411053871756
20
79.049762503566924
10
236.86185181984047
20
79.225070350958774
42
-0.19891236737979143
10
236.93470816085159
20
79.442815001779195
10
237.56029547237495
20
80.162470880913872
42
-0.19891236737968998
10
237.76578140431852
20
80.264922387294675
10
240.51055081972575
20
80.456855362034204
42
-0.1989123673796864
10
240.72829547054624
20
80.383999021023058
10
241.44795134968092
20
79.75841170949974
42
-0.19891236737977838
10
241.55040285606174
20
79.552925777556126
10
241.58707634074921
20
79.028470512569356
10
243.23305702367793
20
79.143568694247151
10
243.28962613214691
20
78.334592753592347
10
241.84315825927018
20
78.233445866663388
10
241.84860604769722
20
78.155538862531287
10
243.29507392057394
20
78.256685749460246
10
243.35164302904292
20
77.447709808805442
10
241.7056623461142
20
77.332611627127662
10
241.74233583080124
20
76.808156362148878
42
-0.1989123673797448
10
241.66947948979012
20
76.590411711328443
10
241.04389217826679
20
75.870755832193765
42
-0.19891236737969861
10
240.83840624632316
20
75.768304325812977
10
238.9672395134896
20
75.637459601571194
42
0.28595477969227434
10
237.3777828711043
20
74.072773213622028
42
-0.32717070374706958
10
236.47367119886636
20
73.307842238084703
10
233.18170983301417
20
73.077645874726457
42
-0.41421356237675155
10
232.32785341379036
20
73.819891935947609
10
232.28251170585733
20
74.46830856861655
0
LWPOLYLINE
5
107
100
AcDbEntity
8
0
100
AcDbPolyline
90
37
70
1
43
0.0
10
192.80320500000002
20
72.804667000000009
10
192.80320500000002
20
73.615618377451909
10
194.25320500000001
20
73.615618377451909
10
194.25320500000001
20
73.693715622548098
10
192.80320500000002
20
73.693715622548098
10
192.80320500000002
20
74.504667000000012
10
194.45320500000236
20
74.504667000000012
10
194.45320500000298
20
75.154667000000018
42
-0.41421356237675327
10
195.25320500002005
20
75.954667000007007
10
198.15320500001502
20
75.954667000007007
42
0.38898369055622045
10
199.35320500000023
20
77.054666999999995
10
199.353205
20
77.230402931288012
42
-0.19891236737951165
10
199.441072965644
20
77.442534965644001
10
200.11533703435612
20
78.116799034355978
42
-0.19891236737955828
10
200.32746906871199
20
78.204667000000001
10
203.078940931288
20
78.204667000000072
42
-0.19891236737960005
10
203.29107296564402
20
78.116799034356006
10
203.96533703435597
20
77.442534965643986
42
-0.19891236737958909
10
204.05320500000002
20
77.230402931288012
10
204.05320500000002
20
76.704666999996007
10
205.70320500000003
20
76.704666999996007
10
205.70320500000003
20
75.893715622544008
10
204.25320500000001
20
75.893715622544022
10
204.25320500000001
20
75.815618377448004
10
205.70320500000003
20
75.815618377448004
10
205.70320500000003
20
75.004666999996005
10
204.05320500000002
20
75.004666999996005
10
204.05320500000005
20
74.478931068712001
42
-0.19891236737960005
10
203.96533703435603
20
74.266799034356012
10
203.29107296564399
20
73.592534965644091
42
-0.1989123673798085
10
203.078940931288
20
73.504667000000012
10
201.20320500000003
20
73.50466700000004
42
0.28595477969227873
10
199.50847318917101
20
72.054666999993003
42
-0.32717070374706869
10
198.55320500001505
20
71.354666999993
10
195.25320500002005
20
71.354666999989988
42
-0.41421356237676954
10
194.45320500000003
20
72.154667000000018
10
194.45320500000065
20
72.804667000000009
0
LWPOLYLINE
5
108
100
AcDbEntity
8
0
100
AcDbPolyline
90
37
70
1
43
0.0
10
244.41893202367794
20
62.184759694247155
10
244.47550113214692
20
61.375783753592358
10
243.02903325927019
20
61.274636866663386
10
243.03448104769723
20
61.196729862531278
10
244.48094892057395
20
61.297876749460258
10
244.53751802904293
20
60.488900808805454
10
242.89153734611421
20
60.37380262712766
10
242.92821083080125
20
59.849347362148876
42
-0.19891236737979143
10
242.8553544897901
20
59.631602711328455
10
242.2297671782668
20
58.911946832193792
42
-0.19891236737970588
10
242.02428124632317
20
58.809495325812975
10
240.15311451348961
20
58.678650601571206
42
0.28595477969227923
10
238.56365787110434
20
57.113964213622054
42
-0.32717070374707902
10
237.65954619886639
20
56.349033238084701
10
234.36758483301418
20
56.118836874726469
42
-0.41421356237674795
10
233.51372841379035
20
56.861082935947607
10
233.46838670585731
20
57.509499568616548
10
231.82240602292794
20
57.394401386938711
10
231.76583691445899
20
58.203377327593422
10
233.21230478733571
20
58.304524214522395
10
233.20685699890871
20
58.382431218654659
10
231.76038912603195
20
58.281284331725693
10
231.70382001756298
20
59.090260272380412
10
233.34980070049403
20
59.20535845405837
10
233.30445899256102
20
59.853775086727303
42
-0.41421356237676249
10
234.04670505379005
20
60.707631505938629
10
236.93964079953855
20
60.909925279796219
42
0.3889836905562159
10
238.05998553871757
20
62.090953503566922
10
238.04772681984048
20
62.266261350958771
42
-0.1989123673797448
10
238.1205831608516
20
62.4840060017792
10
238.74617047237493
20
63.203661880913884
42
-0.19891236737978807
10
238.95165640431853
20
63.306113387294687
10
241.69642581972579
20
63.498046362034223
42
-0.19891236737978726
10
241.91417047054625
20
63.42519002102307
10
242.63382634968096
20
62.799602709499709
42
-0.19891236737968732
10
242.73627785606175
20
62.594116777556138
10
242.77295134074922
20
62.069661512569361
0
LWPOLYLINE
5
109
100
AcDbEntity
8
0
100
AcDbPolyline
90
37
70
1
43
0.0
10
205.70320500000003
20
59.704446999996001
10
205.70320500000003
20
58.893495622544009
10
204.25320500000001
20
58.893495622544009
10
204.25320500000001
20
58.815398377447998
10
205.70320500000003
20
58.815398377447998
10
205.70320500000003
20
58.004446999996006
10
204.05320500000002
20
58.004446999996006
10
204.05320500000005
20
57.478711068712002
42
-0.19891236737960005
10
203.96533703435603
20
57.266579034356006
10
203.29107296564399
20
56.592314965644086
42
-0.1989123673798085
10
203.078940931288
20
56.504447000000006
10
201.20320500000003
20
56.504447000000027
42
0.28595477969227873
10
199.50847318917101
20
55.054446999993004
42
-0.32717070374706869
10
198.55320500001505
20
54.354446999993002
10
195.25320500002005
20
54.354446999989989
42
-0.41421356237676954
10
194.45320500000003
20
55.154447000000005
10
194.45320500000065
20
55.804447000000003
10
192.80320500000002
20
55.804447000000003
10
192.80320500000002
20
56.615398377451911
10
194.25320500000001
20
56.615398377451911
10
194.25320500000001
20
56.693495622548085
10
192.80320500000002
20
56.693495622548085
10
192.80320500000002
20
57.504446999999999
10
194.45320500000236
20
57.504446999999999
10
194.45320500000298
20
58.154447000000005
42
-0.41421356237675327
10
195.25320500002005
20
58.954447000007008
10
198.15320500001502
20
58.954447000007008
42
0.38898369055622045
10
199.35320500000023
20
60.054446999999982
10
199.353205
20
60.230182931287999
42
-0.19891236737951165
10
199.441072965644
20
60.442314965644002
10
200.11533703435612
20
61.116579034355965
42
-0.19891236737955828
10
200.32746906871199
20
61.204447000000002
10
203.078940931288
20
61.204447000000066
42
-0.19891236737960005
10
203.29107296564402
20
61.116579034356
10
203.96533703435597
20
60.442314965643988
42
-0.19891236737958909
10
204.05320500000002
20
60.230182931287999
10
204.05320500000002
20
59.704446999996001
0
LWPOLYLINE
5
110
100
AcDbEntity
8
0
100
AcDbPolyline
90
37
70
1
43
0.0
10
187.70324500000001
20
62.424548999996006
10
187.70324500000001
20
61.613597622544006
10
186.25324500000002
20
61.613597622544006
10
186.25324500000002
20
61.535500377448002
10
187.70324500000001
20
61.535500377448002
10
187.70324500000001
20
60.724548999996003
10
186.053245
20
60.724548999996003
10
186.05324500000006
20
60.198813068711999
42
-0.19891236737960005
10
185.96537703435601
20
59.98668103435601
10
185.29111296564398
20
59.31241696564409
42
-0.1989123673798085
10
185.07898093128802
20
59.22454900000001
10
183.20324500000001
20
59.224549000000039
42
0.28595477969227873
10
181.50851318917103
20
57.774548999993002
42
-0.32717070374706869
10
180.55324500001504
20
57.074548999992999
10
177.25324500002003
20
57.074548999989993
42
-0.41421356237676954
10
176.45324500000001
20
57.874549000000009
10
176.45324500000066
20
58.524549000000007
10
174.803245
20
58.524549000000007
10
174.803245
20
59.335500377451915
10
176.25324500000002
20
59.335500377451922
10
176.25324500000002
20
59.413597622548089
10
174.803245
20
59.413597622548089
10
174.803245
20
60.224549000000003
10
176.45324500000237
20
60.224549000000003
10
176.45324500000299
20
60.874549000000009
42
-0.41421356237675327
10
177.25324500002003
20
61.674549000007005
10
180.153245000015
20
61.674549000007005
42
0.38898369055622045
10
181.35324500000024
20
62.774548999999986
10
181.35324499999999
20
62.950284931288003
42
-0.19891236737951165
10
181.44111296564401
20
63.162416965644006
10
182.1153770343561
20
63.836681034355969
42
-0.19891236737955828
10
182.327509068712
20
63.924549000000006
10
185.07898093128802
20
63.92454900000007
42
-0.19891236737960005
10
185.291112965644
20
63.836681034356005
10
185.96537703435598
20
63.162416965643985
42
-0.19891236737958909
10
186.053245
20
62.950284931288003
10
186.053245
20
62.424548999996006
0
LWPOLYLINE
5
111
100
AcDbEntity
8
0
100
AcDbPolyline
90
37
70
1
43
0.0
10
261.91811510469347
20
95.454505706372856
10
262.05893533356453
20
94.655874502542204
10
260.63096409169691
20
94.404084644925035
10
260.64452553598863
20
94.327173872465579
10
262.07249677785632
20
94.578963730082791
10
262.21331700672738
20
93.780332526252138
10
260.58838421425725
20
93.493813033101532
10
260.67967730065891
20
92.976064211935977
42
-0.19891236737977502
10
260.62998058804192
20
92.751896827730533
10
260.08304483239499
20
91.970791618487269
42
-0.19891236737970625
10
259.88939367240835
20
91.847422223488877
10
258.04215438467236
20
91.521704097236167
42
0.28595477969229166
10
256.62495921571002
20
89.799445764776763
42
-0.32717070374705481
10
255.80575742119024
20
88.944199757438
10
252.55589183625543
20
88.371160771134711
42
-0.41421356237674922
10
251.62912709169063
20
89.020088431417179
10
251.51625577620769
20
89.66021347087522
10
249.8913229837369
20
89.373693977724514
10
249.75050275486583
20
90.172325181555081
10
251.17847399673352
20
90.42411503917225
10
251.16491255244173
20
90.501025811631877
10
249.73694131057408
20
90.249235954014679
10
249.59612108170296
20
91.047867157845246
10
251.22105387417542
20
91.334386650996251
10
251.10818255869248
20
91.974511690454278
42
-0.41421356237681384
10
251.75711021898411
20
92.901276435007532
10
254.61305270271455
20
93.404856150241045
42
0.38898369055621945
10
255.60380901088212
20
94.696522491745412
10
255.57329278666305
20
94.869588599360611
42
-0.19891236737976464
10
255.62298949927998
20
95.093755983566069
10
256.16992525492697
20
95.874861192809362
42
-0.19891236737954052
10
256.36357641491361
20
95.998230587807711
10
259.07324723737332
20
96.476018662646226
42
-0.19891236737959289
10
259.2974146215787
20
96.426321950029262
10
260.07851983082202
20
95.879386194382278
42
-0.19891236737974272
10
260.20188922582037
20
95.685735034395691
10
260.29318231222328
20
95.16798621322225
0
LWPOLYLINE
5
112
100
AcDbEntity
8
0
100
AcDbPolyline
90
37
70
1
43
0.0
10
187.70328500000002
20
79.509846999996
10
187.70328500000002
20
78.698895622544001
10
186.25328500000001
20
78.698895622543986
10
186.25328500000001
20
78.620798377447997
10
187.70328500000002
20
78.620798377447997
10
187.70328500000002
20
77.809846999995997
10
186.05328500000002
20
77.809846999995997
10
186.05328500000007
20
77.284111068711979
42
-0.19891236737954432
10
185.96541703435602
20
77.071979034356005
10
185.29115296564402
20
76.39771496564407
42
-0.19891236737969067
10
185.07902093128803
20
76.309847000000005
10
183.20328500000002
20
76.309847000000019
42
0.28595477969227856
10
181.50855318917098
20
74.859846999993024
42
-0.32717070374708512
10
180.55328500001505
20
74.159846999992993
10
177.25328500002001
20
74.159846999989995
42
-0.41421356237675
10
176.45328500000002
20
74.959846999999996
10
176.45328500000065
20
75.609847000000002
10
174.80328500000002
20
75.609847000000002
10
174.80328500000002
20
76.420798377451902
10
176.25328500000001
20
76.420798377451902
10
176.25328500000001
20
76.498895622548076
10
174.80328500000002
20
76.498895622548076
10
174.80328500000002
20
77.309846999999991
10
176.45328500000232
20
77.309846999999991
10
176.45328500000295
20
77.959846999999996
42
-0.41421356237673052
10
177.25328500002001
20
78.759847000006999
10
180.15328500001502
20
78.759847000006999
42
0.38898369055621834
10
181.35328500000026
20
79.859846999999974
10
181.35328499999997
20
80.035582931287991
42
-0.19891236737952667
10
181.44115296564399
20
80.247714965643993
10
182.11541703435603
20
80.921979034355957
42
-0.19891236737967982
10
182.32754906871202
20
81.009846999999993
10
185.07902093128803
20
81.009847000000036
42
-0.19891236737956197
10
185.29115296564402
20
80.921979034355985
10
185.96541703435599
20
80.247714965643965
42
-0.19891236737957918
10
186.05328500000002
20
80.035582931287991
10
186.05328500000002
20
79.509846999996
0
LWPOLYLINE
5
113
100
AcDbEntity
8
0
100
AcDbPolyline
90
37
70
1
43
0.0
10
258.9660601046935
20
112.19645370633287
10
259.10688033356456
20
111.39782250250222
10
257.67890909169688
20
111.14603264488503
10
257.69247053598866
20
111.0691218724256
10
259.12044177785629
20
111.32091173004281
10
259.26126200672741
20
110.52228052621216
10
257.63632921425727
20
110.23576103306155
10
257.72762230065888
20
109.718012211896
42
-0.19891236737977502
10
257.67792558804194
20
109.49384482769055
10
257.13098983239496
20
108.71273961844727
42
-0.19891236737949849
10
256.93733867240837
20
108.5893702234489
10
255.09009938467241
20
108.26365209719619
42
0.28595477969229166
10
253.67290421571005
20
106.54139376473678
42
-0.32717070374705881
10
252.85370242119026
20
105.68614775739802
10
249.6038368362554
20
105.11310877109474
42
-0.41421356237676737
10
248.67707209169066
20
105.7620364313772
10
248.56420077620771
20
106.40216147083527
10
246.93926798373695
20
106.11564197768453
10
246.79844775486586
20
106.9142731815151
10
248.22641899673354
20
107.1660630391323
10
248.21285755244176
20
107.24297381159191
10
246.78488631057408
20
106.9911839539747
10
246.64406608170299
20
107.78981515780526
10
248.2689988741754
20
108.07633465095627
10
248.15612755869245
20
108.7164596904143
42
-0.41421356237679124
10
248.80505521898414
20
109.64322443496755
10
251.66099770271458
20
110.14680415020106
42
0.38898369055621945
10
252.65175401088214
20
111.43847049170543
10
252.62123778666307
20
111.61153659932063
42
-0.19891236737976464
10
252.67093449928001
20
111.83570398352609
10
253.21787025492699
20
112.61680919276938
42
-0.19891236737954052
10
253.41152141491361
20
112.74017858776773
10
256.12119223737329
20
113.21796666260624
42
-0.19891236737962581
10
256.34535962157872
20
113.16826994998928
10
257.12646483082199
20
112.62133419434232
42
-0.19891236737989021
10
257.24983422582039
20
112.42768303435571
10
257.34112731222331
20
111.90993421318227
0
LWPOLYLINE
5
114
100
AcDbEntity
8
0
100
AcDbPolyline
90
37
70
1
43
0.0
10
187.70328500000002
20
96.510066999995999
10
187.70328500000002
20
95.699115622544014
10
186.25328500000001
20
95.699115622544014
10
186.25328500000001
20
95.621018377447996
10
187.70328500000002
20
95.621018377447996
10
187.70328500000002
20
94.810066999995996
10
186.05328500000002
20
94.810066999995996
10
186.05328500000007
20
94.284331068711992
42
-0.19891236737953566
10
185.96541703435602
20
94.072199034356004
10
185.29115296564407
20
93.397934965644083
42
-0.19891236737981749
10
185.07902093128803
20
93.310067000000004
10
183.20328500000002
20
93.310067000000046
42
0.28595477969227229
10
181.50855318917104
20
91.860066999992995
42
-0.32717070374707335
10
180.55328500001505
20
91.160066999993006
10
177.25328500002001
20
91.160066999990022
42
-0.41421356237676954
10
176.45328500000002
20
91.960066999999995
10
176.45328500000065
20
92.610066999999987
10
174.80328500000002
20
92.610067000000015
10
174.80328500000002
20
93.421018377451915
10
176.25328500000001
20
93.421018377451915
10
176.25328500000001
20
93.499115622548089
10
174.80328500000002
20
93.499115622548089
10
174.80328500000002
20
94.310066999999989
10
176.45328500000232
20
94.310067000000004
10
176.45328500000295
20
94.960067000000009
42
-0.41421356237675
10
177.25328500002001
20
95.760067000007012
10
180.15328500001502
20
95.760067000007012
42
0.38898369055621829
10
181.35328500000026
20
96.860066999999987
10
181.35328499999997
20
97.035802931288003
42
-0.19891236737952667
10
181.44115296564399
20
97.247934965644006
10
182.11541703435603
20
97.922199034355955
42
-0.19891236737967982
10
182.32754906871202
20
98.010067000000006
10
185.07902093128803
20
98.010067000000035
42
-0.19891236737956197
10
185.29115296564402
20
97.922199034355998
10
185.96541703435599
20
97.24793496564395
42
-0.19891236737961634
10
186.05328500000002
20
97.035802931287975
10
186.05328500000002
20
96.510066999995999
0
LWPOLYLINE
5
115
100
AcDbEntity
8
0
100
AcDbPolyline
90
37
70
1
43
0.0
10
189.77202591448972
20
114.97173265003555
10
189.56213625335263
20
114.18841377069008
10
188.16154380523363
20
114.56370138608939
10
188.14133075083274
20
114.48826524008916
10
189.54192319895171
20
114.11297762468983
10
189.33203353781462
20
113.32965874534436
10
187.73825592443785
20
113.75671016976428
10
187.60218545272667
20
113.24888825592896
42
-0.19891236737947032
10
187.46240770483982
20
113.06672634832444
10
186.63660624472098
20
112.58994965302821
42
-0.19891236737970994
10
186.40896053119013
20
112.55997952627692
10
184.59713875186094
20
113.04545570887826
42
0.28595477969228755
10
182.58486591174662
20
112.08349212973692
42
-0.32717070374709423
10
181.48097436523648
20
111.65458565186925
10
178.29341913848705
20
112.50868850070498
42
-0.41421356237675899
10
177.72773371352156
20
113.48848439783332
10
177.8959660928391
20
114.11633618492095
10
176.30218847946171
20
114.54338760934105
10
176.51207814059876
20
115.32670648868644
10
177.91267058871773
20
114.95141887328711
10
177.93288364311871
20
115.02685501928752
10
176.53229119499971
20
115.40214263468684
10
176.74218085613683
20
116.18546151403224
10
178.33595846951582
20
115.75841008961171
10
178.50419084883342
20
116.38626187669936
42
-0.41421356237680096
10
179.48398674596518
20
116.95194730165049
10
182.28517164219824
20
116.20137207085313
42
0.38898369055623
10
183.72898358334223
20
116.95330762564444
10
183.77446738926818
20
117.12305550028255
42
-0.19891236737967694
10
183.91424513715504
20
117.3052174078871
10
184.74004659727387
20
117.78199410318335
42
-0.19891236737978565
10
184.96769231080469
20
117.8119642299346
10
187.62541004317421
20
117.09983090983498
42
-0.19891236737995335
10
187.80757195077871
20
116.96005316194815
10
188.28434864607499
20
116.13425170182924
42
-0.19891236737954951
10
188.31431877282625
20
115.90660598829849
10
188.17824830111292
20
115.39878407445549
0
CIRCLE
5
116
100
AcDbEntity
8
0
100
AcDbCircle
10
160.5
20
112.00000000000001
30
0
40
1.6000000000000014
210
0
220
0
230
1
0
CIRCLE
5
117
100
AcDbEntity
8
0
100
AcDbCircle
10
243
20
52.700000000000003
30
0
40
1.6000000000000014
210
0
220
0
230
1
0
CIRCLE
5
118
100
AcDbEntity
8
0
100
AcDbCircle
10
168.80000000000001
20
52.700000000000003
30
0
40
1.6000000000000014
210
0
220
0
230
1
0
LWPOLYLINE
5
119
100
AcDbEntity
8
0
100
AcDbPolyline
90
37
70
1
43
0.0
10
169.72813036386503
20
120.77787432893896
10
169.32265467513889
20
120.07556983483163
10
168.06691783965161
20
120.80056983483189
10
168.02786921710356
20
120.73293563661316
10
169.28360605259087
20
120.00793563661291
10
168.87813036386473
20
119.30563114250559
10
167.44918844762057
20
120.13063114250591
10
167.1863204819785
20
119.67533047033172
42
-0.19891236737950357
10
167.00415857437389
20
119.53555272244502
10
166.08309672765418
20
119.28875494443764
42
-0.19891236737976314
10
165.85545101412339
20
119.31872507118908
10
164.23101604683697
20
120.25659303683346
42
0.28595477969230243
10
162.03833524605383
20
119.8482221067549
42
-0.327170703747094
10
160.86104872681756
20
119.71963841868404
10
158.00316489433212
20
121.36963841867956
42
-0.41421356237675244
10
157.71034457129247
20
122.46245874172587
10
158.03534457129314
20
123.02537525418536
10
156.60640265504844
20
123.85037525418598
10
157.01187834377458
20
124.55267974829323
10
158.26761517926184
20
123.82767974829294
10
158.30666380180995
20
123.89531394651183
10
157.05092696632266
20
124.62031394651208
10
157.45640265504878
20
125.32261844061935
10
158.88534457129495
20
124.49761844061786
10
159.21034457129562
20
125.06053495307734
42
-0.41421356237676621
10
160.30316489434148
20
125.35335527610221
10
162.81463856531172
20
123.90335527610418
42
0.38898369055621873
10
164.4038690498368
20
124.25598322026802
10
164.49173701548062
20
124.40817500112126
42
-0.19891236737968246
10
164.67389892308523
20
124.54795274900796
10
165.59496076980497
20
124.79475052701537
42
-0.19891236737988191
10
165.8226064833357
20
124.76478040026393
10
168.20545101412426
20
123.38904446897544
42
-0.19891236737947471
10
168.34522876201106
20
123.20688256137082
10
168.59202654001845
20
122.28582071465112
42
-0.1989123673794177
10
168.56205641326699
20
122.05817500112035
10
168.29918844762091
20
121.60287432893927
0
CIRCLE
5
120
100
AcDbEntity
8
0
100
AcDbCircle
10
265.69999999999999
20
121.00000000000001
30
0
40
1.6000000000000014
210
0
220
0
230
1
0
LWPOLYLINE
5
121
100
AcDbEntity
8
0
100
AcDbPolyline
90
37
70
1
43
0.0
10
278.02017410469347
20
107.78755670633288
10
278.16099433356453
20
106.98892550250223
10
276.73302309169691
20
106.73713564488503
10
276.74658453598863
20
106.6602248724256
10
278.17455577785631
20
106.91201473004281
10
278.31537600672738
20
106.11338352621216
10
276.69044321425724
20
105.82686403306155
10
276.78173630065891
20
105.309115211896
42
-0.19891236737977502
10
276.73203958804197
20
105.08494782769056
10
276.18510383239493
20
104.30384261844728
42
-0.19891236737949849
10
275.99145267240834
20
104.1804732234489
10
274.14421338467241
20
103.85475509719619
42
0.28595477969229166
10
272.72701821571002
20
102.13249676473679
42
-0.32717070374705881
10
271.90781642119026
20
101.27725075739802
10
268.6579508362554
20
100.70421177109475
42
-0.41421356237676737
10
267.73118609169063
20
101.3531394313772
10
267.61831477620768
20
101.99326447083527
10
265.99338198373692
20
101.70674497768454
10
265.85256175486586
20
102.5053761815151
10
267.28053299673354
20
102.7571660391323
10
267.26697155244176
20
102.83407681159191
10
265.83900031057408
20
102.5822869539747
10
265.69818008170296
20
103.38091815780527
10
267.32311287417537
20
103.66743765095627
10
267.21024155869247
20
104.3075626904143
42
-0.41421356237679124
10
267.85916921898411
20
105.23432743496755
10
270.71511170271458
20
105.73790715020107
42
0.38898369055621945
10
271.70586801088211
20
107.02957349170543
10
271.67535178666304
20
107.20263959932063
42
-0.19891236737976464
10
271.72504849927998
20
107.42680698352609
10
272.27198425492696
20
108.20791219276938
42
-0.19891236737954052
10
272.46563541491361
20
108.33128158776773
10
275.17530623737332
20
108.80906966260625
42
-0.19891236737962581
10
275.39947362157869
20
108.75937294998928
10
276.18057883082196
20
108.21243719434233
42
-0.19891236737989021
10
276.30394822582036
20
108.01878603435571
10
276.39524131222333
20
107.50103721318227
0
LWPOLYLINE
5
122
100
AcDbEntity
8
0
100
AcDbPolyline
90
37
70
1
43
0.0
10
264.87017410469349
20
78.712556706372851
10
265.01099433356455
20
77.913925502542213
10
263.58302309169693
20
77.662135644925016
10
263.59658453598865
20
77.585224872465574
10
265.02455577785634
20
77.837014730082771
10
265.1653760067274
20
77.038383526252133
10
263.54044321425727
20
76.751864033101526
10
263.63173630065893
20
76.234115211935986
42
-0.19891236737978138
10
263.58203958804199
20
76.009947827730542
10
263.03510383239501
20
75.228842618487263
42
-0.19891236737969217
10
262.84145267240837
20
75.105473223488858
10
260.99421338467243
20
74.779755097236162
42
0.28595477969229166
10
259.57701821571004
20
73.057496764776758
42
-0.32717070374703983
10
258.75781642119028
20
72.202250757438009
10
255.50795083625542
20
71.62921177113472
42
-0.41421356237674434
10
254.58118609169065
20
72.278139431417202
10
254.46831477620773
20
72.918264470875243
10
252.84338198373695
20
72.631744977724523
10
252.70256175486588
20
73.430376181555076
10
254.13053299673354
20
73.682166039172273
10
254.11697155244178
20
73.759076811631871
10
252.6890003105741
20
73.507286954014688
10
252.54818008170301
20
74.305918157845241
10
254.17311287417544
20
74.59243765099626
10
254.0602415586925
20
75.232562690454301
42
-0.41421356237680423
10
254.70916921898413
20
76.159327435007526
10
257.5651117027146
20
76.662907150241054
42
0.38898369055622373
10
258.55586801088214
20
77.954573491745435
10
258.52535178666307
20
78.127639599360634
42
-0.19891236737979304
10
258.57504849928
20
78.351806983566064
10
259.12198425492699
20
79.132912192809343
42
-0.19891236737963663
10
259.31563541491363
20
79.256281587807706
10
262.02530623737334
20
79.734069662646192
42
-0.1989123673796033
10
262.24947362157872
20
79.684372950029271
10
263.03057883082209
20
79.137437194382287
42
-0.19891236737957155
10
263.15394822582039
20
78.9437860343957
10
263.24524131222336
20
78.426037213222244
0
LINE
5
123
100
AcDbEntity
8
0
100
AcDbLine
10
156.61795599999999
20
112.28009100000001
30
0
11
156.625
21
106.28434800000001
31
0
0
LINE
5
124
100
AcDbEntity
8
0
100
AcDbLine
10
156.625
20
106.28434800000001
30
0
11
156.625
21
69.884
31
0
0
LINE
5
125
100
AcDbEntity
8
0
100
AcDbLine
10
156.625
20
69.884
30
0
11
156.624954
21
63.884348000000003
31
0
0
LINE
5
126
100
AcDbEntity
8
0
100
AcDbLine
10
156.624954
20
63.884348000000003
30
0
11
156.624954
21
50.653362000000008
31
0
0
SPLINE
5
127
100
AcDbEntity
8
0
100
AcDbSpline
70
0
71
3
72
8
73
4
74
0
42
0.000000001
43
0.0000000001
44
0.0000000001
40
-1
40
-1
40
-1
40
-1
40
0
40
0
40
0
40
0
10
156.624954
20
50.653362000000008
30
0
10
156.624954
20
50.103030000000004
30
0
10
157.06944700000003
20
49.655000000000001
30
0
10
157.62331
20
49.655000000000001
30
0
0
LINE
5
128
100
AcDbEntity
8
0
100
AcDbLine
10
157.62331
20
49.655000000000001
30
0
11
205.50231100000002
21
49.655000000000001
31
0
0
LINE
5
129
100
AcDbEntity
8
0
100
AcDbLine
10
205.50231100000002
20
49.655000000000001
30
0
11
205.50231100000002
21
45.795611000000001
31
0
0
SPLINE
5
130
100
AcDbEntity
8
0
100
AcDbSpline
70
0
71
3
72
8
73
4
74
0
42
0.000000001
43
0.0000000001
44
0.0000000001
40
-1
40
-1
40
-1
40
-1
40
0
40
0
40
0
40
0
10
205.50231100000002
20
45.795611000000001
30
0
10
205.50231100000002
20
45.633336
30
0
10
205.636368
20
45.499277999999997
30
0
10
205.79865400000003
20
45.499277999999997
30
0
0
LINE
5
131
100
AcDbEntity
8
0
100
AcDbLine
10
205.79865400000003
20
45.49927799999999
30
0
11
223.705657
21
45.499277999999997
31
0
0
SPLINE
5
132
100
AcDbEntity
8
0
100
AcDbSpline
70
0
71
3
72
8
73
4
74
0
42
0.000000001
43
0.0000000001
44
0.0000000001
40
-1
40
-1
40
-1
40
-1
40
0
40
0
40
0
40
0
10
223.705657
20
45.499277999999997
30
0
10
223.86794300000003
20
45.499277999999997
30
0
10
224.00200000000001
20
45.633330000000001
30
0
10
224.00200000000001
20
45.795611000000001
30
0
0
LINE
5
133
100
AcDbEntity
8
0
100
AcDbLine
10
224.00200000000001
20
45.795611000000001
30
0
11
224.00200000000001
21
49.655000000000001
31
0
0
LINE
5
134
100
AcDbEntity
8
0
100
AcDbLine
10
224.00200000000001
20
49.655000000000001
30
0
11
268.26150799999999
21
49.654999999999994
31
0
0
SPLINE
5
135
100
AcDbEntity
8
0
100
AcDbSpline
70
0
71
3
72
8
73
4
74
0
42
0.000000001
43
0.0000000001
44
0.0000000001
40
-1
40
-1
40
-1
40
-1
40
0
40
0
40
0
40
0
10
268.26150799999999
20
49.655000000000001
30
0
10
268.81184000000007
20
49.655000000000001
30
0
10
269.25987500000008
20
50.099498000000004
30
0
10
269.25987500000008
20
50.653362000000008
30
0
0
LINE
5
136
100
AcDbEntity
8
0
100
AcDbLine
10
269.25987500000002
20
50.653362000000001
30
0
11
269.25987500000008
21
100.27861700000001
31
0
0
LINE
5
137
100
AcDbEntity
8
0
100
AcDbLine
10
269.25987500000008
20
100.27861700000001
30
0
11
279.05206515154117
21
102.00643976971787
31
0
0
LINE
5
138
100
AcDbEntity
8
0
100
AcDbLine
10
279.05206515154117
20
102.00643976971787
30
0
11
279.0528534511036
21
102.00782081289375
31
0
0
SPLINE
5
139
100
AcDbEntity
8
0
100
AcDbSpline
70
0
71
3
72
8
73
4
74
0
42
0.000000001
43
0.0000000001
44
0.0000000001
40
-0.99305409543401213
40
-0.99305409543401213
40
-0.99305409543401213
40
-0.99305409543401213
40
0
40
0
40
0
40
0
10
279.05285345110354
20
102.00782081289375
30
0
10
279.2132286886096
20
102.03753993917314
30
0
10
279.31739793100587
20
102.18826214666345
30
0
10
279.28936599999997
20
102.34941000000001
30
0
0
LINE
5
140
100
AcDbEntity
8
0
100
AcDbLine
10
279.28936600000003
20
102.34941000000001
30
0
11
276.35425199999997
21
119.00052500000001
31
0
0
SPLINE
5
141
100
AcDbEntity
8
0
100
AcDbSpline
70
0
71
3
72
8
73
4
74
0
42
0.000000001
43
0.0000000001
44
0.0000000001
40
-1
40
-1
40
-1
40
-1
40
0
40
0
40
0
40
0
10
276.35425199999997
20
119.00052500000001
30
0
10
276.32604600000002
20
119.1628
30
0
10
276.17435399999999
20
119.26862900000002
30
0
10
276.012068
20
119.24041200000002
30
0
0
LINE
5
142
100
AcDbEntity
8
0
100
AcDbLine
10
276.012068
20
119.24041200000002
30
0
11
269.25285500000001
21
118.04802100000002
31
0
0
LINE
5
143
100
AcDbEntity
8
0
100
AcDbLine
10
269.25285500000001
20
118.04802100000002
30
0
11
269.25285500000001
21
123.593688
31
0
0
SPLINE
5
144
100
AcDbEntity
8
0
100
AcDbSpline
70
0
71
3
72
8
73
4
74
0
42
0.000000001
43
0.0000000001
44
0.0000000001
40
-1
40
-1
40
-1
40
-1
40
0
40
0
40
0
40
0
10
269.25285500000001
20
123.593688
30
0
10
269.25285500000001
20
124.14402100000001
30
0
10
268.80835200000001
20
124.59204400000002
30
0
10
268.25448799999998
20
124.59204400000002
30
0
0
LINE
5
145
100
AcDbEntity
8
0
100
AcDbLine
10
268.25448799999998
20
124.59204400000002
30
0
11
211.02335600000004
21
124.59204400000002
31
0
0
LINE
5
146
100
AcDbEntity
8
0
100
AcDbLine
10
211.02335600000004
20
124.59204400000002
30
0
11
211.02335600000004
21
125.79854900000001
31
0
0
SPLINE
5
147
100
AcDbEntity
8
0
100
AcDbSpline
70
0
71
3
72
8
73
4
74
0
42
0.000000001
43
0.0000000001
44
0.0000000001
40
-1
40
-1
40
-1
40
-1
40
0
40
0
40
0
40
0
10
211.02335600000004
20
125.79854900000001
30
0
10
211.02335600000004
20
125.960824
30
0
10
210.88929899999999
20
126.094881
30
0
10
210.727014
20
126.094881
30
0
0
LINE
5
148
100
AcDbEntity
8
0
100
AcDbLine
10
210.727014
20
126.094881
30
0
11
202.12982100000002
21
126.094881
31
0
0
SPLINE
5
149
100
AcDbEntity
8
0
100
AcDbSpline
70
0
71
3
72
8
73
4
74
0
42
0.000000001
43
0.0000000001
44
0.0000000001
40
-1
40
-1
40
-1
40
-1
40
0
40
0
40
0
40
0
10
202.12982100000002
20
126.094881
30
0
10
197.68482900000004
20
126.094881
30
0
10
193.23628500000001
20
126.094881
30
0
10
184.423903
20
128.45496499999999
30
0
0
SPLINE
5
150
100
AcDbEntity
8
0
100
AcDbSpline
70
0
71
3
72
8
73
4
74
0
42
0.000000001
43
0.0000000001
44
0.0000000001
40
-1
40
-1
40
-1
40
-1
40
0
40
0
40
0
40
0
10
184.423903
20
128.45496499999999
30
0
10
175.61152100000001
20
130.81505000000001
30
0
10
171.65335400000001
20
133.101043
30
0
10
167.69518700000003
20
135.387047
30
0
0
SPLINE
5
151
100
AcDbEntity
8
0
100
AcDbSpline
70
0
71
3
72
8
73
4
74
0
42
0.000000001
43
0.0000000001
44
0.0000000001
40
-1
40
-1
40
-1
40
-1
40
0
40
0
40
0
40
0
10
167.69518700000003
20
135.387047
30
0
10
164.629547
20
137.15799799999999
30
0
10
161.01004399999999
20
139.24643599999999
30
0
10
160.03285299999999
20
139.81088299999999
30
0
0
SPLINE
5
152
100
AcDbEntity
8
0
100
AcDbSpline
70
0
71
3
72
8
73
4
74
0
42
0.000000001
43
0.0000000001
44
0.0000000001
40
-1
40
-1
40
-1
40
-1
40
0
40
0
40
0
40
0
10
160.03285299999999
20
139.81088299999999
30
0
10
159.89173400000001
20
139.89202599999999
30
0
10
159.71182400000001
20
139.84263200000001
30
0
10
159.63068100000001
20
139.70152300000001
30
0
0
LINE
5
153
100
AcDbEntity
8
0
100
AcDbLine
10
159.63068100000004
20
139.70152300000001
30
0
11
151.174598
21
125.057714
31
0
0
SPLINE
5
154
100
AcDbEntity
8
0
100
AcDbSpline
70
0
71
3
72
8
73
4
74
0
42
0.000000001
43
0.0000000001
44
0.0000000001
40
-1
40
-1
40
-1
40
-1
40
0
40
0
40
0
40
0
10
151.174598
20
125.057714
30
0
10
151.09345500000001
20
124.91659400000002
30
0
10
151.14284900000001
20
124.73668500000001
30
0
10
151.28395800000001
20
124.655542
30
0
0
LINE
5
155
100
AcDbEntity
8
0
100
AcDbLine
10
151.28395800000001
20
124.655542
30
0
11
156.61795599999999
21
121.57578800000002
31
0
0
LINE
5
156
100
AcDbEntity
8
0
100
AcDbLine
10
156.61795599999999
20
121.57578800000002
30
0
11
156.61795599999999
21
112.28009100000001
31
0
0
LWPOLYLINE
5
157
100
AcDbEntity
8
0
100
AcDbPolyline
90
37
70
1
43
0.0
10
263.24524131222336
20
78.426037213222259
10
264.87017410469349
20
78.712556706372851
10
265.01099433356455
20
77.913925502542213
10
263.58302309169693
20
77.662135644925016
10
263.59658453598865
20
77.585224872465574
10
265.02455577785634
20
77.837014730082771
10
265.1653760067274
20
77.038383526252147
10
263.54044321425727
20
76.751864033101526
10
263.63173630065893
20
76.234115211935986
42
-0.19891236737978138
10
263.58203958804199
20
76.009947827730542
10
263.03510383239501
20
75.228842618487263
42
-0.19891236737972839
10
262.84145267240837
20
75.105473223488872
10
260.99421338467243
20
74.779755097236162
42
0.28595477969229222
10
259.57701821571004
20
73.057496764776758
42
-0.32717070374707324
10
258.75781642119028
20
72.202250757438009
10
255.50795083625542
20
71.62921177113472
42
-0.41421356237674056
10
254.58118609169065
20
72.278139431417202
10
254.46831477620773
20
72.918264470875243
10
252.843381983737
20
72.631744977724537
10
252.70256175486588
20
73.430376181555076
10
254.13053299673354
20
73.682166039172273
10
254.11697155244178
20
73.759076811631871
10
252.68900031057413
20
73.507286954014688
10
252.54818008170301
20
74.305918157845156
10
254.17311287417544
20
74.59243765099626
10
254.0602415586925
20
75.232562690454301
42
-0.41421356237680423
10
254.70916921898413
20
76.159327435007526
10
257.5651117027146
20
76.662907150241054
42
0.38898369055622256
10
258.55586801088191
20
77.954573491745407
10
258.52535178666307
20
78.127639599360634
42
-0.19891236737979304
10
258.57504849928
20
78.351806983566064
10
259.12198425492699
20
79.132912192809343
42
-0.19891236737960674
10
259.31563541491363
20
79.25628158780772
10
262.02530623737334
20
79.734069662646192
42
-0.1989123673796033
10
262.24947362157872
20
79.684372950029271
10
263.03057883082209
20
79.137437194382287
42
-0.19891236737957155
10
263.15394822582039
20
78.9437860343957
0
LWPOLYLINE
5
158
100
AcDbEntity
8
0
100
AcDbPolyline
90
37
70
1
43
0.0
10
276.39524131222333
20
107.50103721318227
10
278.02017410469347
20
107.78755670633288
10
278.16099433356453
20
106.98892550250223
10
276.73302309169691
20
106.73713564488503
10
276.74658453598863
20
106.6602248724256
10
278.17455577785631
20
106.91201473004281
10
278.31537600672738
20
106.11338352621226
10
276.69044321425724
20
105.82686403306155
10
276.78173630065891
20
105.309115211896
42
-0.19891236737977502
10
276.73203958804197
20
105.08494782769056
10
276.18510383239499
20
104.30384261844725
42
-0.19891236737948095
10
275.99145267240834
20
104.1804732234489
10
274.14421338467241
20
103.85475509719619
42
0.28595477969229161
10
272.72701821571002
20
102.13249676473679
42
-0.32717070374705898
10
271.90781642119026
20
101.27725075739802
10
268.6579508362554
20
100.70421177109475
42
-0.41421356237674645
10
267.73118609169063
20
101.35313943137723
10
267.61831477620768
20
101.99326447083527
10
265.99338198373698
20
101.70674497768454
10
265.85256175486586
20
102.5053761815151
10
267.28053299673354
20
102.7571660391323
10
267.26697155244176
20
102.83407681159191
10
265.83900031057408
20
102.5822869539747
10
265.69818008170301
20
103.38091815780508
10
267.32311287417537
20
103.66743765095627
10
267.21024155869247
20
104.3075626904143
42
-0.4142135623767807
10
267.85916921898411
20
105.23432743496755
10
270.71511170271458
20
105.73790715020107
42
0.38898369055622045
10
271.70586801088189
20
107.02957349170541
10
271.67535178666304
20
107.20263959932063
42
-0.19891236737976464
10
271.72504849927998
20
107.42680698352609
10
272.27198425492696
20
108.20791219276938
42
-0.19891236737954052
10
272.46563541491361
20
108.33128158776773
10
275.17530623737332
20
108.80906966260625
42
-0.19891236737962315
10
275.39947362157869
20
108.75937294998928
10
276.18057883082196
20
108.2124371943423
42
-0.1989123673797403
10
276.30394822582036
20
108.01878603435571
0
CIRCLE
5
159
100
AcDbEntity
8
0
100
AcDbCircle
10
265.69999999999999
20
121.00000000000001
30
0
40
1.6000000000000014
210
0
220
-0
230
1
0
LWPOLYLINE
5
160
100
AcDbEntity
8
0
100
AcDbPolyline
90
37
70
1
43
0.0
10
168.29918844762091
20
121.60287432893927
10
169.72813036386503
20
120.77787432893896
10
169.32265467513889
20
120.07556983483163
10
168.06691783965161
20
120.80056983483189
10
168.02786921710356
20
120.73293563661316
10
169.28360605259087
20
120.00793563661291
10
168.87813036386461
20
119.30563114250543
10
167.44918844762057
20
120.13063114250591
10
167.1863204819785
20
119.67533047033172
42
-0.19891236737960699
10
167.00415857437389
20
119.53555272244502
10
166.08309672765418
20
119.28875494443764
42
-0.19891236737976314
10
165.85545101412339
20
119.31872507118908
10
164.23101604683697
20
120.25659303683346
42
0.28595477969229582
10
162.03833524605389
20
119.84822210675495
42
-0.32717070374710833
10
160.86104872681756
20
119.71963841868404
10
158.00316489433212
20
121.36963841867956
42
-0.41421356237675172
10
157.71034457129247
20
122.46245874172587
10
158.03534457129314
20
123.02537525418536
10
156.60640265504844
20
123.85037525418598
10
157.01187834377458
20
124.55267974829323
10
158.26761517926184
20
123.82767974829294
10
158.30666380180995
20
123.89531394651183
10
157.05092696632266
20
124.62031394651208
10
157.45640265504886
20
125.32261844061951
10
158.88534457129495
20
124.49761844061786
10
159.21034457129562
20
125.06053495307734
42
-0.41421356237676621
10
160.30316489434148
20
125.35335527610221
10
162.81463856531172
20
123.90335527610418
42
0.38898369055622012
10
164.40386904983666
20
124.25598322026813
10
164.49173701548062
20
124.40817500112126
42
-0.19891236737968246
10
164.67389892308523
20
124.54795274900796
10
165.59496076980497
20
124.79475052701537
42
-0.19891236737980653
10
165.82260648333573
20
124.76478040026393
10
168.20545101412426
20
123.38904446897544
42
-0.19891236737950127
10
168.34522876201106
20
123.20688256137082
10
168.59202654001842
20
122.28582071465112
42
-0.19891236737949225
10
168.56205641326699
20
122.05817500112035
0
CIRCLE
5
161
100
AcDbEntity
8
0
100
AcDbCircle
10
168.80000000000001
20
52.700000000000003
30
0
40
1.6000000000000014
210
0
220
-0
230
1
0
CIRCLE
5
162
100
AcDbEntity
8
0
100
AcDbCircle
10
243
20
52.700000000000003
30
0
40
1.6000000000000014
210
0
220
-0
230
1
0
CIRCLE
5
163
100
AcDbEntity
8
0
100
AcDbCircle
10
160.5
20
112.00000000000001
30
0
40
1.6000000000000014
210
0
220
-0
230
1
0
LWPOLYLINE
5
164
100
AcDbEntity
8
0
100
AcDbPolyline
90
37
70
1
43
0.0
10
188.17824830111292
20
115.39878407445549
10
189.77202591448972
20
114.97173265003555
10
189.56213625335263
20
114.18841377069008
10
188.16154380523363
20
114.56370138608939
10
188.14133075083274
20
114.48826524008916
10
189.54192319895171
20
114.11297762468983
10
189.33203353781465
20
113.32965874534443
10
187.73825592443785
20
113.75671016976428
10
187.60218545272667
20
113.24888825592896
42
-0.19891236737947032
10
187.46240770483982
20
113.06672634832444
10
186.63660624472098
20
112.58994965302824
42
-0.19891236737973647
10
186.40896053119013
20
112.55997952627692
10
184.59713875186094
20
113.04545570887826
42
0.28595477969228866
10
182.58486591174662
20
112.0834921297369
42
-0.32717070374709178
10
181.48097436523648
20
111.65458565186925
10
178.29341913848705
20
112.50868850070496
42
-0.41421356237678503
10
177.72773371352156
20
113.4884843978333
10
177.8959660928391
20
114.11633618492095
10
176.30218847946173
20
114.54338760934105
10
176.51207814059876
20
115.32670648868644
10
177.91267058871773
20
114.95141887328711
10
177.93288364311871
20
115.02685501928752
10
176.53229119499971
20
115.40214263468684
10
176.74218085613683
20
116.18546151403226
10
178.33595846951582
20
115.75841008961171
10
178.50419084883342
20
116.38626187669936
42
-0.41421356237679757
10
179.48398674596518
20
116.95194730165049
10
182.28517164219824
20
116.20137207085313
42
0.38898369055622561
10
183.72898358334197
20
116.95330762564451
10
183.7744673892681
20
117.12305550028255
42
-0.19891236737958171
10
183.91424513715498
20
117.30521740788708
10
184.74004659727387
20
117.78199410318335
42
-0.19891236737977802
10
184.96769231080469
20
117.8119642299346
10
187.62541004317421
20
117.09983090983499
42
-0.19891236737973647
10
187.80757195077871
20
116.96005316194815
10
188.28434864607499
20
116.13425170182924
42
-0.19891236737954951
10
188.31431877282625
20
115.90660598829849
0
LWPOLYLINE
5
165
100
AcDbEntity
8
0
100
AcDbPolyline
90
37
70
1
43
0.0
10
186.05328500000002
20
96.510066999995999
10
187.70328500000002
20
96.510066999995999
10
187.70328500000002
20
95.699115622544014
10
186.25328500000001
20
95.699115622544014
10
186.25328500000001
20
95.621018377447996
10
187.70328500000002
20
95.621018377447996
10
187.70328500000002
20
94.810066999995996
10
186.05328500000002
20
94.810066999995996
10
186.0532850000001
20
94.284331068711992
42
-0.19891236737952214
10
185.96541703435602
20
94.072199034356004
10
185.29115296564407
20
93.397934965644041
42
-0.19891236737987902
10
185.07902093128803
20
93.310067000000004
10
183.20328500000002
20
93.310067000000046
42
0.2859547796922719
10
181.50855318917104
20
91.860066999992995
42
-0.32717070374707413
10
180.55328500001505
20
91.160066999993006
10
177.25328500002001
20
91.160066999990022
42
-0.41421356237676954
10
176.45328500000002
20
91.960066999999995
10
176.45328500000065
20
92.610066999999987
10
174.80328500000002
20
92.610067000000015
10
174.80328500000002
20
93.421018377451915
10
176.25328500000001
20
93.421018377451915
10
176.25328500000001
20
93.499115622548089
10
174.80328500000002
20
93.499115622548089
10
174.80328500000002
20
94.310067000000004
10
176.45328500000232
20
94.310067000000004
10
176.45328500000295
20
94.960067000000009
42
-0.41421356237675
10
177.25328500002001
20
95.760067000007012
10
180.15328500001502
20
95.760067000007012
42
0.38898369055621806
10
181.35328500000003
20
96.860067000000001
10
181.35328499999997
20
97.035802931288003
42
-0.19891236737952667
10
181.44115296564399
20
97.247934965644006
10
182.11541703435603
20
97.922199034355955
42
-0.19891236737967982
10
182.32754906871202
20
98.010067000000006
10
185.07902093128803
20
98.010067000000035
42
-0.19891236737956197
10
185.29115296564402
20
97.922199034355998
10
185.96541703435599
20
97.247934965643964
42
-0.19891236737957918
10
186.05328500000002
20
97.035802931288003
0
LWPOLYLINE
5
166
100
AcDbEntity
8
0
100
AcDbPolyline
90
37
70
1
43
0.0
10
257.34112731222331
20
111.90993421318227
10
258.9660601046935
20
112.19645370633287
10
259.10688033356456
20
111.39782250250222
10
257.67890909169688
20
111.14603264488503
10
257.69247053598866
20
111.0691218724256
10
259.12044177785629
20
111.32091173004281
10
259.26126200672735
20
110.52228052621226
10
257.63632921425727
20
110.23576103306155
10
257.72762230065888
20
109.718012211896
42
-0.19891236737977502
10
257.67792558804194
20
109.49384482769055
10
257.13098983239502
20
108.71273961844724
42
-0.19891236737948095
10
256.93733867240837
20
108.5893702234489
10
255.09009938467241
20
108.26365209719619
42
0.28595477969229161
10
253.67290421571005
20
106.54139376473678
42
-0.32717070374705898
10
252.85370242119026
20
105.68614775739802
10
249.60383683625543
20
105.11310877109474
42
-0.41421356237674645
10
248.67707209169066
20
105.76203643137723
10
248.56420077620771
20
106.40216147083527
10
246.93926798373698
20
106.11564197768453
10
246.79844775486586
20
106.9142731815151
10
248.22641899673354
20
107.1660630391323
10
248.21285755244176
20
107.24297381159191
10
246.78488631057411
20
106.9911839539747
10
246.64406608170304
20
107.78981515780508
10
248.2689988741754
20
108.07633465095627
10
248.15612755869245
20
108.7164596904143
42
-0.4142135623767807
10
248.80505521898414
20
109.64322443496755
10
251.66099770271458
20
110.14680415020106
42
0.38898369055622045
10
252.65175401088189
20
111.4384704917054
10
252.62123778666307
20
111.61153659932063
42
-0.19891236737976464
10
252.67093449928001
20
111.83570398352609
10
253.21787025492699
20
112.61680919276938
42
-0.19891236737954052
10
253.41152141491361
20
112.74017858776773
10
256.12119223737329
20
113.21796666260624
42
-0.19891236737962315
10
256.34535962157872
20
113.16826994998928
10
257.12646483082199
20
112.6213341943423
42
-0.1989123673797403
10
257.24983422582039
20
112.42768303435571
0
LWPOLYLINE
5
167
100
AcDbEntity
8
0
100
AcDbPolyline
90
37
70
1
43
0.0
10
186.05328500000002
20
79.509846999996
10
187.70328500000002
20
79.509846999996
10
187.70328500000002
20
78.698895622544001
10
186.25328500000001
20
78.698895622543986
10
186.25328500000001
20
78.620798377447997
10
187.70328500000002
20
78.620798377447997
10
187.70328500000002
20
77.809846999995997
10
186.05328500000002
20
77.809846999995997
10
186.05328500000007
20
77.284111068711979
42
-0.19891236737954432
10
185.96541703435602
20
77.071979034356005
10
185.29115296564402
20
76.397714965644084
42
-0.19891236737966528
10
185.07902093128803
20
76.309847000000005
10
183.20328500000002
20
76.309847000000019
42
0.28595477969228184
10
181.50855318917098
20
74.859846999992996
42
-0.32717070374707818
10
180.55328500001505
20
74.159846999992993
10
177.25328500002001
20
74.159846999989995
42
-0.41421356237675
10
176.45328500000002
20
74.959846999999996
10
176.45328500000065
20
75.609847000000002
10
174.80328500000002
20
75.609847000000002
10
174.80328500000002
20
76.420798377451902
10
176.25328500000001
20
76.420798377451902
10
176.25328500000001
20
76.498895622548076
10
174.80328500000002
20
76.498895622548076
10
174.80328500000002
20
77.309846999999991
10
176.45328500000232
20
77.309846999999991
10
176.45328500000295
20
77.959846999999996
42
-0.41421356237673052
10
177.25328500002001
20
78.759847000006999
10
180.15328500001502
20
78.759847000006999
42
0.38898369055621806
10
181.35328500000003
20
79.859846999999988
10
181.35328499999997
20
80.035582931287991
42
-0.19891236737952667
10
181.44115296564399
20
80.247714965643993
10
182.11541703435603
20
80.921979034355957
42
-0.19891236737967982
10
182.32754906871202
20
81.009846999999993
10
185.07902093128803
20
81.009847000000036
42
-0.19891236737956197
10
185.29115296564402
20
80.921979034355985
10
185.96541703435599
20
80.247714965643965
42
-0.19891236737957918
10
186.05328500000002
20
80.035582931287991
0
LWPOLYLINE
5
168
100
AcDbEntity
8
0
100
AcDbPolyline
90
37
70
1
43
0.0
10
260.29318231222328
20
95.16798621322225
10
261.91811510469347
20
95.454505706372856
10
262.05893533356453
20
94.655874502542204
10
260.63096409169691
20
94.404084644925035
10
260.64452553598863
20
94.327173872465579
10
262.07249677785632
20
94.578963730082791
10
262.21331700672738
20
93.780332526252238
10
260.58838421425725
20
93.493813033101532
10
260.67967730065891
20
92.976064211935977
42
-0.19891236737977502
10
260.62998058804192
20
92.751896827730533
10
260.08304483239493
20
91.970791618487283
42
-0.19891236737955575
10
259.88939367240835
20
91.847422223488877
10
258.04215438467236
20
91.521704097236167
42
0.28595477969229161
10
256.62495921571002
20
89.799445764776763
42
-0.32717070374705493
10
255.80575742119024
20
88.944199757438
10
252.55589183625543
20
88.371160771134711
42
-0.41421356237672718
10
251.62912709169063
20
89.020088431417207
10
251.51625577620769
20
89.66021347087522
10
249.89132298373698
20
89.373693977724542
10
249.75050275486583
20
90.172325181555081
10
251.17847399673352
20
90.42411503917225
10
251.16491255244173
20
90.501025811631877
10
249.73694131057411
20
90.249235954014679
10
249.59612108170302
20
91.047867157845133
10
251.22105387417542
20
91.334386650996251
10
251.10818255869248
20
91.974511690454278
42
-0.41421356237681384
10
251.75711021898411
20
92.901276435007532
10
254.61305270271455
20
93.404856150241045
42
0.38898369055622045
10
255.60380901088189
20
94.696522491745384
10
255.57329278666305
20
94.869588599360611
42
-0.19891236737976464
10
255.62298949927998
20
95.093755983566069
10
256.16992525492697
20
95.874861192809362
42
-0.19891236737954052
10
256.36357641491361
20
95.998230587807711
10
259.07324723737332
20
96.476018662646226
42
-0.19891236737959289
10
259.2974146215787
20
96.426321950029262
10
260.07851983082202
20
95.879386194382306
42
-0.19891236737973395
10
260.20188922582037
20
95.685735034395691
0
LWPOLYLINE
5
169
100
AcDbEntity
8
0
100
AcDbPolyline
90
37
70
1
43
0.0
10
186.053245
20
62.424548999996006
10
187.70324500000001
20
62.424548999996006
10
187.70324500000001
20
61.613597622544006
10
186.25324500000002
20
61.613597622544006
10
186.25324500000002
20
61.535500377448002
10
187.70324500000001
20
61.535500377448002
10
187.70324500000001
20
60.724548999996003
10
186.053245
20
60.724548999996003
10
186.05324500000006
20
60.198813068711999
42
-0.19891236737960005
10
185.96537703435601
20
59.98668103435601
10
185.29111296564398
20
59.31241696564409
42
-0.1989123673798085
10
185.07898093128802
20
59.22454900000001
10
183.20324500000001
20
59.224549000000039
42
0.28595477969227839
10
181.50851318917103
20
57.774548999993002
42
-0.32717070374706947
10
180.55324500001504
20
57.074548999992999
10
177.25324500002003
20
57.074548999989993
42
-0.41421356237676954
10
176.45324500000001
20
57.874549000000009
10
176.45324500000066
20
58.524549000000007
10
174.803245
20
58.524549000000007
10
174.803245
20
59.335500377451915
10
176.25324500000002
20
59.335500377451922
10
176.25324500000002
20
59.413597622548089
10
174.803245
20
59.413597622548089
10
174.803245
20
60.224549000000003
10
176.45324500000237
20
60.224549000000003
10
176.45324500000299
20
60.874549000000009
42
-0.41421356237675327
10
177.25324500002003
20
61.674549000007005
10
180.153245000015
20
61.674549000007005
42
0.38898369055622023
10
181.35324500000002
20
62.774549000000007
10
181.35324499999993
20
62.950284931288003
42
-0.19891236737952214
10
181.44111296564401
20
63.162416965644006
10
182.1153770343561
20
63.836681034355976
42
-0.19891236737950588
10
182.327509068712
20
63.924549000000006
10
185.07898093128802
20
63.924549000000077
42
-0.19891236737955839
10
185.291112965644
20
63.836681034356005
10
185.96537703435598
20
63.162416965643985
42
-0.19891236737959453
10
186.053245
20
62.950284931288003
0
LWPOLYLINE
5
170
100
AcDbEntity
8
0
100
AcDbPolyline
90
37
70
1
43
0.0
10
204.05320500000002
20
59.704446999996001
10
205.70320500000003
20
59.704446999996001
10
205.70320500000003
20
58.893495622544009
10
204.25320500000001
20
58.893495622544009
10
204.25320500000001
20
58.815398377447998
10
205.70320500000003
20
58.815398377447998
10
205.70320500000003
20
58.004446999996006
10
204.05320500000002
20
58.004446999996006
10
204.05320500000005
20
57.478711068712002
42
-0.19891236737960005
10
203.96533703435603
20
57.266579034356006
10
203.29107296564399
20
56.592314965644086
42
-0.1989123673798085
10
203.078940931288
20
56.504447000000006
10
201.20320500000003
20
56.504447000000027
42
0.28595477969227839
10
199.50847318917101
20
55.054446999993004
42
-0.32717070374706947
10
198.55320500001505
20
54.354446999993002
10
195.25320500002005
20
54.354446999989989
42
-0.41421356237676954
10
194.45320500000003
20
55.154447000000005
10
194.45320500000065
20
55.804447000000003
10
192.80320500000002
20
55.804447000000003
10
192.80320500000002
20
56.615398377451911
10
194.25320500000001
20
56.615398377451911
10
194.25320500000001
20
56.693495622548085
10
192.80320500000002
20
56.693495622548085
10
192.80320500000002
20
57.504446999999999
10
194.45320500000236
20
57.504446999999999
10
194.45320500000298
20
58.154447000000005
42
-0.41421356237675327
10
195.25320500002005
20
58.954447000007008
10
198.15320500001502
20
58.954447000007008
42
0.38898369055622023
10
199.35320500000003
20
60.054446999999996
10
199.35320499999992
20
60.230182931287999
42
-0.19891236737952214
10
199.441072965644
20
60.442314965644002
10
200.11533703435612
20
61.116579034355979
42
-0.19891236737950588
10
200.32746906871199
20
61.204447000000002
10
203.078940931288
20
61.204447000000073
42
-0.19891236737955839
10
203.29107296564402
20
61.116579034356
10
203.96533703435597
20
60.442314965643988
42
-0.19891236737959453
10
204.05320500000002
20
60.230182931287999
0
LWPOLYLINE
5
171
100
AcDbEntity
8
0
100
AcDbPolyline
90
37
70
1
43
0.0
10
242.77295134074922
20
62.069661512569361
10
244.41893202367794
20
62.184759694247155
10
244.47550113214692
20
61.375783753592358
10
243.02903325927019
20
61.274636866663386
10
243.03448104769723
20
61.196729862531278
10
244.48094892057398
20
61.297876749460258
10
244.53751802904293
20
60.488900808805496
10
242.89153734611421
20
60.37380262712766
10
242.92821083080125
20
59.849347362148876
42
-0.19891236737979143
10
242.8553544897901
20
59.631602711328455
10
242.22976717826674
20
58.911946832193813
42
-0.19891236737969598
10
242.02428124632317
20
58.809495325812975
10
240.15311451348961
20
58.678650601571206
42
0.28595477969227762
10
238.56365787110437
20
57.113964213622062
42
-0.32717070374707591
10
237.65954619886639
20
56.349033238084701
10
234.36758483301418
20
56.118836874726448
42
-0.41421356237673285
10
233.51372841379035
20
56.861082935947621
10
233.46838670585731
20
57.509499568616548
10
231.82240602292794
20
57.394401386938711
10
231.76583691445899
20
58.203377327593422
10
233.21230478733571
20
58.304524214522395
10
233.20685699890871
20
58.382431218654659
10
231.76038912603192
20
58.281284331725693
10
231.70382001756298
20
59.090260272380476
10
233.34980070049403
20
59.20535845405837
10
233.30445899256102
20
59.853775086727303
42
-0.41421356237676249
10
234.04670505379005
20
60.707631505938629
10
236.93964079953855
20
60.909925279796219
42
0.38898369055621701
10
238.05998553871731
20
62.090953503566936
10
238.04772681984045
20
62.266261350958771
42
-0.19891236737968523
10
238.1205831608516
20
62.4840060017792
10
238.74617047237496
20
63.203661880913913
42
-0.19891236737960988
10
238.95165640431853
20
63.306113387294687
10
241.69642581972579
20
63.498046362034223
42
-0.19891236737978726
10
241.91417047054625
20
63.42519002102307
10
242.63382634968096
20
62.79960270949968
42
-0.1989123673797247
10
242.73627785606175
20
62.594116777556138
0
LWPOLYLINE
5
172
100
AcDbEntity
8
0
100
AcDbPolyline
90
37
70
1
43
0.0
10
194.45320500000065
20
72.804667000000009
10
192.80320500000002
20
72.804667000000009
10
192.80320500000002
20
73.615618377451909
10
194.25320500000001
20
73.615618377451909
10
194.25320500000001
20
73.693715622548098
10
192.80320500000002
20
73.693715622548098
10
192.80320500000002
20
74.504667000000012
10
194.45320500000236
20
74.504667000000012
10
194.45320500000298
20
75.154667000000018
42
-0.41421356237675327
10
195.25320500002005
20
75.954667000007007
10
198.15320500001502
20
75.954667000007007
42
0.38898369055622023
10
199.35320500000003
20
77.054667000000009
10
199.35320499999992
20
77.230402931288012
42
-0.19891236737952214
10
199.441072965644
20
77.442534965644001
10
200.11533703435612
20
78.116799034355978
42
-0.19891236737950588
10
200.32746906871199
20
78.204667000000001
10
203.078940931288
20
78.204667000000086
42
-0.19891236737955839
10
203.29107296564402
20
78.116799034356006
10
203.96533703435597
20
77.442534965643986
42
-0.19891236737959453
10
204.05320500000002
20
77.230402931288012
10
204.05320500000002
20
76.704666999996007
10
205.70320500000003
20
76.704666999996007
10
205.70320500000003
20
75.893715622544008
10
204.25320500000001
20
75.893715622544022
10
204.25320500000001
20
75.815618377448004
10
205.70320500000003
20
75.815618377448004
10
205.70320500000003
20
75.004666999996005
10
204.05320500000002
20
75.004666999996005
10
204.05320500000005
20
74.478931068712001
42
-0.19891236737960005
10
203.96533703435603
20
74.266799034356012
10
203.29107296564399
20
73.592534965644091
42
-0.1989123673798085
10
203.078940931288
20
73.504667000000012
10
201.20320500000003
20
73.50466700000004
42
0.28595477969227839
10
199.50847318917101
20
72.054666999993003
42
-0.32717070374706947
10
198.55320500001505
20
71.354666999993
10
195.25320500002005
20
71.354666999989988
42
-0.41421356237676954
10
194.45320500000003
20
72.154667000000018
0
LWPOLYLINE
5
173
100
AcDbEntity
8
0
100
AcDbPolyline
90
37
70
1
43
0.0
10
232.28251170585733
20
74.46830856861655
10
230.63653102292795
20
74.353210386938699
10
230.57996191445898
20
75.162186327593417
10
232.0264297873357
20
75.263333214522376
10
232.0209819989087
20
75.341240218654661
10
230.57451412603194
20
75.240093331725689
10
230.51794501756297
20
76.049069272380464
10
232.16392570049408
20
76.164167454058372
10
232.11858399256101
20
76.812584086727298
42
-0.4142135623767435
10
232.86083005379004
20
77.666440505938624
10
235.75376579953854
20
77.868734279796215
42
0.38898369055621701
10
236.8741105387173
20
79.049762503566939
10
236.86185181984047
20
79.225070350958774
42
-0.19891236737979143
10
236.93470816085159
20
79.442815001779195
10
237.56029547237495
20
80.162470880913872
42
-0.19891236737968998
10
237.76578140431852
20
80.264922387294675
10
240.51055081972578
20
80.456855362034162
42
-0.19891236737982271
10
240.72829547054624
20
80.383999021023058
10
241.44795134968092
20
79.75841170949974
42
-0.19891236737977838
10
241.55040285606174
20
79.552925777556126
10
241.58707634074921
20
79.028470512569356
10
243.2330570236779
20
79.143568694247151
10
243.28962613214691
20
78.334592753592347
10
241.84315825927018
20
78.233445866663388
10
241.84860604769722
20
78.155538862531287
10
243.29507392057397
20
78.256685749460246
10
243.35164302904292
20
77.447709808805484
10
241.7056623461142
20
77.332611627127662
10
241.74233583080127
20
76.808156362148878
42
-0.19891236737968523
10
241.66947948979012
20
76.590411711328443
10
241.04389217826679
20
75.870755832193765
42
-0.19891236737969287
10
240.83840624632316
20
75.768304325812977
10
238.9672395134896
20
75.637459601571194
42
0.28595477969227268
10
237.37778287110433
20
74.072773213622028
42
-0.32717070374708729
10
236.47367119886638
20
73.307842238084703
10
233.18170983301417
20
73.077645874726457
42
-0.41421356237675583
10
232.32785341379036
20
73.819891935947609
0
LWPOLYLINE
5
174
100
AcDbEntity
8
0
100
AcDbPolyline
90
37
70
1
43
0.0
10
222.05316500000004
20
85.268407999996015
10
223.70316500000001
20
85.268407999996015
10
223.70316500000001
20
84.457456622544015
10
222.25316500000002
20
84.457456622544015
10
222.25316500000002
20
84.379359377447997
10
223.70316500000001
20
84.379359377447997
10
223.70316500000001
20
83.568407999996012
10
222.05316500000004
20
83.568407999996012
10
222.05316500000006
20
83.042672068712008
42
-0.19891236737952667
10
221.96529703435601
20
82.830540034356005
10
221.29103296564404
20
82.156275965644085
42
-0.19891236737983931
10
221.07890093128802
20
82.068408000000005
10
219.20316500000001
20
82.068408000000034
42
0.2859547796922734
10
217.50843318917103
20
80.618407999993011
42
-0.3271707037470532
10
216.55316500001504
20
79.918407999993008
10
213.25316500002003
20
79.918407999989995
42
-0.41421356237676304
10
212.45316500000001
20
80.718408000000011
10
212.45316500000064
20
81.368408000000002
10
210.80316500000004
20
81.368408000000017
10
210.80316500000004
20
82.179359377451931
10
212.25316500000002
20
82.179359377451931
10
212.25316500000002
20
82.257456622548091
10
210.80316500000004
20
82.257456622548091
10
210.80316500000004
20
83.068408000000019
10
212.45316500000234
20
83.068408000000019
10
212.453165000003
20
83.718408000000011
42
-0.41421356237675655
10
213.25316500002003
20
84.518408000007014
10
216.15316500001501
20
84.518408000006986
42
0.38898369055622239
10
217.35316500000005
20
85.618408000000002
10
217.35316499999993
20
85.794143931288005
42
-0.19891236737952214
10
217.44103296564401
20
86.006275965644008
10
218.11529703435605
20
86.680540034355985
42
-0.19891236737944598
10
218.32742906871201
20
86.768408000000008
10
221.07890093128802
20
86.768408000000065
42
-0.19891236737971052
10
221.29103296564404
20
86.680540034356
10
221.96529703435598
20
86.006275965643965
42
-0.19891236737960549
10
222.05316500000004
20
85.794143931288005
0
LWPOLYLINE
5
175
100
AcDbEntity
8
0
100
AcDbPolyline
90
37
70
1
43
0.0
10
222.05316500000004
20
51.267967999996003
10
223.70316500000001
20
51.267967999996003
10
223.70316500000001
20
50.457016622544003
10
222.25316500000002
20
50.457016622544003
10
222.25316500000002
20
50.378919377448
10
223.70316500000001
20
50.378919377448
10
223.70316500000001
20
49.567967999996007
10
222.05316500000004
20
49.567967999996007
10
222.05316500000006
20
49.042232068712003
42
-0.19891236737957374
10
221.96529703435601
20
48.830100034356008
10
221.29103296564398
20
48.155835965644094
42
-0.19891236737977225
10
221.07890093128802
20
48.067968000000008
10
219.20316500000001
20
48.067968000000036
42
0.28595477969227928
10
217.50843318917103
20
46.617967999993006
42
-0.32717070374706708
10
216.55316500001504
20
45.917967999993003
10
213.25316500002003
20
45.917967999990012
42
-0.41421356237676304
10
212.45316500000001
20
46.717968000000013
10
212.45316500000064
20
47.367968000000005
10
210.80316500000004
20
47.367968000000005
10
210.80316500000004
20
48.178919377451912
10
212.25316500000002
20
48.178919377451912
10
212.25316500000002
20
48.257016622548086
10
210.80316500000004
20
48.257016622548086
10
210.80316500000004
20
49.067968000000008
10
212.45316500000234
20
49.067968000000008
10
212.453165000003
20
49.717968000000006
42
-0.41421356237675327
10
213.25316500002003
20
50.517968000007009
10
216.15316500001501
20
50.517968000007009
42
0.38898369055622023
10
217.35316500000005
20
51.617968000000005
10
217.35316499999988
20
51.793703931288
42
-0.19891236737949364
10
217.44103296564401
20
52.005835965644003
10
218.1152970343561
20
52.680100034355988
42
-0.1989123673794895
10
218.32742906871201
20
52.767968000000003
10
221.07890093128802
20
52.76796800000006
42
-0.1989123673795892
10
221.29103296564404
20
52.680100034356002
10
221.96529703435598
20
52.005835965643968
42
-0.19891236737960549
10
222.05316500000004
20
51.793703931288
0
LWPOLYLINE
5
176
100
AcDbEntity
8
0
100
AcDbPolyline
90
37
70
1
43
0.0
10
204.05320500000002
20
93.704886999996006
10
205.70320500000003
20
93.704886999996006
10
205.70320500000003
20
92.893935622544021
10
204.25320500000001
20
92.893935622544021
10
204.25320500000001
20
92.815838377448017
10
205.70320500000003
20
92.815838377448017
10
205.70320500000003
20
92.004886999996017
10
204.05320500000002
20
92.004886999996017
10
204.05320500000005
20
91.479151068712014
42
-0.19891236737952667
10
203.96533703435603
20
91.267019034356011
10
203.29107296564402
20
90.59275496564409
42
-0.19891236737983931
10
203.078940931288
20
90.504887000000011
10
201.20320500000003
20
90.504887000000053
42
0.28595477969226701
10
199.50847318917101
20
89.054886999993016
42
-0.3271707037470532
10
198.55320500001505
20
88.354886999993013
10
195.25320500002005
20
88.354886999990015
42
-0.41421356237676304
10
194.45320500000003
20
89.154887000000002
10
194.45320500000065
20
89.804887000000008
10
192.80320500000002
20
89.804887000000022
10
192.80320500000002
20
90.615838377451922
10
194.25320500000001
20
90.615838377451922
10
194.25320500000001
20
90.693935622548096
10
192.80320500000002
20
90.693935622548096
10
192.80320500000002
20
91.504887000000025
10
194.45320500000236
20
91.504887000000025
10
194.45320500000298
20
92.154887000000016
42
-0.41421356237675655
10
195.25320500002005
20
92.95488700000702
10
198.15320500001502
20
92.954887000007005
42
0.38898369055622239
10
199.35320500000003
20
94.054887000000008
10
199.35320499999992
20
94.230622931288011
42
-0.19891236737952214
10
199.441072965644
20
94.442754965644014
10
200.11533703435603
20
95.117019034355991
42
-0.19891236737944598
10
200.32746906871199
20
95.204887000000014
10
203.078940931288
20
95.20488700000007
42
-0.19891236737971052
10
203.29107296564402
20
95.117019034356005
10
203.96533703435597
20
94.442754965643985
42
-0.19891236737960549
10
204.05320500000002
20
94.230622931288011
0
LWPOLYLINE
5
177
100
AcDbEntity
8
0
100
AcDbPolyline
90
37
70
1
43
0.0
10
240.4012003407492
20
95.987278512569375
10
242.04718102367792
20
96.10237669424717
10
242.1037501321469
20
95.293400753592366
10
240.65728225927018
20
95.192253866663378
10
240.66273004769721
20
95.114346862531306
10
242.10919792057396
20
95.215493749460265
10
242.16576702904291
20
94.406517808805418
10
240.51978634611419
20
94.291419627127681
10
240.55645983080123
20
93.766964362148912
42
-0.19891236737971202
10
240.48360348979008
20
93.549219711328462
10
239.85801617826672
20
92.829563832193799
42
-0.19891236737967544
10
239.65253024632315
20
92.727112325812982
10
237.78136351348959
20
92.596267601571213
42
0.28595477969227434
10
236.19190687110432
20
91.031581213622047
42
-0.3271707037470874
10
235.28779519886638
20
90.266650238084708
10
231.99583383301416
20
90.036453874726476
42
-0.41421356237672641
10
231.14197741379033
20
90.778699935947628
10
231.0966357058573
20
91.427116568616569
10
229.45065502292792
20
91.312018386938718
10
229.39408591445897
20
92.120994327593436
10
230.84055378733569
20
92.222141214522409
10
230.83510599890869
20
92.300048218654666
10
229.38863812603191
20
92.198901331725693
10
229.33206901756296
20
93.007877272380469
10
230.97804970049401
20
93.122975454058391
10
230.93270799256101
20
93.771392086727317
42
-0.41421356237675927
10
231.67495405379003
20
94.625248505938643
10
234.56788979953853
20
94.827542279796234
42
0.38898369055621701
10
235.6882345387173
20
96.008570503566943
10
235.67597581984046
20
96.18387835095875
42
-0.19891236737973822
10
235.74883216085158
20
96.4016230017792
10
236.37441947237494
20
97.121278880913891
42
-0.19891236737983112
10
236.57990540431851
20
97.223730387294694
10
239.32467481972571
20
97.415663362034195
42
-0.19891236737963031
10
239.54241947054624
20
97.342807021023077
10
240.26207534968091
20
96.717219709499759
42
-0.19891236737961704
10
240.36452685606173
20
96.511733777556131
0
LWPOLYLINE
5
178
100
AcDbEntity
8
0
100
AcDbPolyline
90
37
70
1
43
0.0
10
222.05316500000004
20
68.268187999996002
10
223.70316500000001
20
68.268187999996002
10
223.70316500000001
20
67.457236622544002
10
222.25316500000002
20
67.457236622544002
10
222.25316500000002
20
67.379139377447984
10
223.70316500000001
20
67.379139377447999
10
223.70316500000001
20
66.568187999995999
10
222.05316500000004
20
66.568187999995999
10
222.05316500000006
20
66.042452068711995
42
-0.19891236737960005
10
221.96529703435601
20
65.830320034356006
10
221.29103296564398
20
65.156055965644086
42
-0.1989123673798085
10
221.07890093128802
20
65.068188000000006
10
219.20316500000001
20
65.068188000000035
42
0.28595477969227839
10
217.50843318917103
20
63.618187999992998
42
-0.32717070374706947
10
216.55316500001504
20
62.918187999992995
10
213.25316500002003
20
62.918187999989989
42
-0.41421356237676954
10
212.45316500000001
20
63.718188000000005
10
212.45316500000064
20
64.368188000000004
10
210.80316500000004
20
64.368188000000004
10
210.80316500000004
20
65.179139377451904
10
212.25316500000002
20
65.179139377451904
10
212.25316500000002
20
65.257236622548078
10
210.80316500000004
20
65.257236622548078
10
210.80316500000004
20
66.068188000000006
10
212.45316500000234
20
66.068188000000006
10
212.453165000003
20
66.718187999999998
42
-0.41421356237675327
10
213.25316500002003
20
67.518188000007001
10
216.15316500001501
20
67.518188000007001
42
0.38898369055622023
10
217.35316500000005
20
68.618188000000004
10
217.35316499999993
20
68.793923931287992
42
-0.19891236737952214
10
217.44103296564401
20
69.006055965644009
10
218.1152970343561
20
69.680320034355972
42
-0.19891236737950588
10
218.32742906871201
20
69.768188000000009
10
221.07890093128802
20
69.768188000000066
42
-0.19891236737955839
10
221.29103296564404
20
69.680320034356001
10
221.96529703435598
20
69.006055965643981
42
-0.19891236737959453
10
222.05316500000004
20
68.793923931287992
0
LWPOLYLINE
5
179
100
AcDbEntity
8
0
100
AcDbPolyline
90
37
70
1
43
0.0
10
209.07816500000001
20
114.41434799999601
10
210.72816500000002
20
114.41434799999601
10
210.72816500000002
20
113.60339662254403
10
209.27816500000003
20
113.60339662254403
10
209.27816500000003
20
113.52529937744802
10
210.72816500000002
20
113.52529937744802
10
210.72816500000002
20
112.71434799999602
10
209.07816500000001
20
112.71434799999602
10
209.07816500000007
20
112.18861206871202
42
-0.19891236737952667
10
208.99029703435602
20
111.97648003435602
10
208.31603296564401
20
111.30221596564409
42
-0.19891236737983931
10
208.10390093128802
20
111.21434800000002
10
206.22816500000002
20
111.21434800000006
42
0.28595477969226701
10
204.53343318917103
20
109.76434799999302
42
-0.3271707037470532
10
203.57816500001505
20
109.06434799999302
10
200.27816500002004
20
109.06434799999002
42
-0.41421356237676304
10
199.47816500000002
20
109.86434800000001
10
199.47816500000067
20
110.51434800000001
10
197.82816500000001
20
110.51434800000003
10
197.82816500000001
20
111.32529937745193
10
199.27816500000003
20
111.32529937745196
10
199.27816500000003
20
111.4033966225481
10
197.82816500000001
20
111.4033966225481
10
197.82816500000001
20
112.21434800000003
10
199.47816500000238
20
112.21434800000003
10
199.478165000003
20
112.86434800000002
42
-0.41421356237675655
10
200.27816500002004
20
113.66434800000702
10
203.17816500001501
20
113.66434800000701
42
0.38898369055622239
10
204.37816500000002
20
114.76434800000001
10
204.37816499999994
20
114.94008393128802
42
-0.19891236737952214
10
204.46603296564402
20
115.15221596564402
10
205.14029703435602
20
115.826480034356
42
-0.19891236737944598
10
205.35242906871201
20
115.91434800000002
10
208.10390093128802
20
115.91434800000007
42
-0.19891236737971052
10
208.31603296564401
20
115.82648003435601
10
208.99029703435599
20
115.15221596564399
42
-0.19891236737960549
10
209.07816500000001
20
114.94008393128802
0
LINE
5
180
100
AcDbEntity
8
0
100
AcDbLine
10
156.61795599999999
20
112.28009100000001
30
0
11
156.61795599999999
21
121.57578800000002
31
0
0
LINE
5
181
100
AcDbEntity
8
0
100
AcDbLine
10
156.61795599999999
20
121.57578800000002
30
0
11
151.28395800000004
21
124.65554200000001
31
0
0
SPLINE
5
182
100
AcDbEntity
8
0
100
AcDbSpline
70
0
71
3
72
8
73
4
74
0
42
0.000000001
43
0.0000000001
44
0.0000000001
40
0
40
0
40
0
40
0
40
1
40
1
40
1
40
1
10
151.28395800000001
20
124.655542
30
0
10
151.14284900000001
20
124.73668500000001
30
0
10
151.09345500000001
20
124.91659400000002
30
0
10
151.174598
20
125.057714
30
0
0
LINE
5
183
100
AcDbEntity
8
0
100
AcDbLine
10
151.174598
20
125.057714
30
0
11
159.63068100000001
21
139.70152300000001
31
0
0
SPLINE
5
184
100
AcDbEntity
8
0
100
AcDbSpline
70
0
71
3
72
8
73
4
74
0
42
0.000000001
43
0.0000000001
44
0.0000000001
40
0
40
0
40
0
40
0
40
1
40
1
40
1
40
1
10
159.63068100000001
20
139.70152300000001
30
0
10
159.71182400000001
20
139.84263200000001
30
0
10
159.89173400000001
20
139.89202599999999
30
0
10
160.03285299999999
20
139.81088299999999
30
0
0
SPLINE
5
185
100
AcDbEntity
8
0
100
AcDbSpline
70
0
71
3
72
8
73
4
74
0
42
0.000000001
43
0.0000000001
44
0.0000000001
40
0
40
0
40
0
40
0
40
1
40
1
40
1
40
1
10
160.03285299999999
20
139.81088299999999
30
0
10
161.01004399999999
20
139.24643599999999
30
0
10
164.629547
20
137.15799799999999
30
0
10
167.69518700000003
20
135.387047
30
0
0
SPLINE
5
186
100
AcDbEntity
8
0
100
AcDbSpline
70
0
71
3
72
8
73
4
74
0
42
0.000000001
43
0.0000000001
44
0.0000000001
40
0
40
0
40
0
40
0
40
1
40
1
40
1
40
1
10
167.69518700000003
20
135.387047
30
0
10
171.65335400000001
20
133.101043
30
0
10
175.61152100000001
20
130.81505000000001
30
0
10
184.423903
20
128.45496499999999
30
0
0
SPLINE
5
187
100
AcDbEntity
8
0
100
AcDbSpline
70
0
71
3
72
8
73
4
74
0
42
0.000000001
43
0.0000000001
44
0.0000000001
40
0
40
0
40
0
40
0
40
1
40
1
40
1
40
1
10
184.423903
20
128.45496499999999
30
0
10
193.23628500000001
20
126.094881
30
0
10
197.68482900000004
20
126.094881
30
0
10
202.12982100000002
20
126.094881
30
0
0
LINE
5
188
100
AcDbEntity
8
0
100
AcDbLine
10
202.12982100000002
20
126.094881
30
0
11
210.727014
21
126.094881
31
0
0
SPLINE
5
189
100
AcDbEntity
8
0
100
AcDbSpline
70
0
71
3
72
8
73
4
74
0
42
0.000000001
43
0.0000000001
44
0.0000000001
40
0
40
0
40
0
40
0
40
1
40
1
40
1
40
1
10
210.727014
20
126.094881
30
0
10
210.88929899999999
20
126.094881
30
0
10
211.02335600000004
20
125.960824
30
0
10
211.02335600000004
20
125.79854900000001
30
0
0
LINE
5
190
100
AcDbEntity
8
0
100
AcDbLine
10
211.02335600000004
20
125.79854900000001
30
0
11
211.02335600000004
21
124.59204400000002
31
0
0
LINE
5
191
100
AcDbEntity
8
0
100
AcDbLine
10
211.02335600000004
20
124.59204400000002
30
0
11
268.25448799999998
21
124.59204400000002
31
0
0
SPLINE
5
192
100
AcDbEntity
8
0
100
AcDbSpline
70
0
71
3
72
8
73
4
74
0
42
0.000000001
43
0.0000000001
44
0.0000000001
40
0
40
0
40
0
40
0
40
1
40
1
40
1
40
1
10
268.25448799999998
20
124.59204400000002
30
0
10
268.80835200000001
20
124.59204400000002
30
0
10
269.25285500000001
20
124.14402100000001
30
0
10
269.25285500000001
20
123.593688
30
0
0
LINE
5
193
100
AcDbEntity
8
0
100
AcDbLine
10
269.25285500000001
20
123.593688
30
0
11
269.25285500000001
21
118.04802100000002
31
0
0
LINE
5
194
100
AcDbEntity
8
0
100
AcDbLine
10
269.25285500000001
20
118.04802100000002
30
0
11
276.012068
21
119.24041200000002
31
0
0
SPLINE
5
195
100
AcDbEntity
8
0
100
AcDbSpline
70
0
71
3
72
8
73
4
74
0
42
0.000000001
43
0.0000000001
44
0.0000000001
40
0
40
0
40
0
40
0
40
1
40
1
40
1
40
1
10
276.012068
20
119.24041200000002
30
0
10
276.17435399999999
20
119.26862900000002
30
0
10
276.32604600000002
20
119.1628
30
0
10
276.35425199999997
20
119.00052500000001
30
0
0
LINE
5
196
100
AcDbEntity
8
0
100
AcDbLine
10
276.35425199999997
20
119.00052500000001
30
0
11
279.28936599999997
21
102.34941000000001
31
0
0
SPLINE
5
197
100
AcDbEntity
8
0
100
AcDbSpline
70
0
71
3
72
8
73
4
74
0
42
0.000000001
43
0.0000000001
44
0.0000000001
40
0
40
0
40
0
40
0
40
0.99305409543401213
40
0.99305409543401213
40
0.99305409543401213
40
0.99305409543401213
10
279.28936599999997
20
102.34941000000001
30
0
10
279.31739793100587
20
102.18826214666345
30
0
10
279.2132286886096
20
102.03753993917314
30
0
10
279.05285345110354
20
102.00782081289375
30
0
0
LINE
5
198
100
AcDbEntity
8
0
100
AcDbLine
10
279.0528534511036
20
102.00782081289375
30
0
11
279.05206515154117
21
102.00643976971787
31
0
0
LINE
5
199
100
AcDbEntity
8
0
100
AcDbLine
10
279.05206515154117
20
102.00643976971787
30
0
11
269.25987500000008
21
100.27861700000001
31
0
0
LINE
5
200
100
AcDbEntity
8
0
100
AcDbLine
10
269.25987500000008
20
100.27861700000001
30
0
11
269.25987500000008
21
50.653362000000008
31
0
0
SPLINE
5
201
100
AcDbEntity
8
0
100
AcDbSpline
70
0
71
3
72
8
73
4
74
0
42
0.000000001
43
0.0000000001
44
0.0000000001
40
0
40
0
40
0
40
0
40
1
40
1
40
1
40
1
10
269.25987500000008
20
50.653362000000008
30
0
10
269.25987500000008
20
50.099498000000004
30
0
10
268.81184000000007
20
49.655000000000001
30
0
10
268.26150799999999
20
49.655000000000001
30
0
0
LINE
5
202
100
AcDbEntity
8
0
100
AcDbLine
10
268.26150799999999
20
49.654999999999994
30
0
11
224.00200000000001
21
49.655000000000001
31
0
0
LINE
5
203
100
AcDbEntity
8
0
100
AcDbLine
10
224.00200000000001
20
49.655000000000001
30
0
11
224.00200000000001
21
45.795611000000001
31
0
0
SPLINE
5
204
100
AcDbEntity
8
0
100
AcDbSpline
70
0
71
3
72
8
73
4
74
0
42
0.000000001
43
0.0000000001
44
0.0000000001
40
0
40
0
40
0
40
0
40
1
40
1
40
1
40
1
10
224.00200000000001
20
45.795611000000001
30
0
10
224.00200000000001
20
45.633330000000001
30
0
10
223.86794300000003
20
45.499277999999997
30
0
10
223.705657
20
45.499277999999997
30
0
0
LINE
5
205
100
AcDbEntity
8
0
100
AcDbLine
10
223.705657
20
45.499277999999997
30
0
11
205.79865400000003
21
45.499277999999997
31
0
0
SPLINE
5
206
100
AcDbEntity
8
0
100
AcDbSpline
70
0
71
3
72
8
73
4
74
0
42
0.000000001
43
0.0000000001
44
0.0000000001
40
0
40
0
40
0
40
0
40
1
40
1
40
1
40
1
10
205.79865400000003
20
45.499277999999997
30
0
10
205.636368
20
45.499277999999997
30
0
10
205.50231100000002
20
45.633336
30
0
10
205.50231100000002
20
45.795611000000001
30
0
0
LINE
5
207
100
AcDbEntity
8
0
100
AcDbLine
10
205.50231100000002
20
45.795611000000001
30
0
11
205.50231100000002
21
49.655000000000001
31
0
0
LINE
5
208
100
AcDbEntity
8
0
100
AcDbLine
10
205.50231100000002
20
49.655000000000001
30
0
11
157.62331
21
49.655000000000001
31
0
0
SPLINE
5
209
100
AcDbEntity
8
0
100
AcDbSpline
70
0
71
3
72
8
73
4
74
0
42
0.000000001
43
0.0000000001
44
0.0000000001
40
0
40
0
40
0
40
0
40
1
40
1
40
1
40
1
10
157.62331
20
49.655000000000001
30
0
10
157.06944700000003
20
49.655000000000001
30
0
10
156.624954
20
50.103030000000004
30
0
10
156.624954
20
50.653362000000008
30
0
0
LINE
5
210
100
AcDbEntity
8
0
100
AcDbLine
10
156.624954
20
50.653362000000008
30
0
11
156.624954
21
63.884348000000003
31
0
0
LINE
5
211
100
AcDbEntity
8
0
100
AcDbLine
10
156.625
20
69.884
30
0
11
156.624954
21
63.884348000000003
31
0
0
LINE
5
212
100
AcDbEntity
8
0
100
AcDbLine
10
156.625
20
106.28434800000001
30
0
11
156.625
21
69.884
31
0
0
LINE
5
213
100
AcDbEntity
8
0
100
AcDbLine
10
156.61795599999999
20
112.28009100000001
30
0
11
156.625
21
106.28434800000001
31
0
0
ENDSEC
0
SECTION
2
OBJECTS
0
DICTIONARY
5
C
100
AcDbDictionary
3
ACAD_GROUP
350
D
3
ACAD_MLINESTYLE
350
17
0
DICTIONARY
5
D
100
AcDbDictionary
0
DICTIONARY
5
1A
330
C
100
AcDbDictionary
0
DICTIONARY
5
17
100
AcDbDictionary
0
ENDSEC
0
EOF
