999
"DXF R12 Output" (www.mydxf.blogspot.com)
 0 
SECTION
 2 
HEADER
 9 
$ACADVER
 1 
AC1009
 9 
$EXTMIN
 10 
 0 
 20 
 0 
 9 
$EXTMAX
 10 
 8.5 
 20 
 11 
 0 
ENDSEC
 0 
SECTION
 2 
ENTITIES
0
LINE
8
Layer 1
10
0.793749
20
101.754000
11
-0.793749
21
100.166000
0
LINE
8
Layer 1
10
0.000000
20
102.283000
11
0.000000
21
99.637100
0
LINE
8
Layer 1
10
2.116660
20
99.901700
11
1.058330
21
98.843370
0
LINE
8
Layer 1
10
1.587500
20
100.431000
11
0.529170
21
99.372670
0
LINE
8
Layer 1
10
1.058330
20
100.960000
11
0.000000
21
99.901670
0
LINE
8
BLACK
10
144.634000
20
8.472250
11
152.323050
21
12.911950
0
LINE
8
BLACK
10
152.400000
20
12.952800
11
152.322623
21
12.912530
0
LINE
8
BLACK
10
132.403000
20
0.134583
11
132.976529
21
0.315399
0
LINE
8
BLACK
10
117.851000
20
13.652600
11
117.712274
21
14.332435
0
LINE
8
BLACK
10
117.712274
20
14.332435
11
117.336962
21
14.887332
0
LINE
8
BLACK
10
117.336962
20
14.887332
11
116.781170
21
15.261317
0
LINE
8
BLACK
10
116.781170
20
15.261317
11
116.101005
21
15.398417
0
LINE
8
BLACK
10
116.101005
20
15.398417
11
115.420840
21
15.261317
0
LINE
8
BLACK
10
115.420840
20
15.261317
11
114.865048
21
14.887332
0
LINE
8
BLACK
10
114.865048
20
14.887332
11
114.489736
21
14.332435
0
LINE
8
BLACK
10
114.489736
20
14.332435
11
114.351010
21
13.652600
0
LINE
8
BLACK
10
114.351010
20
13.652600
11
114.489736
21
12.972765
0
LINE
8
BLACK
10
114.489736
20
12.972765
11
114.865048
21
12.417868
0
LINE
8
BLACK
10
114.865048
20
12.417868
11
115.420840
21
12.043883
0
LINE
8
BLACK
10
115.420840
20
12.043883
11
116.101005
21
11.906783
0
LINE
8
BLACK
10
116.101005
20
11.906783
11
116.781170
21
12.043883
0
LINE
8
BLACK
10
116.781170
20
12.043883
11
117.336962
21
12.417868
0
LINE
8
BLACK
10
117.336962
20
12.417868
11
117.712274
21
12.972765
0
LINE
8
BLACK
10
117.712274
20
12.972765
11
117.851000
21
13.652600
0
LINE
8
BLACK
10
117.851000
20
13.652600
11
117.851000
21
13.652600
0
LINE
8
BLACK
10
79.879300
20
12.912000
11
79.801920
21
12.952269
0
LINE
8
BLACK
10
63.218000
20
19.814900
11
49.266000
21
23.553460
0
LINE
8
BLACK
10
8.384770
20
87.777100
11
7.994405
21
87.755977
0
LINE
8
BLACK
10
7.994405
20
87.755977
11
7.641967
21
87.586807
0
LINE
8
BLACK
10
7.641967
20
87.586807
11
7.381317
21
87.295443
0
LINE
8
BLACK
10
7.381317
20
87.295443
11
7.252290
21
86.926413
0
LINE
8
BLACK
10
99.226200
20
0.315161
11
87.642200
21
8.427271
0
LINE
8
BLACK
10
182.960000
20
23.560500
11
182.935658
21
23.554415
0
LINE
8
BLACK
10
71.724700
20
16.719800
11
71.644105
21
16.753190
0
LINE
8
BLACK
10
49.242200
20
23.561400
11
0.897856
21
35.221600
0
LINE
8
BLACK
10
168.985000
20
19.814900
11
182.936500
21
23.553460
0
LINE
8
BLACK
10
160.470000
20
34.782500
11
160.235544
21
35.657500
0
LINE
8
BLACK
10
160.235544
20
35.657500
11
159.595000
21
36.298044
0
LINE
8
BLACK
10
159.595000
20
36.298044
11
158.720000
21
36.532500
0
LINE
8
BLACK
10
158.720000
20
36.532500
11
157.845000
21
36.298044
0
LINE
8
BLACK
10
157.845000
20
36.298044
11
157.204456
21
35.657500
0
LINE
8
BLACK
10
157.204456
20
35.657500
11
156.970000
21
34.782500
0
LINE
8
BLACK
10
156.970000
20
34.782500
11
157.204456
21
33.907500
0
LINE
8
BLACK
10
157.204456
20
33.907500
11
157.845000
21
33.266956
0
LINE
8
BLACK
10
157.845000
20
33.266956
11
158.720000
21
33.032500
0
LINE
8
BLACK
10
158.720000
20
33.032500
11
159.595000
21
33.266956
0
LINE
8
BLACK
10
159.595000
20
33.266956
11
160.235544
21
33.907500
0
LINE
8
BLACK
10
160.235544
20
33.907500
11
160.470000
21
34.782500
0
LINE
8
BLACK
10
160.470000
20
34.782500
11
160.470000
21
34.782500
0
LINE
8
BLACK
10
202.913000
20
85.716500
11
203.318844
21
85.104383
0
LINE
8
BLACK
10
203.318844
20
85.104383
11
204.033380
21
84.934578
0
LINE
8
BLACK
10
55.610900
20
100.794000
11
55.221561
21
100.819528
0
LINE
8
BLACK
10
55.221561
20
100.819528
11
54.852089
21
100.694118
0
LINE
8
BLACK
10
54.852089
20
100.694118
11
54.558735
21
100.436863
0
LINE
8
BLACK
10
54.558735
20
100.436863
11
54.386160
21
100.086928
0
LINE
8
BLACK
10
79.802100
20
12.951600
11
71.724100
21
16.719300
0
LINE
8
BLACK
10
223.817000
20
87.778400
11
204.031500
21
84.934130
0
LINE
8
BLACK
10
160.558000
20
16.753700
11
168.900830
21
19.788470
0
LINE
8
BLACK
10
87.641900
20
8.426080
11
87.568325
21
8.472938
0
LINE
8
BLACK
10
30.243100
20
79.562400
11
30.104374
21
80.242235
0
LINE
8
BLACK
10
30.104374
20
80.242235
11
29.729062
21
80.797132
0
LINE
8
BLACK
10
29.729062
20
80.797132
11
29.173270
21
81.171117
0
LINE
8
BLACK
10
29.173270
20
81.171117
11
28.493105
21
81.308217
0
LINE
8
BLACK
10
28.493105
20
81.308217
11
27.812940
21
81.171117
0
LINE
8
BLACK
10
27.812940
20
81.171117
11
27.257148
21
80.797132
0
LINE
8
BLACK
10
27.257148
20
80.797132
11
26.881836
21
80.242235
0
LINE
8
BLACK
10
26.881836
20
80.242235
11
26.743110
21
79.562400
0
LINE
8
BLACK
10
26.743110
20
79.562400
11
26.881836
21
78.882565
0
LINE
8
BLACK
10
26.881836
20
78.882565
11
27.257148
21
78.327668
0
LINE
8
BLACK
10
27.257148
20
78.327668
11
27.812940
21
77.953683
0
LINE
8
BLACK
10
27.812940
20
77.953683
11
28.493105
21
77.816583
0
LINE
8
BLACK
10
28.493105
20
77.816583
11
29.173270
21
77.953683
0
LINE
8
BLACK
10
29.173270
20
77.953683
11
29.729062
21
78.327668
0
LINE
8
BLACK
10
29.729062
20
78.327668
11
30.104374
21
78.882565
0
LINE
8
BLACK
10
30.104374
20
78.882565
11
30.243100
21
79.562400
0
LINE
8
BLACK
10
30.243100
20
79.562400
11
30.243100
21
79.562400
0
LINE
8
BLACK
10
90.698100
20
84.920900
11
106.991900
21
80.555280
0
LINE
8
BLACK
10
158.373000
20
91.512100
11
158.722937
21
91.684654
0
LINE
8
BLACK
10
158.722937
20
91.684654
11
158.980202
21
91.977989
0
LINE
8
BLACK
10
158.980202
20
91.977989
11
159.105628
21
92.347447
0
LINE
8
BLACK
10
159.105628
20
92.347447
11
159.080119
21
92.736780
0
LINE
8
BLACK
10
158.373000
20
91.511600
11
142.918200
21
87.370880
0
LINE
8
BLACK
10
176.592000
20
100.793000
11
159.205200
21
96.133690
0
LINE
8
BLACK
10
116.101000
20
0.132598
11
132.403000
21
0.135244
0
LINE
8
BLACK
10
63.301100
20
19.789400
11
63.217899
21
19.815594
0
LINE
8
BLACK
10
89.991100
20
86.146200
11
89.965575
21
85.756842
0
LINE
8
BLACK
10
89.965575
20
85.756842
11
90.090998
21
85.387354
0
LINE
8
BLACK
10
90.090998
20
85.387354
11
90.348273
21
85.093993
0
LINE
8
BLACK
10
90.348273
20
85.093993
11
90.698230
21
84.921420
0
LINE
8
BLACK
10
116.101000
20
0.132598
11
99.799000
21
0.135244
0
LINE
8
BLACK
10
177.816000
20
100.086000
11
177.639360
21
100.441638
0
LINE
8
BLACK
10
177.639360
20
100.441638
11
177.350099
21
100.693203
0
LINE
8
BLACK
10
177.350099
20
100.693203
11
176.987613
21
100.817948
0
LINE
8
BLACK
10
176.987613
20
100.817948
11
176.591300
21
100.793125
0
LINE
8
BLACK
10
75.232100
20
34.782500
11
74.997644
21
35.657500
0
LINE
8
BLACK
10
74.997644
20
35.657500
11
74.357100
21
36.298044
0
LINE
8
BLACK
10
74.357100
20
36.298044
11
73.482100
21
36.532500
0
LINE
8
BLACK
10
73.482100
20
36.532500
11
72.607100
21
36.298044
0
LINE
8
BLACK
10
72.607100
20
36.298044
11
71.966556
21
35.657500
0
LINE
8
BLACK
10
71.966556
20
35.657500
11
71.732100
21
34.782500
0
LINE
8
BLACK
10
71.732100
20
34.782500
11
71.966556
21
33.907500
0
LINE
8
BLACK
10
71.966556
20
33.907500
11
72.607100
21
33.266956
0
LINE
8
BLACK
10
72.607100
20
33.266956
11
73.482100
21
33.032500
0
LINE
8
BLACK
10
73.482100
20
33.032500
11
74.357100
21
33.266956
0
LINE
8
BLACK
10
74.357100
20
33.266956
11
74.997644
21
33.907500
0
LINE
8
BLACK
10
74.997644
20
33.907500
11
75.232100
21
34.782500
0
LINE
8
BLACK
10
75.232100
20
34.782500
11
75.232100
21
34.782500
0
LINE
8
BLACK
10
52.691000
20
93.760600
11
54.386180
21
100.086780
0
LINE
8
BLACK
10
106.992000
20
80.555600
11
107.250760
21
80.521548
0
LINE
8
BLACK
10
149.327000
20
69.984300
11
149.188274
21
70.664135
0
LINE
8
BLACK
10
149.188274
20
70.664135
11
148.812962
21
71.219032
0
LINE
8
BLACK
10
148.812962
20
71.219032
11
148.257170
21
71.593017
0
LINE
8
BLACK
10
148.257170
20
71.593017
11
147.577005
21
71.730117
0
LINE
8
BLACK
10
147.577005
20
71.730117
11
146.896840
21
71.593017
0
LINE
8
BLACK
10
146.896840
20
71.593017
11
146.341048
21
71.219032
0
LINE
8
BLACK
10
146.341048
20
71.219032
11
145.965736
21
70.664135
0
LINE
8
BLACK
10
145.965736
20
70.664135
11
145.827010
21
69.984300
0
LINE
8
BLACK
10
145.827010
20
69.984300
11
145.965736
21
69.304465
0
LINE
8
BLACK
10
145.965736
20
69.304465
11
146.341048
21
68.749568
0
LINE
8
BLACK
10
146.341048
20
68.749568
11
146.896840
21
68.375583
0
LINE
8
BLACK
10
146.896840
20
68.375583
11
147.577005
21
68.238483
0
LINE
8
BLACK
10
147.577005
20
68.238483
11
148.257170
21
68.375583
0
LINE
8
BLACK
10
148.257170
20
68.375583
11
148.812962
21
68.749568
0
LINE
8
BLACK
10
148.812962
20
68.749568
11
149.188274
21
69.304465
0
LINE
8
BLACK
10
149.188274
20
69.304465
11
149.327000
21
69.984300
0
LINE
8
BLACK
10
149.327000
20
69.984300
11
149.327000
21
69.984300
0
LINE
8
BLACK
10
212.121000
20
50.546500
11
211.886540
21
51.421500
0
LINE
8
BLACK
10
211.886540
20
51.421500
11
211.245995
21
52.062044
0
LINE
8
BLACK
10
211.245995
20
52.062044
11
210.370995
21
52.296500
0
LINE
8
BLACK
10
210.370995
20
52.296500
11
209.495995
21
52.062044
0
LINE
8
BLACK
10
209.495995
20
52.062044
11
208.855451
21
51.421500
0
LINE
8
BLACK
10
208.855451
20
51.421500
11
208.620995
21
50.546500
0
LINE
8
BLACK
10
208.620995
20
50.546500
11
208.855453
21
49.671500
0
LINE
8
BLACK
10
208.855453
20
49.671500
11
209.495997
21
49.030956
0
LINE
8
BLACK
10
209.495997
20
49.030956
11
210.370997
21
48.796500
0
LINE
8
BLACK
10
210.370997
20
48.796500
11
211.245997
21
49.030956
0
LINE
8
BLACK
10
211.245997
20
49.030956
11
211.886542
21
49.671500
0
LINE
8
BLACK
10
211.886542
20
49.671500
11
212.120997
21
50.546500
0
LINE
8
BLACK
10
212.120997
20
50.546500
11
212.121000
21
50.546500
0
LINE
8
BLACK
10
231.304000
20
35.222400
11
231.896381
21
35.632142
0
LINE
8
BLACK
10
231.896381
20
35.632142
11
232.059755
21
36.333650
0
LINE
8
BLACK
10
159.205000
20
96.134900
11
158.849353
21
95.958230
0
LINE
8
BLACK
10
158.849353
20
95.958230
11
158.597791
21
95.668937
0
LINE
8
BLACK
10
158.597791
20
95.668937
11
158.473061
21
95.306423
0
LINE
8
BLACK
10
158.473061
20
95.306423
11
158.497910
21
94.910090
0
LINE
8
BLACK
10
32.725500
20
97.063300
11
32.335013
21
97.068907
0
LINE
8
BLACK
10
32.335013
20
97.068907
11
31.972155
21
96.924525
0
LINE
8
BLACK
10
31.972155
20
96.924525
11
31.692269
21
96.652173
0
LINE
8
BLACK
10
31.692269
20
96.652173
11
31.538040
21
96.293390
0
LINE
8
BLACK
10
168.984000
20
19.815600
11
168.900805
21
19.789406
0
LINE
8
BLACK
10
55.611200
20
100.793000
11
72.996900
21
96.133690
0
LINE
8
BLACK
10
179.511000
20
93.760000
11
179.955001
21
93.165813
0
LINE
8
BLACK
10
179.955001
20
93.165813
11
180.686170
21
93.040969
0
LINE
8
BLACK
10
124.951000
20
80.520900
11
116.101000
21
80.520900
0
LINE
8
BLACK
10
89.991200
20
86.145900
11
89.991200
21
86.145900
0
LINE
8
BLACK
10
99.225500
20
0.315399
11
99.799026
21
0.134557
0
LINE
8
BLACK
10
224.950000
20
86.926400
11
224.820974
21
87.295432
0
LINE
8
BLACK
10
224.820974
20
87.295432
11
224.560321
21
87.586794
0
LINE
8
BLACK
10
224.560321
20
87.586794
11
224.207877
21
87.755955
0
LINE
8
BLACK
10
224.207877
20
87.755955
11
223.817510
21
87.777061
0
LINE
8
BLACK
10
179.510000
20
93.760600
11
177.816670
21
100.086780
0
LINE
8
BLACK
10
200.664000
20
96.293400
11
200.509777
21
96.652176
0
LINE
8
BLACK
10
200.509777
20
96.652176
11
200.229903
21
96.924529
0
LINE
8
BLACK
10
200.229903
20
96.924529
11
199.867059
21
97.068922
0
LINE
8
BLACK
10
199.867059
20
97.068922
11
199.476580
21
97.063337
0
LINE
8
BLACK
10
71.644200
20
16.753700
11
63.301100
21
19.788500
0
LINE
8
BLACK
10
182.960000
20
23.561400
11
231.304600
21
35.221600
0
LINE
8
BLACK
10
232.059000
20
36.335500
11
224.949650
21
86.926400
0
LINE
8
BLACK
10
142.918000
20
87.370900
11
142.562359
21
87.194252
0
LINE
8
BLACK
10
142.562359
20
87.194252
11
142.310794
21
86.904982
0
LINE
8
BLACK
10
142.310794
20
86.904982
11
142.186051
21
86.542489
0
LINE
8
BLACK
10
142.186051
20
86.542489
11
142.210878
21
86.146170
0
LINE
8
BLACK
10
0.141943
20
36.335500
11
7.252343
21
86.926400
0
LINE
8
BLACK
10
199.478000
20
97.062600
11
180.687300
21
93.040940
0
LINE
8
BLACK
10
8.385290
20
87.778400
11
28.169190
21
84.934130
0
LINE
8
BLACK
10
144.634000
20
8.472940
11
144.560425
21
8.426082
0
LINE
8
BLACK
10
32.725100
20
97.062600
11
51.516000
21
93.040940
0
LINE
8
BLACK
10
87.568100
20
8.472250
11
79.879050
21
12.911950
0
LINE
8
BLACK
10
158.498000
20
94.908900
11
159.079818
21
92.736670
0
LINE
8
BLACK
10
89.991000
20
86.146200
11
90.016518
21
86.535563
0
LINE
8
BLACK
10
90.016518
20
86.535563
11
89.891088
21
86.905052
0
LINE
8
BLACK
10
89.891088
20
86.905052
11
89.633805
21
87.198412
0
LINE
8
BLACK
10
89.633805
20
87.198412
11
89.283841
21
87.370980
0
LINE
8
BLACK
10
124.951000
20
80.521500
11
125.209754
21
80.555605
0
LINE
8
BLACK
10
107.251000
20
80.520900
11
116.101000
21
80.520900
0
LINE
8
BLACK
10
49.266400
20
23.554300
11
49.242085
21
23.560385
0
LINE
8
BLACK
10
205.459000
20
79.562400
11
205.224540
21
80.437400
0
LINE
8
BLACK
10
205.224540
20
80.437400
11
204.583995
21
81.077944
0
LINE
8
BLACK
10
204.583995
20
81.077944
11
203.708995
21
81.312400
0
LINE
8
BLACK
10
203.708995
20
81.312400
11
202.833995
21
81.077944
0
LINE
8
BLACK
10
202.833995
20
81.077944
11
202.193451
21
80.437400
0
LINE
8
BLACK
10
202.193451
20
80.437400
11
201.958995
21
79.562400
0
LINE
8
BLACK
10
201.958995
20
79.562400
11
202.193453
21
78.687400
0
LINE
8
BLACK
10
202.193453
20
78.687400
11
202.833998
21
78.046856
0
LINE
8
BLACK
10
202.833998
20
78.046856
11
203.708998
21
77.812400
0
LINE
8
BLACK
10
203.708998
20
77.812400
11
204.583998
21
78.046856
0
LINE
8
BLACK
10
204.583998
20
78.046856
11
205.224542
21
78.687400
0
LINE
8
BLACK
10
205.224542
20
78.687400
11
205.458998
21
79.562400
0
LINE
8
BLACK
10
205.458998
20
79.562400
11
205.459000
21
79.562400
0
LINE
8
BLACK
10
141.504000
20
84.921400
11
141.859636
21
85.098059
0
LINE
8
BLACK
10
141.859636
20
85.098059
11
142.111195
21
85.387335
0
LINE
8
BLACK
10
142.111195
20
85.387335
11
142.235933
21
85.749831
0
LINE
8
BLACK
10
142.235933
20
85.749831
11
142.211103
21
86.146150
0
LINE
8
BLACK
10
0.141993
20
36.333700
11
0.305370
21
35.632184
0
LINE
8
BLACK
10
0.305370
20
35.632184
11
0.897748
21
35.222420
0
LINE
8
BLACK
10
132.977000
20
0.315161
11
144.560200
21
8.427271
0
LINE
8
BLACK
10
160.558000
20
16.753200
11
160.477408
21
16.719836
0
LINE
8
BLACK
10
152.400000
20
12.951600
11
160.477980
21
16.719260
0
LINE
8
BLACK
10
86.375100
20
69.984300
11
86.236374
21
70.664135
0
LINE
8
BLACK
10
86.236374
20
70.664135
11
85.861062
21
71.219032
0
LINE
8
BLACK
10
85.861062
20
71.219032
11
85.305270
21
71.593017
0
LINE
8
BLACK
10
85.305270
20
71.593017
11
84.625105
21
71.730117
0
LINE
8
BLACK
10
84.625105
20
71.730117
11
83.944940
21
71.593017
0
LINE
8
BLACK
10
83.944940
20
71.593017
11
83.389148
21
71.219032
0
LINE
8
BLACK
10
83.389148
20
71.219032
11
83.013836
21
70.664135
0
LINE
8
BLACK
10
83.013836
20
70.664135
11
82.875110
21
69.984300
0
LINE
8
BLACK
10
82.875110
20
69.984300
11
83.013836
21
69.304465
0
LINE
8
BLACK
10
83.013836
20
69.304465
11
83.389148
21
68.749568
0
LINE
8
BLACK
10
83.389148
20
68.749568
11
83.944940
21
68.375583
0
LINE
8
BLACK
10
83.944940
20
68.375583
11
84.625105
21
68.238483
0
LINE
8
BLACK
10
84.625105
20
68.238483
11
85.305270
21
68.375583
0
LINE
8
BLACK
10
85.305270
20
68.375583
11
85.861062
21
68.749568
0
LINE
8
BLACK
10
85.861062
20
68.749568
11
86.236374
21
69.304465
0
LINE
8
BLACK
10
86.236374
20
69.304465
11
86.375100
21
69.984300
0
LINE
8
BLACK
10
86.375100
20
69.984300
11
86.375100
21
69.984300
0
LINE
8
BLACK
10
141.504000
20
84.920900
11
125.210200
21
80.555280
0
LINE
8
BLACK
10
51.515800
20
93.040900
11
52.247019
21
93.165719
0
LINE
8
BLACK
10
52.247019
20
93.165719
11
52.691060
21
93.759931
0
LINE
8
BLACK
10
73.705000
20
94.908900
11
73.122124
21
92.736670
0
LINE
8
BLACK
10
23.581200
20
50.546500
11
23.346744
21
51.421500
0
LINE
8
BLACK
10
23.346744
20
51.421500
11
22.706200
21
52.062044
0
LINE
8
BLACK
10
22.706200
20
52.062044
11
21.831200
21
52.296500
0
LINE
8
BLACK
10
21.831200
20
52.296500
11
20.956200
21
52.062044
0
LINE
8
BLACK
10
20.956200
20
52.062044
11
20.315656
21
51.421500
0
LINE
8
BLACK
10
20.315656
20
51.421500
11
20.081200
21
50.546500
0
LINE
8
BLACK
10
20.081200
20
50.546500
11
20.315656
21
49.671500
0
LINE
8
BLACK
10
20.315656
20
49.671500
11
20.956200
21
49.030956
0
LINE
8
BLACK
10
20.956200
20
49.030956
11
21.831200
21
48.796500
0
LINE
8
BLACK
10
21.831200
20
48.796500
11
22.706200
21
49.030956
0
LINE
8
BLACK
10
22.706200
20
49.030956
11
23.346744
21
49.671500
0
LINE
8
BLACK
10
23.346744
20
49.671500
11
23.581200
21
50.546500
0
LINE
8
BLACK
10
23.581200
20
50.546500
11
23.581200
21
50.546500
0
LINE
8
BLACK
10
73.705000
20
94.910100
11
73.730541
21
95.299442
0
LINE
8
BLACK
10
73.730541
20
95.299442
11
73.605137
21
95.668920
0
LINE
8
BLACK
10
73.605137
20
95.668920
11
73.347880
21
95.962277
0
LINE
8
BLACK
10
73.347880
20
95.962277
11
72.997939
21
96.134850
0
LINE
8
BLACK
10
29.290300
20
85.717300
11
31.538200
21
96.292700
0
LINE
8
BLACK
10
73.829100
20
91.511600
11
89.284200
21
87.370880
0
LINE
8
BLACK
10
73.122100
20
92.736800
11
73.097270
21
92.340476
0
LINE
8
BLACK
10
73.097270
20
92.340476
11
73.222012
21
91.977977
0
LINE
8
BLACK
10
73.222012
20
91.977977
11
73.473580
21
91.688702
0
LINE
8
BLACK
10
73.473580
20
91.688702
11
73.829225
21
91.512050
0
LINE
8
BLACK
10
28.169000
20
84.934600
11
28.883522
21
85.104416
0
LINE
8
BLACK
10
28.883522
20
85.104416
11
29.289360
21
85.716522
0
LINE
8
BLACK
10
202.913000
20
85.717300
11
200.664040
21
96.292700
0
LINE
8
BLACK
10
62.928000
20
56.335300
11
60.441180
21
57.002049
0
LINE
8
BLACK
10
63.601100
20
58.846200
11
62.928001
21
56.335310
0
LINE
8
BLACK
10
60.195100
20
56.084000
11
60.441162
21
57.002103
0
LINE
8
BLACK
10
61.114000
20
59.513000
11
63.601080
21
58.846251
0
LINE
8
BLACK
10
61.114000
20
59.513000
11
61.412185
21
60.624250
0
LINE
8
BLACK
10
61.412200
20
60.624200
11
57.065100
21
61.788370
0
LINE
8
BLACK
10
55.848000
20
57.248100
11
60.195100
21
56.083930
0
LINE
8
BLACK
10
56.030100
20
57.925500
11
55.848067
21
57.248168
0
LINE
8
BLACK
10
56.711100
20
62.399600
11
56.970127
21
63.365328
0
LINE
8
BLACK
10
56.617200
20
63.979100
11
56.970154
21
63.365267
0
LINE
8
BLACK
10
52.554200
20
60.407300
11
54.969050
21
59.761717
0
LINE
8
BLACK
10
53.719200
20
64.754400
11
56.617180
21
63.979172
0
LINE
8
BLACK
10
52.201000
20
61.021100
11
52.554218
21
60.407267
0
LINE
8
BLACK
10
52.317200
20
61.455000
11
52.201048
21
61.021084
0
LINE
8
BLACK
10
53.106200
20
64.402500
11
53.719239
21
64.754395
0
LINE
8
BLACK
10
53.106200
20
64.402500
11
52.990048
21
63.965938
0
LINE
8
BLACK
10
49.830100
20
62.121700
11
52.317180
21
61.454951
0
LINE
8
BLACK
10
49.830100
20
62.121700
11
50.503199
21
64.632590
0
LINE
8
BLACK
10
50.503200
20
64.632600
11
52.990020
21
63.965851
0
LINE
8
BLACK
10
56.711200
20
62.400500
11
56.761147
21
62.021088
0
LINE
8
BLACK
10
56.761147
20
62.021088
11
57.064752
21
61.788123
0
LINE
8
BLACK
10
56.030000
20
57.924300
11
56.067253
21
58.518780
0
LINE
8
BLACK
10
56.067253
20
58.518780
11
55.880146
21
59.062524
0
LINE
8
BLACK
10
55.880146
20
59.062524
11
55.502802
21
59.496434
0
LINE
8
BLACK
10
55.502802
20
59.496434
11
54.969340
21
59.761410
0
LINE
8
BLACK
10
230.104000
20
47.209900
11
227.553420
21
46.852713
0
LINE
8
BLACK
10
229.741000
20
49.784200
11
230.103479
21
47.209810
0
LINE
8
BLACK
10
227.685000
20
45.910700
11
227.552708
21
46.852615
0
LINE
8
BLACK
10
227.191000
20
49.427100
11
229.741580
21
49.784287
0
LINE
8
BLACK
10
227.191000
20
49.427100
11
227.032250
21
50.564810
0
LINE
8
BLACK
10
227.032000
20
50.564800
11
222.573780
21
49.937738
0
LINE
8
BLACK
10
223.230000
20
45.283700
11
227.685580
21
45.910762
0
LINE
8
BLACK
10
223.132000
20
45.976900
11
223.229896
21
45.283693
0
LINE
8
BLACK
10
222.010000
20
50.363700
11
221.869771
21
51.353240
0
LINE
8
BLACK
10
221.306000
20
51.779200
11
221.869562
21
51.353221
0
LINE
8
BLACK
10
218.962000
20
46.905600
11
221.435850
21
47.254850
0
LINE
8
BLACK
10
218.335000
20
51.363800
11
221.306270
21
51.779195
0
LINE
8
BLACK
10
218.396000
20
47.331600
11
218.962208
21
46.905621
0
LINE
8
BLACK
10
218.335000
20
47.778700
11
218.395854
21
47.331555
0
LINE
8
BLACK
10
217.909000
20
50.797600
11
218.334979
21
51.363808
0
LINE
8
BLACK
10
217.909000
20
50.797600
11
217.972500
21
50.353101
0
LINE
8
BLACK
10
215.784000
20
47.418900
11
218.334580
21
47.778733
0
LINE
8
BLACK
10
215.784000
20
47.418900
11
215.421521
21
49.993290
0
LINE
8
BLACK
10
215.422000
20
49.993300
11
217.972580
21
50.353133
0
LINE
8
BLACK
10
222.010000
20
50.364900
11
222.204226
21
50.035162
0
LINE
8
BLACK
10
222.204226
20
50.035162
11
222.574726
21
49.939345
0
LINE
8
BLACK
10
223.131000
20
45.978300
11
222.933012
21
46.540076
0
LINE
8
BLACK
10
222.933012
20
46.540076
11
222.548324
21
46.967487
0
LINE
8
BLACK
10
222.548324
20
46.967487
11
222.031437
21
47.219465
0
LINE
8
BLACK
10
222.031437
20
47.219465
11
221.436850
21
47.254940
0
LINE
8
BLACK
10
145.816000
20
78.777200
11
143.328920
21
78.110451
0
LINE
8
BLACK
10
145.143000
20
81.290800
11
145.816099
21
78.777260
0
LINE
8
BLACK
10
143.574000
20
77.195000
11
143.328996
21
78.110457
0
LINE
8
BLACK
10
142.656000
20
80.624000
11
145.142820
21
81.290749
0
LINE
8
BLACK
10
142.656000
20
80.624000
11
142.357815
21
81.732600
0
LINE
8
BLACK
10
142.358000
20
81.732600
11
138.011170
21
80.568430
0
LINE
8
BLACK
10
139.228000
20
76.028200
11
143.574040
21
77.195010
0
LINE
8
BLACK
10
139.047000
20
76.705600
11
139.227975
21
76.028268
0
LINE
8
BLACK
10
137.399000
20
80.923000
11
137.139973
21
81.888728
0
LINE
8
BLACK
10
136.528000
20
82.243300
11
137.139980
21
81.888759
0
LINE
8
BLACK
10
134.795000
20
77.118300
11
137.208790
21
77.766528
0
LINE
8
BLACK
10
133.630000
20
81.465400
11
136.528240
21
82.243274
0
LINE
8
BLACK
10
134.182000
20
77.472900
11
134.795039
21
77.118359
0
LINE
8
BLACK
10
134.066000
20
77.906800
11
134.182152
21
77.472884
0
LINE
8
BLACK
10
133.276000
20
80.854200
11
133.629747
21
81.465387
0
LINE
8
BLACK
10
133.276000
20
80.854200
11
133.392946
21
80.417638
0
LINE
8
BLACK
10
131.579000
20
77.240000
11
134.065820
21
77.906749
0
LINE
8
BLACK
10
131.579000
20
77.240000
11
130.905901
21
79.753540
0
LINE
8
BLACK
10
130.906000
20
79.753600
11
133.393080
21
80.417703
0
LINE
8
BLACK
10
137.399000
20
80.922800
11
137.631959
21
80.619193
0
LINE
8
BLACK
10
137.631959
20
80.619193
11
138.011369
21
80.569238
0
LINE
8
BLACK
10
139.047000
20
76.705500
11
138.788141
21
77.230414
0
LINE
8
BLACK
10
138.788141
20
77.230414
11
138.348110
21
77.616311
0
LINE
8
BLACK
10
138.348110
20
77.616311
11
137.793899
21
77.804439
0
LINE
8
BLACK
10
137.793899
20
77.804439
11
137.209880
21
77.766160
0
LINE
8
BLACK
10
49.428200
20
86.307300
11
46.909110
21
86.841758
0
LINE
8
BLACK
10
49.968200
20
88.849900
11
49.428186
21
86.307260
0
LINE
8
BLACK
10
46.711200
20
85.913100
11
46.909108
21
86.841786
0
LINE
8
BLACK
10
47.449100
20
89.384400
11
49.968190
21
88.849942
0
LINE
8
BLACK
10
47.449100
20
89.384400
11
47.688018
21
90.511520
0
LINE
8
BLACK
10
47.688000
20
90.511500
11
43.287190
21
91.445478
0
LINE
8
BLACK
10
42.310100
20
86.849700
11
46.711170
21
85.913076
0
LINE
8
BLACK
10
42.455100
20
87.532300
11
42.310109
21
86.849676
0
LINE
8
BLACK
10
42.902300
20
92.038100
11
43.110262
21
93.017057
0
LINE
8
BLACK
10
42.724200
20
93.609800
11
43.110227
21
93.017134
0
LINE
8
BLACK
10
38.854100
20
89.831500
11
41.300170
21
89.312917
0
LINE
8
BLACK
10
39.790200
20
94.234200
11
42.724160
21
93.609784
0
LINE
8
BLACK
10
38.469200
20
90.424200
11
38.854168
21
89.831534
0
LINE
8
BLACK
10
38.563100
20
90.866000
11
38.469173
21
90.424146
0
LINE
8
BLACK
10
39.197000
20
93.847900
11
39.790195
21
94.234191
0
LINE
8
BLACK
10
39.197000
20
93.847900
11
39.103073
21
93.408692
0
LINE
8
BLACK
10
36.044300
20
91.400500
11
38.563130
21
90.866042
0
LINE
8
BLACK
10
36.044300
20
91.400500
11
36.585108
21
93.943140
0
LINE
8
BLACK
10
36.585100
20
93.943100
11
39.103140
21
93.408642
0
LINE
8
BLACK
10
42.902100
20
92.039200
11
42.971847
21
91.662937
0
LINE
8
BLACK
10
42.971847
20
91.662937
11
43.287219
21
91.446190
0
LINE
8
BLACK
10
42.455400
20
87.533600
11
42.461489
21
88.129213
0
LINE
8
BLACK
10
42.461489
20
88.129213
11
42.246182
21
88.662419
0
LINE
8
BLACK
10
42.246182
20
88.662419
11
41.846647
21
89.075986
0
LINE
8
BLACK
10
41.846647
20
89.075986
11
41.300050
21
89.312680
0
LINE
8
BLACK
10
105.990000
20
10.168200
11
103.881010
21
11.644570
0
LINE
8
BLACK
10
107.481000
20
12.295500
11
105.989810
21
10.168250
0
LINE
8
BLACK
10
103.336000
20
10.866700
11
103.881041
21
11.644574
0
LINE
8
BLACK
10
105.372000
20
13.774500
11
107.480990
21
12.295480
0
LINE
8
BLACK
10
105.372000
20
13.774500
11
106.031870
21
14.716415
0
LINE
8
BLACK
10
106.032000
20
14.716400
11
102.345040
21
17.298730
0
LINE
8
BLACK
10
99.650000
20
13.446400
11
103.335910
21
10.866720
0
LINE
8
BLACK
10
100.051000
20
14.020600
11
99.649892
21
13.446455
0
LINE
8
BLACK
10
102.223000
20
17.994600
11
102.796087
21
18.812161
0
LINE
8
BLACK
10
102.673000
20
19.508000
11
102.796031
21
18.812147
0
LINE
8
BLACK
10
97.635000
20
17.544800
11
99.683140
21
16.110760
0
LINE
8
BLACK
10
100.216000
20
21.230400
11
102.673180
21
19.507960
0
LINE
8
BLACK
10
97.512200
20
18.240700
11
97.634967
21
17.544847
0
LINE
8
BLACK
10
97.770200
20
18.608400
11
97.512232
21
18.240630
0
LINE
8
BLACK
10
99.520100
20
21.106100
11
100.215953
21
21.230454
0
LINE
8
BLACK
10
99.520100
20
21.106100
11
99.261073
21
20.738330
0
LINE
8
BLACK
10
95.661200
20
20.084800
11
97.770190
21
18.608430
0
LINE
8
BLACK
10
95.661200
20
20.084800
11
97.152130
21
22.214690
0
LINE
8
BLACK
10
97.152100
20
22.214700
11
99.261090
21
20.738330
0
LINE
8
BLACK
10
102.222000
20
17.993400
11
102.139164
21
17.619778
0
LINE
8
BLACK
10
102.139164
20
17.619778
11
102.344788
21
17.297018
0
LINE
8
BLACK
10
100.051000
20
14.020200
11
100.289332
21
14.566087
0
LINE
8
BLACK
10
100.289332
20
14.566087
11
100.299482
21
15.141035
0
LINE
8
BLACK
10
100.299482
20
15.141035
11
100.093301
21
15.677838
0
LINE
8
BLACK
10
100.093301
20
15.677838
11
99.682637
21
16.109290
0
LINE
8
BLACK
10
89.491100
20
21.619400
11
87.158010
21
22.709480
0
LINE
8
BLACK
10
90.590200
20
23.976800
11
89.491120
21
21.619370
0
LINE
8
BLACK
10
86.756100
20
21.846900
11
87.158002
21
22.709441
0
LINE
8
BLACK
10
88.256000
20
25.064300
11
90.590150
21
23.976860
0
LINE
8
BLACK
10
88.256000
20
25.064300
11
88.742039
21
26.106760
0
LINE
8
BLACK
10
88.742100
20
26.106700
11
84.664080
21
28.009050
0
LINE
8
BLACK
10
82.678100
20
23.749300
11
86.756120
21
21.846950
0
LINE
8
BLACK
10
82.974100
20
24.384300
11
82.678032
21
23.749301
0
LINE
8
BLACK
10
84.421900
20
28.673200
11
84.844968
21
29.580720
0
LINE
8
BLACK
10
84.603200
20
30.244800
11
84.845029
21
29.580697
0
LINE
8
BLACK
10
79.982000
20
27.432300
11
82.248150
21
26.376610
0
LINE
8
BLACK
10
81.884100
20
31.512100
11
84.603220
21
30.244750
0
LINE
8
BLACK
10
79.740200
20
28.096400
11
79.982029
21
27.432297
0
LINE
8
BLACK
10
79.931200
20
28.506500
11
79.740171
21
28.096396
0
LINE
8
BLACK
10
81.220000
20
31.268700
11
81.884103
21
31.512116
0
LINE
8
BLACK
10
81.220000
20
31.268700
11
81.029236
21
30.861242
0
LINE
8
BLACK
10
77.597000
20
29.593900
11
79.931150
21
28.506460
0
LINE
8
BLACK
10
77.597000
20
29.593900
11
78.696080
21
31.951330
0
LINE
8
BLACK
10
78.696100
20
31.951300
11
81.029190
21
30.861220
0
LINE
8
BLACK
10
84.421900
20
28.672800
11
84.405202
21
28.290474
0
LINE
8
BLACK
10
84.405202
20
28.290474
11
84.663745
21
28.008326
0
LINE
8
BLACK
10
82.973500
20
24.383600
11
83.112611
21
24.952098
0
LINE
8
BLACK
10
83.112611
20
24.952098
11
83.023579
21
25.530558
0
LINE
8
BLACK
10
83.023579
20
25.530558
11
82.719956
21
26.030913
0
LINE
8
BLACK
10
82.719956
20
26.030913
11
82.247968
21
26.376990
0
LINE
8
BLACK
10
178.970000
20
94.133600
11
176.482920
21
93.466851
0
LINE
8
BLACK
10
178.298000
20
96.644500
11
178.970041
21
94.133610
0
LINE
8
BLACK
10
176.729000
20
92.548800
11
176.482938
21
93.466903
0
LINE
8
BLACK
10
175.811000
20
95.977800
11
178.298080
21
96.644549
0
LINE
8
BLACK
10
175.811000
20
95.977800
11
175.514667
21
97.089050
0
LINE
8
BLACK
10
175.515000
20
97.089000
11
171.167110
21
95.924830
0
LINE
8
BLACK
10
172.383000
20
91.384600
11
176.729300
21
92.548770
0
LINE
8
BLACK
10
172.202000
20
92.059300
11
172.383239
21
91.384613
0
LINE
8
BLACK
10
170.555000
20
96.276800
11
170.295973
21
97.242528
0
LINE
8
BLACK
10
169.683000
20
97.597000
11
170.296039
21
97.242459
0
LINE
8
BLACK
10
167.950000
20
92.474700
11
170.364850
21
93.120283
0
LINE
8
BLACK
10
166.786000
20
96.819200
11
169.682920
21
97.597074
0
LINE
8
BLACK
10
167.338000
20
92.826600
11
167.949980
21
92.474705
0
LINE
8
BLACK
10
167.222000
20
93.263200
11
167.338152
21
92.826638
0
LINE
8
BLACK
10
166.432000
20
96.208000
11
166.786012
21
96.819187
0
LINE
8
BLACK
10
166.432000
20
96.208000
11
166.548946
21
95.774084
0
LINE
8
BLACK
10
164.734000
20
92.596400
11
167.221870
21
93.263149
0
LINE
8
BLACK
10
164.734000
20
92.596400
11
164.060901
21
95.107290
0
LINE
8
BLACK
10
164.061000
20
95.107300
11
166.549140
21
95.774049
0
LINE
8
BLACK
10
170.555000
20
96.277200
11
170.787960
21
95.973591
0
LINE
8
BLACK
10
170.787960
20
95.973591
11
171.167372
21
95.923638
0
LINE
8
BLACK
10
172.202000
20
92.060000
11
171.937024
21
92.593462
0
LINE
8
BLACK
10
171.937024
20
92.593462
11
171.503114
21
92.970806
0
LINE
8
BLACK
10
171.503114
20
92.970806
11
170.959370
21
93.157913
0
LINE
8
BLACK
10
170.959370
20
93.157913
11
170.364890
21
93.120660
0
LINE
8
BLACK
10
79.215000
20
47.569700
11
76.728180
21
48.236449
0
LINE
8
BLACK
10
79.888100
20
50.083200
11
79.215001
21
47.569660
0
LINE
8
BLACK
10
76.482100
20
47.318300
11
76.728162
21
48.236403
0
LINE
8
BLACK
10
77.401000
20
50.747300
11
79.888080
21
50.083197
0
LINE
8
BLACK
10
77.401000
20
50.747300
11
77.698127
21
51.858550
0
LINE
8
BLACK
10
77.698100
20
51.858600
11
73.352060
21
53.025410
0
LINE
8
BLACK
10
72.135000
20
48.485100
11
76.482100
21
47.318290
0
LINE
8
BLACK
10
72.316200
20
49.159800
11
72.134961
21
48.485113
0
LINE
8
BLACK
10
72.998000
20
53.636600
11
73.257027
21
54.602328
0
LINE
8
BLACK
10
72.903100
20
55.213500
11
73.257112
21
54.602313
0
LINE
8
BLACK
10
68.841200
20
51.644300
11
71.256050
21
50.998717
0
LINE
8
BLACK
10
70.006100
20
55.991400
11
72.903020
21
55.213526
0
LINE
8
BLACK
10
68.487200
20
52.258100
11
68.841212
21
51.644267
0
LINE
8
BLACK
10
68.604100
20
52.692000
11
68.487154
21
52.258084
0
LINE
8
BLACK
10
69.393100
20
55.636800
11
70.006139
21
55.991341
0
LINE
8
BLACK
10
69.393100
20
55.636800
11
69.277213
21
55.202884
0
LINE
8
BLACK
10
66.117000
20
53.358800
11
68.604080
21
52.692051
0
LINE
8
BLACK
10
66.117000
20
53.358800
11
66.789041
21
55.869690
0
LINE
8
BLACK
10
66.789100
20
55.869700
11
69.277240
21
55.202951
0
LINE
8
BLACK
10
72.998100
20
53.636900
11
73.048048
21
53.257487
0
LINE
8
BLACK
10
73.048048
20
53.257487
11
73.351654
21
53.024523
0
LINE
8
BLACK
10
72.316000
20
49.160300
11
72.354283
21
49.744321
0
LINE
8
BLACK
10
72.354283
20
49.744321
11
72.166155
21
50.298536
0
LINE
8
BLACK
10
72.166155
20
50.298536
11
71.780257
21
50.738570
0
LINE
8
BLACK
10
71.780257
20
50.738570
11
71.255340
21
50.997430
0
LINE
8
BLACK
10
67.328000
20
72.755300
11
64.841180
21
73.422049
0
LINE
8
BLACK
10
68.001100
20
75.266200
11
67.328001
21
72.755310
0
LINE
8
BLACK
10
64.595200
20
72.504000
11
64.841262
21
73.422103
0
LINE
8
BLACK
10
65.514100
20
75.933000
11
68.001180
21
75.266251
0
LINE
8
BLACK
10
65.514100
20
75.933000
11
65.812020
21
77.044250
0
LINE
8
BLACK
10
65.812000
20
77.044200
11
61.465170
21
78.208370
0
LINE
8
BLACK
10
60.248100
20
73.668200
11
64.595200
21
72.504030
0
LINE
8
BLACK
10
60.430100
20
74.345500
11
60.248067
21
73.668168
0
LINE
8
BLACK
10
61.111100
20
78.822200
11
61.370127
21
79.787928
0
LINE
8
BLACK
10
61.017200
20
80.399100
11
61.370154
21
79.787913
0
LINE
8
BLACK
10
56.954000
20
76.829900
11
59.369110
21
76.181672
0
LINE
8
BLACK
10
58.119200
20
81.177000
11
61.017180
21
80.399126
0
LINE
8
BLACK
10
56.601000
20
77.441100
11
56.953954
21
76.829913
0
LINE
8
BLACK
10
56.717200
20
77.877700
11
56.601048
21
77.441138
0
LINE
8
BLACK
10
57.506200
20
80.822500
11
58.119239
21
81.177041
0
LINE
8
BLACK
10
57.506200
20
80.822500
11
57.390048
21
80.388584
0
LINE
8
BLACK
10
54.230100
20
78.541800
11
56.717180
21
77.877697
0
LINE
8
BLACK
10
54.230100
20
78.541800
11
54.903199
21
81.055340
0
LINE
8
BLACK
10
54.903200
20
81.055300
11
57.390020
21
80.388551
0
LINE
8
BLACK
10
61.111100
20
78.821300
11
61.161058
21
78.441904
0
LINE
8
BLACK
10
61.161058
20
78.441904
11
61.464652
21
78.208949
0
LINE
8
BLACK
10
60.430000
20
74.345200
11
60.467253
21
74.939680
0
LINE
8
BLACK
10
60.467253
20
74.939680
11
60.280146
21
75.483424
0
LINE
8
BLACK
10
60.280146
20
75.483424
11
59.902802
21
75.917334
0
LINE
8
BLACK
10
59.902802
20
75.917334
11
59.369340
21
76.182310
0
LINE
8
BLACK
10
162.685000
20
85.368000
11
160.197920
21
84.701251
0
LINE
8
BLACK
10
162.012000
20
87.878900
11
162.685099
21
85.368010
0
LINE
8
BLACK
10
160.443000
20
83.785800
11
160.197996
21
84.701257
0
LINE
8
BLACK
10
159.525000
20
87.214800
11
162.012080
21
87.878903
0
LINE
8
BLACK
10
159.525000
20
87.214800
11
159.227080
21
88.323400
0
LINE
8
BLACK
10
159.227000
20
88.323400
11
154.879900
21
87.159230
0
LINE
8
BLACK
10
156.097000
20
82.619000
11
160.443040
21
83.785810
0
LINE
8
BLACK
10
155.916000
20
83.296300
11
156.096975
21
82.618968
0
LINE
8
BLACK
10
154.268000
20
87.513800
11
154.008973
21
88.479528
0
LINE
8
BLACK
10
153.397000
20
88.834000
11
154.008980
21
88.479459
0
LINE
8
BLACK
10
151.664000
20
83.709100
11
154.078060
21
84.357328
0
LINE
8
BLACK
10
150.499000
20
88.056200
11
153.396980
21
88.834074
0
LINE
8
BLACK
10
151.051000
20
84.063600
11
151.663774
21
83.709059
0
LINE
8
BLACK
10
150.935000
20
84.497500
11
151.051152
21
84.063584
0
LINE
8
BLACK
10
150.145000
20
87.445000
11
150.499012
21
88.056187
0
LINE
8
BLACK
10
150.145000
20
87.445000
11
150.262210
21
87.008438
0
LINE
8
BLACK
10
148.448000
20
83.830800
11
150.934820
21
84.497549
0
LINE
8
BLACK
10
148.448000
20
83.830800
11
147.774901
21
86.341690
0
LINE
8
BLACK
10
147.775000
20
86.341700
11
150.262080
21
87.008449
0
LINE
8
BLACK
10
154.268000
20
87.513400
11
154.500959
21
87.209793
0
LINE
8
BLACK
10
154.500959
20
87.209793
11
154.880369
21
87.159838
0
LINE
8
BLACK
10
155.916000
20
83.296100
11
155.657141
21
83.821014
0
LINE
8
BLACK
10
155.657141
20
83.821014
11
155.217110
21
84.206911
0
LINE
8
BLACK
10
155.217110
20
84.206911
11
154.662899
21
84.395039
0
LINE
8
BLACK
10
154.662899
20
84.395039
11
154.078880
21
84.356760
0
LINE
8
BLACK
10
104.884000
20
73.821600
11
102.397180
21
74.488349
0
LINE
8
BLACK
10
105.557000
20
76.332500
11
104.883901
21
73.821610
0
LINE
8
BLACK
10
102.151000
20
73.570300
11
102.397062
21
74.488403
0
LINE
8
BLACK
10
103.070000
20
76.999300
11
105.557080
21
76.332551
0
LINE
8
BLACK
10
103.070000
20
76.999300
11
103.367127
21
78.110550
0
LINE
8
BLACK
10
103.367000
20
78.110500
11
99.019900
21
79.274670
0
LINE
8
BLACK
10
97.804000
20
74.734400
11
102.151100
21
73.570230
0
LINE
8
BLACK
10
97.985000
20
75.411800
11
97.804025
21
74.734468
0
LINE
8
BLACK
10
98.667100
20
79.888500
11
98.926127
21
80.854228
0
LINE
8
BLACK
10
98.572100
20
81.465400
11
98.926112
21
80.854213
0
LINE
8
BLACK
10
94.510000
20
77.896200
11
96.925110
21
77.247972
0
LINE
8
BLACK
10
95.674100
20
82.243300
11
98.572080
21
81.465426
0
LINE
8
BLACK
10
94.156000
20
78.507400
11
94.510012
21
77.896213
0
LINE
8
BLACK
10
94.273200
20
78.941300
11
94.155990
21
78.507384
0
LINE
8
BLACK
10
95.062200
20
81.888700
11
95.674180
21
82.243241
0
LINE
8
BLACK
10
95.062200
20
81.888700
11
94.946048
21
81.454784
0
LINE
8
BLACK
10
91.785000
20
79.608000
11
94.273140
21
78.941251
0
LINE
8
BLACK
10
91.785000
20
79.608000
11
92.458099
21
82.121540
0
LINE
8
BLACK
10
92.458100
20
82.121600
11
94.945970
21
81.454851
0
LINE
8
BLACK
10
98.667100
20
79.887500
11
98.717047
21
79.508088
0
LINE
8
BLACK
10
98.717047
20
79.508088
11
99.020652
21
79.275123
0
LINE
8
BLACK
10
97.985000
20
75.411500
11
98.022253
21
76.005980
0
LINE
8
BLACK
10
98.022253
20
76.005980
11
97.835146
21
76.549724
0
LINE
8
BLACK
10
97.835146
20
76.549724
11
97.457802
21
76.983634
0
LINE
8
BLACK
10
97.457802
20
76.983634
11
96.924340
21
77.248610
0
LINE
8
BLACK
10
83.615000
20
63.992400
11
81.128180
21
64.659149
0
LINE
8
BLACK
10
84.288100
20
66.503200
11
83.615001
21
63.992310
0
LINE
8
BLACK
10
80.882100
20
63.741000
11
81.128162
21
64.659103
0
LINE
8
BLACK
10
81.801000
20
67.170000
11
84.288080
21
66.503251
0
LINE
8
BLACK
10
81.801000
20
67.170000
11
82.098127
21
68.281250
0
LINE
8
BLACK
10
82.098100
20
68.281200
11
77.752060
21
69.445370
0
LINE
8
BLACK
10
76.535000
20
64.905200
11
80.882100
21
63.741030
0
LINE
8
BLACK
10
76.716000
20
65.582500
11
76.535025
21
64.905168
0
LINE
8
BLACK
10
77.398100
20
70.056600
11
77.657127
21
71.022328
0
LINE
8
BLACK
10
77.303100
20
71.636200
11
77.657112
21
71.022367
0
LINE
8
BLACK
10
73.241200
20
68.064300
11
75.656050
21
67.418717
0
LINE
8
BLACK
10
74.405100
20
72.411400
11
77.303080
21
71.636172
0
LINE
8
BLACK
10
72.887200
20
68.678100
11
73.241212
21
68.064267
0
LINE
8
BLACK
10
73.004100
20
69.112000
11
72.887154
21
68.678084
0
LINE
8
BLACK
10
73.793100
20
72.059500
11
74.405080
21
72.411395
0
LINE
8
BLACK
10
73.793100
20
72.059500
11
73.676948
21
71.622938
0
LINE
8
BLACK
10
70.516000
20
69.778800
11
73.004140
21
69.112051
0
LINE
8
BLACK
10
70.516000
20
69.778800
11
71.189099
21
72.289690
0
LINE
8
BLACK
10
71.189100
20
72.289700
11
73.676970
21
71.622951
0
LINE
8
BLACK
10
77.398100
20
70.057300
11
77.448047
21
69.677888
0
LINE
8
BLACK
10
77.448047
20
69.677888
11
77.751652
21
69.444923
0
LINE
8
BLACK
10
76.716000
20
65.581300
11
76.753253
21
66.175780
0
LINE
8
BLACK
10
76.753253
20
66.175780
11
76.566146
21
66.719524
0
LINE
8
BLACK
10
76.566146
20
66.719524
11
76.188802
21
67.153434
0
LINE
8
BLACK
10
76.188802
20
67.153434
11
75.655340
21
67.418410
0
LINE
8
BLACK
10
154.616000
20
45.937200
11
152.127860
21
45.270451
0
LINE
8
BLACK
10
153.943000
20
48.448100
11
154.616099
21
45.937210
0
LINE
8
BLACK
10
152.374000
20
44.352400
11
152.127938
21
45.270503
0
LINE
8
BLACK
10
151.455000
20
47.781400
11
153.942870
21
48.448149
0
LINE
8
BLACK
10
151.455000
20
47.781400
11
151.157873
21
48.892650
0
LINE
8
BLACK
10
151.158000
20
48.892600
11
146.810900
21
47.728430
0
LINE
8
BLACK
10
148.028000
20
43.188200
11
152.374040
21
44.352370
0
LINE
8
BLACK
10
147.846000
20
43.865500
11
148.028033
21
43.188168
0
LINE
8
BLACK
10
146.199000
20
48.080300
11
145.939973
21
49.048674
0
LINE
8
BLACK
10
145.328000
20
49.400600
11
145.939980
21
49.048705
0
LINE
8
BLACK
10
143.594000
20
44.278300
11
146.008850
21
44.923883
0
LINE
8
BLACK
10
142.430000
20
48.625400
11
145.327980
21
49.400628
0
LINE
8
BLACK
10
142.982000
20
44.632800
11
143.593980
21
44.278259
0
LINE
8
BLACK
10
142.866000
20
45.066700
11
142.982152
21
44.632784
0
LINE
8
BLACK
10
142.076000
20
48.011500
11
142.430012
21
48.625333
0
LINE
8
BLACK
10
142.076000
20
48.011500
11
142.193210
21
47.577584
0
LINE
8
BLACK
10
140.378000
20
44.400000
11
142.865870
21
45.066749
0
LINE
8
BLACK
10
140.378000
20
44.400000
11
139.704901
21
46.910890
0
LINE
8
BLACK
10
139.705000
20
46.910900
11
142.193140
21
47.577649
0
LINE
8
BLACK
10
146.199000
20
48.081100
11
146.431966
21
47.777509
0
LINE
8
BLACK
10
146.431966
20
47.777509
11
146.811369
21
47.727564
0
LINE
8
BLACK
10
147.847000
20
43.863700
11
147.588141
21
44.388614
0
LINE
8
BLACK
10
147.588141
20
44.388614
11
147.148110
21
44.774511
0
LINE
8
BLACK
10
147.148110
20
44.774511
11
146.593899
21
44.962639
0
LINE
8
BLACK
10
146.593899
20
44.962639
11
146.009880
21
44.924360
0
LINE
8
BLACK
10
183.370000
20
77.711000
11
180.882920
21
77.044251
0
LINE
8
BLACK
10
182.698000
20
80.224500
11
183.370041
21
77.710960
0
LINE
8
BLACK
10
181.129000
20
76.128800
11
180.882938
21
77.044257
0
LINE
8
BLACK
10
180.211000
20
79.557800
11
182.698080
21
80.224549
0
LINE
8
BLACK
10
180.211000
20
79.557800
11
179.914667
21
80.666400
0
LINE
8
BLACK
10
179.915000
20
80.666400
11
175.567900
21
79.502230
0
LINE
8
BLACK
10
176.782000
20
74.962000
11
181.129100
21
76.128810
0
LINE
8
BLACK
10
176.602000
20
75.639300
11
176.781916
21
74.961968
0
LINE
8
BLACK
10
174.954000
20
79.856700
11
174.694709
21
80.822428
0
LINE
8
BLACK
10
174.084000
20
81.177000
11
174.695187
21
80.822459
0
LINE
8
BLACK
10
172.350000
20
76.052000
11
174.766170
21
76.700228
0
LINE
8
BLACK
10
171.186000
20
80.399100
11
174.083710
21
81.176974
0
LINE
8
BLACK
10
171.738000
20
76.406600
11
172.349980
21
76.052059
0
LINE
8
BLACK
10
171.621000
20
76.840500
11
171.737946
21
76.406584
0
LINE
8
BLACK
10
170.832000
20
79.788000
11
171.186012
21
80.399187
0
LINE
8
BLACK
10
170.832000
20
79.788000
11
170.948152
21
79.351438
0
LINE
8
BLACK
10
169.134000
20
76.173800
11
171.621080
21
76.840549
0
LINE
8
BLACK
10
169.134000
20
76.173800
11
168.460901
21
78.687340
0
LINE
8
BLACK
10
168.461000
20
78.687300
11
170.948080
21
79.351403
0
LINE
8
BLACK
10
174.955000
20
79.856600
11
175.187969
21
79.553005
0
LINE
8
BLACK
10
175.187969
20
79.553005
11
175.567377
21
79.503064
0
LINE
8
BLACK
10
176.602000
20
75.639300
11
176.337024
21
76.172762
0
LINE
8
BLACK
10
176.337024
20
76.172762
11
175.903114
21
76.550106
0
LINE
8
BLACK
10
175.903114
20
76.550106
11
175.359370
21
76.737213
0
LINE
8
BLACK
10
175.359370
20
76.737213
11
174.764890
21
76.699960
0
LINE
8
BLACK
10
71.255000
20
30.033100
11
68.767130
21
30.699849
0
LINE
8
BLACK
10
71.928100
20
32.544000
11
71.255001
21
30.033110
0
LINE
8
BLACK
10
68.522100
20
29.781800
11
68.767104
21
30.699903
0
LINE
8
BLACK
10
69.440200
20
33.210800
11
71.928070
21
32.544051
0
LINE
8
BLACK
10
69.440200
20
33.210800
11
69.738120
21
34.322050
0
LINE
8
BLACK
10
69.738100
20
34.322000
11
65.391000
21
35.486170
0
LINE
8
BLACK
10
64.175000
20
30.948600
11
68.522100
21
29.781790
0
LINE
8
BLACK
10
64.356000
20
31.623300
11
64.175025
21
30.948613
0
LINE
8
BLACK
10
65.038100
20
36.100000
11
65.297127
21
37.065728
0
LINE
8
BLACK
10
64.943100
20
37.676900
11
65.297112
21
37.065713
0
LINE
8
BLACK
10
60.881200
20
34.107700
11
63.294990
21
33.459472
0
LINE
8
BLACK
10
62.045100
20
38.454800
11
64.943080
21
37.676926
0
LINE
8
BLACK
10
60.527200
20
34.718900
11
60.881212
21
34.107713
0
LINE
8
BLACK
10
60.644100
20
35.155500
11
60.527154
21
34.718938
0
LINE
8
BLACK
10
61.433100
20
38.100300
11
62.045080
21
38.454841
0
LINE
8
BLACK
10
61.433100
20
38.100300
11
61.316154
21
37.666384
0
LINE
8
BLACK
10
58.156000
20
35.819600
11
60.644140
21
35.155497
0
LINE
8
BLACK
10
58.156000
20
35.819600
11
58.829099
21
38.333140
0
LINE
8
BLACK
10
58.829100
20
38.333100
11
61.316180
21
37.666351
0
LINE
8
BLACK
10
65.038100
20
36.099000
11
65.088048
21
35.719587
0
LINE
8
BLACK
10
65.088048
20
35.719587
11
65.391654
21
35.486623
0
LINE
8
BLACK
10
64.356000
20
31.623300
11
64.393253
21
32.217780
0
LINE
8
BLACK
10
64.393253
20
32.217780
11
64.206146
21
32.761524
0
LINE
8
BLACK
10
64.206146
20
32.761524
11
63.828802
21
33.195434
0
LINE
8
BLACK
10
63.828802
20
33.195434
11
63.295340
21
33.460410
0
LINE
8
BLACK
10
208.575000
20
57.031200
11
206.056170
21
56.496742
0
LINE
8
BLACK
10
208.035000
20
59.573800
11
208.574749
21
57.031160
0
LINE
8
BLACK
10
206.254000
20
55.568000
11
206.055563
21
56.496686
0
LINE
8
BLACK
10
205.516000
20
59.039400
11
208.034830
21
59.573858
0
LINE
8
BLACK
10
205.516000
20
59.039400
11
205.277875
21
60.163880
0
LINE
8
BLACK
10
205.278000
20
60.163800
11
200.875340
21
59.227176
0
LINE
8
BLACK
10
201.852000
20
54.631400
11
206.254660
21
55.568024
0
LINE
8
BLACK
10
201.706000
20
55.316700
11
201.851521
21
54.631430
0
LINE
8
BLACK
10
200.283000
20
59.613500
11
200.073979
21
60.592457
0
LINE
8
BLACK
10
199.481000
20
60.978800
11
200.073666
21
60.592509
0
LINE
8
BLACK
10
197.481000
20
55.951700
11
199.928390
21
56.470283
0
LINE
8
BLACK
10
196.547000
20
60.354300
11
199.481230
21
60.978716
0
LINE
8
BLACK
10
196.888000
20
56.335300
11
197.480666
21
55.951655
0
LINE
8
BLACK
10
196.795000
20
56.777200
11
196.887604
21
56.335346
0
LINE
8
BLACK
10
196.163000
20
59.761700
11
196.546645
21
60.354366
0
LINE
8
BLACK
10
196.163000
20
59.761700
11
196.255604
21
59.319846
0
LINE
8
BLACK
10
194.277000
20
56.242700
11
196.795830
21
56.777158
0
LINE
8
BLACK
10
194.277000
20
56.242700
11
193.737251
21
58.785340
0
LINE
8
BLACK
10
193.737000
20
58.785400
11
196.255830
21
59.319858
0
LINE
8
BLACK
10
200.282000
20
59.613600
11
200.498754
21
59.298212
0
LINE
8
BLACK
10
200.498754
20
59.298212
11
200.875036
21
59.228473
0
LINE
8
BLACK
10
201.707000
20
55.316400
11
201.470306
21
55.862997
0
LINE
8
BLACK
10
201.470306
20
55.862997
11
201.056739
21
56.262532
0
LINE
8
BLACK
10
201.056739
20
56.262532
11
200.523533
21
56.477839
0
LINE
8
BLACK
10
200.523533
20
56.477839
11
199.927920
21
56.471750
0
LINE
8
BLACK
10
167.085000
20
68.948000
11
164.596860
21
68.281251
0
LINE
8
BLACK
10
166.412000
20
71.458900
11
167.085099
21
68.948010
0
LINE
8
BLACK
10
164.843000
20
67.363100
11
164.596938
21
68.281203
0
LINE
8
BLACK
10
163.925000
20
70.792100
11
166.412080
21
71.458849
0
LINE
8
BLACK
10
163.925000
20
70.792100
11
163.627080
21
71.903350
0
LINE
8
BLACK
10
163.627000
20
71.903400
11
159.279900
21
70.739230
0
LINE
8
BLACK
10
160.497000
20
66.199000
11
164.843040
21
67.363170
0
LINE
8
BLACK
10
160.316000
20
66.876300
11
160.496975
21
66.198968
0
LINE
8
BLACK
10
158.668000
20
71.093800
11
158.408973
21
72.059528
0
LINE
8
BLACK
10
157.797000
20
72.411400
11
158.408980
21
72.059505
0
LINE
8
BLACK
10
156.064000
20
67.289100
11
158.478060
21
67.937328
0
LINE
8
BLACK
10
154.899000
20
71.636200
11
157.796980
21
72.411428
0
LINE
8
BLACK
10
155.451000
20
67.643600
11
156.063774
21
67.289059
0
LINE
8
BLACK
10
155.335000
20
68.077500
11
155.451152
21
67.643584
0
LINE
8
BLACK
10
154.545000
20
71.022300
11
154.899012
21
71.636133
0
LINE
8
BLACK
10
154.545000
20
71.022300
11
154.662210
21
70.588384
0
LINE
8
BLACK
10
152.847000
20
67.410800
11
155.334870
21
68.077549
0
LINE
8
BLACK
10
152.847000
20
67.410800
11
152.174959
21
69.921690
0
LINE
8
BLACK
10
152.175000
20
69.921700
11
154.662080
21
70.588449
0
LINE
8
BLACK
10
158.668000
20
71.092600
11
158.900966
21
70.789009
0
LINE
8
BLACK
10
158.900966
20
70.789009
11
159.280369
21
70.739064
0
LINE
8
BLACK
10
160.316000
20
66.875300
11
160.051024
21
67.408762
0
LINE
8
BLACK
10
160.051024
20
67.408762
11
159.617114
21
67.786106
0
LINE
8
BLACK
10
159.617114
20
67.786106
11
159.073370
21
67.973213
0
LINE
8
BLACK
10
159.073370
20
67.973213
11
158.478890
21
67.935960
0
LINE
8
BLACK
10
23.429200
20
61.378300
11
20.879150
21
61.738133
0
LINE
8
BLACK
10
23.791200
20
63.955300
11
23.429250
21
61.378260
0
LINE
8
BLACK
10
20.747100
20
60.796200
11
20.879127
21
61.738115
0
LINE
8
BLACK
10
21.241100
20
64.312500
11
23.791150
21
63.955313
0
LINE
8
BLACK
10
21.241100
20
64.312500
11
21.401173
21
65.450210
0
LINE
8
BLACK
10
21.401200
20
65.450200
11
16.945100
21
66.077300
0
LINE
8
BLACK
10
16.291300
20
61.423300
11
20.747140
21
60.796238
0
LINE
8
BLACK
10
16.388100
20
62.116500
11
16.291263
21
61.423293
0
LINE
8
BLACK
10
16.519100
20
66.643500
11
16.658271
21
67.633040
0
LINE
8
BLACK
10
16.233100
20
68.196600
11
16.658285
21
67.633038
0
LINE
8
BLACK
10
12.636100
20
64.159000
11
15.112070
21
63.809750
0
LINE
8
BLACK
10
13.262100
20
68.614600
11
16.233100
21
68.196559
0
LINE
8
BLACK
10
12.210100
20
64.722600
11
12.636079
21
64.159038
0
LINE
8
BLACK
10
12.273100
20
65.169700
11
12.210129
21
64.722555
0
LINE
8
BLACK
10
12.697200
20
68.188600
11
13.262085
21
68.614579
0
LINE
8
BLACK
10
12.697200
20
68.188600
11
12.635288
21
67.744101
0
LINE
8
BLACK
10
9.723290
20
65.526900
11
12.273080
21
65.169713
0
LINE
8
BLACK
10
9.723290
20
65.526900
11
10.085240
21
68.101290
0
LINE
8
BLACK
10
10.085200
20
68.101300
11
12.635250
21
67.744113
0
LINE
8
BLACK
10
16.519000
20
66.642400
11
16.614813
21
66.271903
0
LINE
8
BLACK
10
16.614813
20
66.271903
11
16.944545
21
66.077674
0
LINE
8
BLACK
10
16.388600
20
62.116500
11
16.353125
21
62.711087
0
LINE
8
BLACK
10
16.353125
20
62.711087
11
16.101147
21
63.227974
0
LINE
8
BLACK
10
16.101147
20
63.227974
11
15.673736
21
63.612662
0
LINE
8
BLACK
10
15.673736
20
63.612662
11
15.111960
21
63.810650
0
LINE
8
BLACK
10
187.770000
20
61.291000
11
185.282920
21
60.624251
0
LINE
8
BLACK
10
187.098000
20
63.801900
11
187.770041
21
61.291010
0
LINE
8
BLACK
10
185.529000
20
59.708800
11
185.282938
21
60.624257
0
LINE
8
BLACK
10
184.611000
20
63.135100
11
187.098080
21
63.801849
0
LINE
8
BLACK
10
184.611000
20
63.135100
11
184.314667
21
64.246350
0
LINE
8
BLACK
10
184.315000
20
64.246400
11
179.967900
21
63.082230
0
LINE
8
BLACK
10
181.182000
20
58.541900
11
185.529100
21
59.708710
0
LINE
8
BLACK
10
181.002000
20
59.219300
11
181.181916
21
58.541968
0
LINE
8
BLACK
10
179.354000
20
63.436700
11
179.094709
21
64.402428
0
LINE
8
BLACK
10
178.484000
20
64.754400
11
179.095187
21
64.402505
0
LINE
8
BLACK
10
176.751000
20
59.632000
11
179.166640
21
60.280228
0
LINE
8
BLACK
10
175.586000
20
63.979100
11
178.483180
21
64.754328
0
LINE
8
BLACK
10
176.137000
20
59.986600
11
176.750833
21
59.632059
0
LINE
8
BLACK
10
176.020000
20
60.420500
11
176.136417
21
59.986584
0
LINE
8
BLACK
10
175.232000
20
63.365300
11
175.586541
21
63.979133
0
LINE
8
BLACK
10
175.232000
20
63.365300
11
175.348417
21
62.931384
0
LINE
8
BLACK
10
173.533000
20
59.753700
11
176.020080
21
60.420449
0
LINE
8
BLACK
10
173.533000
20
59.753700
11
172.860695
21
62.264590
0
LINE
8
BLACK
10
172.861000
20
62.264600
11
175.348340
21
62.931349
0
LINE
8
BLACK
10
179.354000
20
63.435800
11
179.586962
21
63.132189
0
LINE
8
BLACK
10
179.586962
20
63.132189
11
179.966377
21
63.082238
0
LINE
8
BLACK
10
181.002000
20
59.218700
11
180.737024
21
59.752162
0
LINE
8
BLACK
10
180.737024
20
59.752162
11
180.303114
21
60.129506
0
LINE
8
BLACK
10
180.303114
20
60.129506
11
179.759370
21
60.316613
0
LINE
8
BLACK
10
179.759370
20
60.316613
11
179.164890
21
60.279360
0
LINE
8
BLACK
10
21.063000
20
44.545500
11
18.513210
21
44.902687
0
LINE
8
BLACK
10
21.425300
20
47.119900
11
21.063086
21
44.545510
0
LINE
8
BLACK
10
18.381200
20
43.963400
11
18.513227
21
44.902670
0
LINE
8
BLACK
10
18.875200
20
47.479700
11
21.425250
21
47.119867
0
LINE
8
BLACK
10
18.875200
20
47.479700
11
19.035273
21
48.617410
0
LINE
8
BLACK
10
19.035300
20
48.617400
11
14.579190
21
49.244462
0
LINE
8
BLACK
10
13.925100
20
44.587800
11
18.381210
21
43.963384
0
LINE
8
BLACK
10
14.022200
20
45.283700
11
13.925098
21
44.587847
0
LINE
8
BLACK
10
14.153200
20
49.808100
11
14.293164
21
50.797640
0
LINE
8
BLACK
10
13.867200
20
51.363800
11
14.293179
21
50.797592
0
LINE
8
BLACK
10
10.270200
20
47.323600
11
12.746170
21
46.976996
0
LINE
8
BLACK
10
10.896200
20
51.779200
11
13.867200
21
51.363805
0
LINE
8
BLACK
10
9.844200
20
47.889800
11
10.270179
21
47.323592
0
LINE
8
BLACK
10
9.907170
20
48.334300
11
9.844199
21
47.889801
0
LINE
8
BLACK
10
10.331300
20
51.353200
11
10.896185
21
51.779179
0
LINE
8
BLACK
10
10.331300
20
51.353200
11
10.269123
21
50.908701
0
LINE
8
BLACK
10
7.357120
20
48.691500
11
9.907170
21
48.334313
0
LINE
8
BLACK
10
7.357120
20
48.691500
11
7.719070
21
51.268540
0
LINE
8
BLACK
10
7.719070
20
51.268600
11
10.269120
21
50.908767
0
LINE
8
BLACK
10
14.153000
20
49.808100
11
14.248814
21
49.437603
0
LINE
8
BLACK
10
14.248814
20
49.437603
11
14.578547
21
49.243374
0
LINE
8
BLACK
10
14.022600
20
45.281800
11
13.987125
21
45.876387
0
LINE
8
BLACK
10
13.987125
20
45.876387
11
13.735147
21
46.393274
0
LINE
8
BLACK
10
13.735147
20
46.393274
11
13.307736
21
46.777962
0
LINE
8
BLACK
10
13.307736
20
46.777962
11
12.745960
21
46.975950
0
LINE
8
BLACK
10
171.485000
20
52.528000
11
168.996860
21
51.861251
0
LINE
8
BLACK
10
170.812000
20
55.038900
11
171.485099
21
52.528010
0
LINE
8
BLACK
10
169.243000
20
50.943100
11
168.996938
21
51.861203
0
LINE
8
BLACK
10
168.324000
20
54.372100
11
170.812140
21
55.038849
0
LINE
8
BLACK
10
168.324000
20
54.372100
11
168.027138
21
55.483350
0
LINE
8
BLACK
10
168.027000
20
55.483400
11
163.679900
21
54.319230
0
LINE
8
BLACK
10
164.897000
20
49.779000
11
169.243040
21
50.943170
0
LINE
8
BLACK
10
164.715000
20
50.453600
11
164.897033
21
49.778913
0
LINE
8
BLACK
10
163.068000
20
54.671100
11
162.808973
21
55.636828
0
LINE
8
BLACK
10
162.197000
20
55.991400
11
162.808980
21
55.636859
0
LINE
8
BLACK
10
160.464000
20
50.869000
11
162.878060
21
51.514583
0
LINE
8
BLACK
10
159.299000
20
55.213500
11
162.196980
21
55.991374
0
LINE
8
BLACK
10
159.851000
20
51.220900
11
160.464039
21
50.869005
0
LINE
8
BLACK
10
159.735000
20
51.657500
11
159.850887
21
51.220938
0
LINE
8
BLACK
10
158.945000
20
54.602300
11
159.299012
21
55.213487
0
LINE
8
BLACK
10
158.945000
20
54.602300
11
159.061946
21
54.168384
0
LINE
8
BLACK
10
157.247000
20
50.990700
11
159.734870
21
51.657449
0
LINE
8
BLACK
10
157.247000
20
50.990700
11
156.573901
21
53.501590
0
LINE
8
BLACK
10
156.574000
20
53.501600
11
159.061870
21
54.168349
0
LINE
8
BLACK
10
163.068000
20
54.672100
11
163.300959
21
54.368493
0
LINE
8
BLACK
10
163.300959
20
54.368493
11
163.680369
21
54.318538
0
LINE
8
BLACK
10
164.716000
20
50.454800
11
164.451024
21
50.988262
0
LINE
8
BLACK
10
164.451024
20
50.988262
11
164.017114
21
51.365606
0
LINE
8
BLACK
10
164.017114
20
51.365606
11
163.473370
21
51.552713
0
LINE
8
BLACK
10
163.473370
20
51.552713
11
162.878890
21
51.515460
0
LINE
8
BLACK
10
225.370000
20
80.878000
11
222.819420
21
80.520813
0
LINE
8
BLACK
10
225.008000
20
83.455100
11
225.370479
21
80.878060
0
LINE
8
BLACK
10
222.952000
20
79.578900
11
222.819708
21
80.520815
0
LINE
8
BLACK
10
222.460000
20
83.095200
11
225.007930
21
83.455033
0
LINE
8
BLACK
10
222.460000
20
83.095200
11
222.298604
21
84.235550
0
LINE
8
BLACK
10
222.299000
20
84.235600
11
217.843420
21
83.608538
0
LINE
8
BLACK
10
218.496000
20
78.954500
11
222.951580
21
79.578916
0
LINE
8
BLACK
10
218.399000
20
79.647700
11
218.496896
21
78.954493
0
LINE
8
BLACK
10
217.277000
20
84.034500
11
217.139417
21
85.024040
0
LINE
8
BLACK
10
216.573000
20
85.450000
11
217.139208
21
85.024021
0
LINE
8
BLACK
10
214.229000
20
80.576400
11
216.705500
21
80.923004
0
LINE
8
BLACK
10
213.602000
20
85.032000
11
216.573270
21
85.450041
0
LINE
8
BLACK
10
213.665000
20
81.002400
11
214.228562
21
80.576421
0
LINE
8
BLACK
10
213.602000
20
81.446900
11
213.665500
21
81.002401
0
LINE
8
BLACK
10
213.178000
20
84.468400
11
213.601333
21
85.031962
0
LINE
8
BLACK
10
213.178000
20
84.468400
11
213.238854
21
84.021255
0
LINE
8
BLACK
10
211.051000
20
81.089700
11
213.601580
21
81.446887
0
LINE
8
BLACK
10
211.051000
20
81.089700
11
210.688521
21
83.664090
0
LINE
8
BLACK
10
210.689000
20
83.664100
11
213.239580
21
84.021287
0
LINE
8
BLACK
10
217.278000
20
84.033600
11
217.472226
21
83.703862
0
LINE
8
BLACK
10
217.472226
20
83.703862
11
217.842726
21
83.608045
0
LINE
8
BLACK
10
218.399000
20
79.646900
11
218.201012
21
80.208676
0
LINE
8
BLACK
10
218.201012
20
80.208676
11
217.816324
21
80.636087
0
LINE
8
BLACK
10
217.816324
20
80.636087
11
217.299437
21
80.888065
0
LINE
8
BLACK
10
217.299437
20
80.888065
11
216.704850
21
80.923540
0
LINE
8
BLACK
10
160.067000
20
29.713000
11
157.732850
21
28.625560
0
LINE
8
BLACK
10
158.968000
20
32.070400
11
160.067080
21
29.712970
0
LINE
8
BLACK
10
158.134000
20
27.763000
11
157.732892
21
28.625541
0
LINE
8
BLACK
10
156.634000
20
30.980300
11
158.967890
21
32.070380
0
LINE
8
BLACK
10
156.634000
20
30.980300
11
156.147961
21
32.022760
0
LINE
8
BLACK
10
156.148000
20
32.022800
11
152.069980
21
30.120450
0
LINE
8
BLACK
10
154.056000
20
25.860600
11
158.134020
21
27.762950
0
LINE
8
BLACK
10
153.760000
20
26.495600
11
154.056068
21
25.860601
0
LINE
8
BLACK
10
151.405000
20
30.363900
11
150.982990
21
31.268774
0
LINE
8
BLACK
10
150.318000
20
31.512100
11
150.983162
21
31.268684
0
LINE
8
BLACK
10
149.501000
20
26.164900
11
151.767150
21
27.220590
0
LINE
8
BLACK
10
147.599000
20
30.244800
11
150.317850
21
31.512150
0
LINE
8
BLACK
10
148.836000
20
26.408300
11
149.500897
21
26.164884
0
LINE
8
BLACK
10
148.646000
20
26.815800
11
148.835971
21
26.408342
0
LINE
8
BLACK
10
147.357000
20
29.580700
11
147.599093
21
30.244803
0
LINE
8
BLACK
10
147.357000
20
29.580700
11
147.546971
21
29.170596
0
LINE
8
BLACK
10
146.313000
20
25.725700
11
148.646090
21
26.815780
0
LINE
8
BLACK
10
146.313000
20
25.725700
11
145.214190
21
28.083130
0
LINE
8
BLACK
10
145.214000
20
28.083100
11
147.546830
21
29.170540
0
LINE
8
BLACK
10
151.405000
20
30.363200
11
151.687140
21
30.104657
0
LINE
8
BLACK
10
151.687140
20
30.104657
11
152.069461
21
30.121345
0
LINE
8
BLACK
10
153.760000
20
26.496500
11
153.413925
21
26.968491
0
LINE
8
BLACK
10
153.413925
20
26.968491
11
152.913570
21
27.272115
0
LINE
8
BLACK
10
152.913570
20
27.272115
11
152.335109
21
27.361150
0
LINE
8
BLACK
10
152.335109
20
27.361150
11
151.766610
21
27.222040
0
LINE
8
BLACK
10
205.040000
20
73.660200
11
202.521170
21
73.125742
0
LINE
8
BLACK
10
204.500000
20
76.202900
11
205.039749
21
73.660260
0
LINE
8
BLACK
10
202.719000
20
72.194400
11
202.520563
21
73.125732
0
LINE
8
BLACK
10
201.981000
20
75.668400
11
204.499830
21
76.202858
0
LINE
8
BLACK
10
201.981000
20
75.668400
11
201.742875
21
76.792880
0
LINE
8
BLACK
10
201.743000
20
76.792900
11
197.340340
21
75.856276
0
LINE
8
BLACK
10
198.317000
20
71.260400
11
202.719660
21
72.194378
0
LINE
8
BLACK
10
198.171000
20
71.945700
11
198.316521
21
71.260430
0
LINE
8
BLACK
10
196.748000
20
76.242500
11
196.538979
21
77.221457
0
LINE
8
BLACK
10
195.946000
20
77.605100
11
196.538666
21
77.221455
0
LINE
8
BLACK
10
193.948000
20
72.580700
11
196.392750
21
73.099283
0
LINE
8
BLACK
10
193.012000
20
76.980700
11
195.946230
21
77.605116
0
LINE
8
BLACK
10
193.356000
20
72.964400
11
193.948666
21
72.580755
0
LINE
8
BLACK
10
193.261000
20
73.406200
11
193.356250
21
72.964346
0
LINE
8
BLACK
10
192.628000
20
76.388100
11
193.011645
21
76.980766
0
LINE
8
BLACK
10
192.628000
20
76.388100
11
192.720604
21
75.948892
0
LINE
8
BLACK
10
190.742000
20
72.869100
11
193.260830
21
73.406203
0
LINE
8
BLACK
10
190.742000
20
72.869100
11
190.202251
21
75.414390
0
LINE
8
BLACK
10
190.202000
20
75.414400
11
192.720830
21
75.948858
0
LINE
8
BLACK
10
196.748000
20
76.242300
11
196.964754
21
75.926912
0
LINE
8
BLACK
10
196.964754
20
75.926912
11
197.341036
21
75.857173
0
LINE
8
BLACK
10
198.172000
20
71.944700
11
197.935306
21
72.491297
0
LINE
8
BLACK
10
197.935306
20
72.491297
11
197.521739
21
72.890832
0
LINE
8
BLACK
10
197.521739
20
72.890832
11
196.988533
21
73.106139
0
LINE
8
BLACK
10
196.988533
20
73.106139
11
196.392920
21
73.100050
0
LINE
8
BLACK
10
100.484000
20
57.401600
11
97.997180
21
58.068349
0
LINE
8
BLACK
10
101.157000
20
59.912500
11
100.483901
21
57.401610
0
LINE
8
BLACK
10
97.751100
20
57.150200
11
97.997162
21
58.068303
0
LINE
8
BLACK
10
98.670000
20
60.579200
11
101.157080
21
59.912451
0
LINE
8
BLACK
10
98.670000
20
60.579200
11
98.967127
21
61.690450
0
LINE
8
BLACK
10
98.967100
20
61.690500
11
94.621060
21
62.854670
0
LINE
8
BLACK
10
93.404000
20
58.314400
11
97.751100
21
57.150230
0
LINE
8
BLACK
10
93.585000
20
58.991700
11
93.404025
21
58.314368
0
LINE
8
BLACK
10
94.267100
20
63.465800
11
94.526127
21
64.431528
0
LINE
8
BLACK
10
94.172100
20
65.045400
11
94.526112
21
64.431567
0
LINE
8
BLACK
10
90.110000
20
61.473500
11
92.525110
21
60.827917
0
LINE
8
BLACK
10
91.275200
20
65.820600
11
94.172120
21
65.045372
0
LINE
8
BLACK
10
89.755900
20
62.087400
11
90.109912
21
61.473567
0
LINE
8
BLACK
10
89.873200
20
62.521300
11
89.755990
21
62.087384
0
LINE
8
BLACK
10
90.662100
20
65.468700
11
91.275139
21
65.820595
0
LINE
8
BLACK
10
90.662100
20
65.468700
11
90.545948
21
65.032138
0
LINE
8
BLACK
10
87.385000
20
63.188000
11
89.873140
21
62.521251
0
LINE
8
BLACK
10
87.385000
20
63.188000
11
88.058099
21
65.698890
0
LINE
8
BLACK
10
88.058100
20
65.698900
11
90.545970
21
65.032151
0
LINE
8
BLACK
10
94.267100
20
63.466800
11
94.317047
21
63.087388
0
LINE
8
BLACK
10
94.317047
20
63.087388
11
94.620652
21
62.854423
0
LINE
8
BLACK
10
93.585000
20
58.990300
11
93.622253
21
59.584780
0
LINE
8
BLACK
10
93.622253
20
59.584780
11
93.435146
21
60.128524
0
LINE
8
BLACK
10
93.435146
20
60.128524
11
93.057802
21
60.562434
0
LINE
8
BLACK
10
93.057802
20
60.562434
11
92.524340
21
60.827410
0
LINE
8
BLACK
10
71.728000
20
89.175400
11
69.240920
21
89.842149
0
LINE
8
BLACK
10
72.401100
20
91.688900
11
71.728001
21
89.175360
0
LINE
8
BLACK
10
68.995200
20
88.924000
11
69.240998
21
89.842103
0
LINE
8
BLACK
10
69.914100
20
92.353000
11
72.401180
21
91.688897
0
LINE
8
BLACK
10
69.914100
20
92.353000
11
70.211227
21
93.464250
0
LINE
8
BLACK
10
70.211200
20
93.464300
11
65.865160
21
94.628470
0
LINE
8
BLACK
10
64.648100
20
90.090800
11
68.995200
21
88.923990
0
LINE
8
BLACK
10
64.830100
20
90.765500
11
64.648067
21
90.090813
0
LINE
8
BLACK
10
65.511100
20
95.242200
11
65.770127
21
96.207928
0
LINE
8
BLACK
10
65.416200
20
96.819200
11
65.770212
21
96.208013
0
LINE
8
BLACK
10
61.354000
20
93.249900
11
63.769110
21
92.604317
0
LINE
8
BLACK
10
62.519200
20
97.597000
11
65.416120
21
96.819126
0
LINE
8
BLACK
10
61.000000
20
93.863800
11
61.354012
21
93.249967
0
LINE
8
BLACK
10
61.117200
20
94.297700
11
60.999990
21
93.863784
0
LINE
8
BLACK
10
61.906200
20
97.242500
11
62.519239
21
97.597041
0
LINE
8
BLACK
10
61.906200
20
97.242500
11
61.790048
21
96.808584
0
LINE
8
BLACK
10
58.630100
20
94.964400
11
61.117180
21
94.297651
0
LINE
8
BLACK
10
58.630100
20
94.964400
11
59.303199
21
97.475290
0
LINE
8
BLACK
10
59.303200
20
97.475300
11
61.790020
21
96.808551
0
LINE
8
BLACK
10
65.511100
20
95.242000
11
65.561058
21
94.862604
0
LINE
8
BLACK
10
65.561058
20
94.862604
11
65.864652
21
94.629649
0
LINE
8
BLACK
10
64.830000
20
90.765900
11
64.868283
21
91.349921
0
LINE
8
BLACK
10
64.868283
20
91.349921
11
64.680155
21
91.904136
0
LINE
8
BLACK
10
64.680155
20
91.904136
11
64.294257
21
92.344170
0
LINE
8
BLACK
10
64.294257
20
92.344170
11
63.769340
21
92.603030
0
LINE
8
BLACK
10
150.216000
20
62.357200
11
147.727860
21
61.690451
0
LINE
8
BLACK
10
149.543000
20
64.868100
11
150.216099
21
62.357210
0
LINE
8
BLACK
10
147.974000
20
60.772400
11
147.727938
21
61.690503
0
LINE
8
BLACK
10
147.056000
20
64.201400
11
149.543080
21
64.868149
0
LINE
8
BLACK
10
147.056000
20
64.201400
11
146.758080
21
65.312650
0
LINE
8
BLACK
10
146.758000
20
65.312600
11
142.411170
21
64.148430
0
LINE
8
BLACK
10
143.628000
20
59.608200
11
147.974040
21
60.772370
0
LINE
8
BLACK
10
143.446000
20
60.285500
11
143.628033
21
59.608168
0
LINE
8
BLACK
10
141.799000
20
64.503000
11
141.540238
21
65.468728
0
LINE
8
BLACK
10
140.928000
20
65.820600
11
141.540245
21
65.468705
0
LINE
8
BLACK
10
139.195000
20
60.698300
11
141.608790
21
61.346528
0
LINE
8
BLACK
10
138.030000
20
65.045400
11
140.927980
21
65.820628
0
LINE
8
BLACK
10
138.582000
20
61.050200
11
139.195039
21
60.698305
0
LINE
8
BLACK
10
138.466000
20
61.486800
11
138.582152
21
61.050238
0
LINE
8
BLACK
10
137.676000
20
64.431600
11
138.030012
21
65.045433
0
LINE
8
BLACK
10
137.676000
20
64.431600
11
137.793210
21
63.997684
0
LINE
8
BLACK
10
135.978000
20
60.820000
11
138.465870
21
61.486749
0
LINE
8
BLACK
10
135.978000
20
60.820000
11
135.305959
21
63.330890
0
LINE
8
BLACK
10
135.306000
20
63.330900
11
137.793080
21
63.997649
0
LINE
8
BLACK
10
141.799000
20
64.502000
11
142.031959
21
64.198393
0
LINE
8
BLACK
10
142.031959
20
64.198393
11
142.411369
21
64.148438
0
LINE
8
BLACK
10
143.447000
20
60.284700
11
143.188141
21
60.809614
0
LINE
8
BLACK
10
143.188141
20
60.809614
11
142.748110
21
61.195511
0
LINE
8
BLACK
10
142.748110
20
61.195511
11
142.193899
21
61.383639
0
LINE
8
BLACK
10
142.193899
20
61.383639
11
141.609880
21
61.345360
0
LINE
8
BLACK
10
201.505000
20
90.289300
11
198.986170
21
89.752197
0
LINE
8
BLACK
10
200.965000
20
92.831900
11
201.504749
21
90.289260
0
LINE
8
BLACK
10
199.185000
20
88.823500
11
198.986563
21
89.752186
0
LINE
8
BLACK
10
198.446000
20
92.297400
11
200.964830
21
92.831858
0
LINE
8
BLACK
10
198.446000
20
92.297400
11
198.207875
21
93.421880
0
LINE
8
BLACK
10
198.208000
20
93.421900
11
193.805340
21
92.485276
0
LINE
8
BLACK
10
194.782000
20
87.889500
11
199.184660
21
88.823478
0
LINE
8
BLACK
10
194.639000
20
88.572100
11
194.781875
21
87.889476
0
LINE
8
BLACK
10
193.213000
20
92.871600
11
193.003979
21
93.847911
0
LINE
8
BLACK
10
192.411000
20
94.234200
11
193.003666
21
93.847909
0
LINE
8
BLACK
10
190.414000
20
89.209800
11
192.858750
21
89.728383
0
LINE
8
BLACK
10
189.477000
20
93.609800
11
192.411230
21
94.234216
0
LINE
8
BLACK
10
189.821000
20
89.593400
11
190.413666
21
89.209755
0
LINE
8
BLACK
10
189.726000
20
90.035300
11
189.821250
21
89.593446
0
LINE
8
BLACK
10
189.093000
20
93.017100
11
189.476645
21
93.609766
0
LINE
8
BLACK
10
189.093000
20
93.017100
11
189.185604
21
92.577892
0
LINE
8
BLACK
10
187.207000
20
89.498200
11
189.725830
21
90.035303
0
LINE
8
BLACK
10
187.207000
20
89.498200
11
186.667251
21
92.040840
0
LINE
8
BLACK
10
186.667000
20
92.040800
11
189.185830
21
92.577903
0
LINE
8
BLACK
10
193.213000
20
92.870800
11
193.429762
21
92.555429
0
LINE
8
BLACK
10
193.429762
20
92.555429
11
193.806036
21
92.485699
0
LINE
8
BLACK
10
194.638000
20
88.573100
11
194.401306
21
89.119697
0
LINE
8
BLACK
10
194.401306
20
89.119697
11
193.987739
21
89.519232
0
LINE
8
BLACK
10
193.987739
20
89.519232
11
193.454533
21
89.734539
0
LINE
8
BLACK
10
193.454533
20
89.734539
11
192.858920
21
89.728450
0
LINE
8
BLACK
10
96.084000
20
40.981600
11
93.597180
21
41.645703
0
LINE
8
BLACK
10
96.757100
20
43.492500
11
96.084001
21
40.981610
0
LINE
8
BLACK
10
93.351100
20
40.730200
11
93.597162
21
41.645657
0
LINE
8
BLACK
10
94.270000
20
44.159200
11
96.757080
21
43.492451
0
LINE
8
BLACK
10
94.270000
20
44.159200
11
94.567127
21
45.267800
0
LINE
8
BLACK
10
94.567100
20
45.267800
11
90.221060
21
46.434610
0
LINE
8
BLACK
10
89.004000
20
41.894400
11
93.351100
21
40.730230
0
LINE
8
BLACK
10
89.185000
20
42.569100
11
89.004025
21
41.894413
0
LINE
8
BLACK
10
89.867100
20
47.045800
11
90.126127
21
48.011528
0
LINE
8
BLACK
10
89.772100
20
48.625400
11
90.126112
21
48.011567
0
LINE
8
BLACK
10
85.710200
20
45.053500
11
88.125050
21
44.407917
0
LINE
8
BLACK
10
86.875200
20
49.400600
11
89.772120
21
48.625372
0
LINE
8
BLACK
10
85.356200
20
45.667300
11
85.710212
21
45.053467
0
LINE
8
BLACK
10
85.473100
20
46.101200
11
85.356154
21
45.667284
0
LINE
8
BLACK
10
86.262100
20
49.048700
11
86.875139
21
49.400595
0
LINE
8
BLACK
10
86.262100
20
49.048700
11
86.145948
21
48.612138
0
LINE
8
BLACK
10
82.986100
20
46.768000
11
85.473180
21
46.101251
0
LINE
8
BLACK
10
82.986100
20
46.768000
11
83.658141
21
49.278890
0
LINE
8
BLACK
10
83.658100
20
49.278900
11
86.145970
21
48.612151
0
LINE
8
BLACK
10
89.867100
20
47.045900
11
89.917059
21
46.666504
0
LINE
8
BLACK
10
89.917059
20
46.666504
11
90.220654
21
46.433549
0
LINE
8
BLACK
10
89.185000
20
42.570300
11
89.222253
21
43.164780
0
LINE
8
BLACK
10
89.222253
20
43.164780
11
89.035146
21
43.708524
0
LINE
8
BLACK
10
89.035146
20
43.708524
11
88.657802
21
44.142434
0
LINE
8
BLACK
10
88.657802
20
44.142434
11
88.124340
21
44.407410
0
LINE
8
BLACK
10
42.359100
20
53.049200
11
39.840270
21
53.586303
0
LINE
8
BLACK
10
42.899100
20
55.594500
11
42.359086
21
53.049210
0
LINE
8
BLACK
10
39.642100
20
52.657600
11
39.840273
21
53.586286
0
LINE
8
BLACK
10
40.380300
20
56.128900
11
42.899130
21
55.594442
0
LINE
8
BLACK
10
40.380300
20
56.128900
11
40.619218
21
57.253380
0
LINE
8
BLACK
10
40.619200
20
57.253400
11
36.218130
21
58.190024
0
LINE
8
BLACK
10
35.241300
20
53.591600
11
39.642110
21
52.657622
0
LINE
8
BLACK
10
35.386300
20
54.276900
11
35.241309
21
53.591630
0
LINE
8
BLACK
10
35.833100
20
58.782700
11
36.041062
21
59.761657
0
LINE
8
BLACK
10
35.655100
20
60.354300
11
36.041127
21
59.761634
0
LINE
8
BLACK
10
31.785300
20
56.576100
11
34.231110
21
56.054871
0
LINE
8
BLACK
10
32.721100
20
60.978800
11
35.655060
21
60.354384
0
LINE
8
BLACK
10
31.400000
20
57.168800
11
31.785233
21
56.576134
0
LINE
8
BLACK
10
31.494200
20
57.608000
11
31.400008
21
57.168792
0
LINE
8
BLACK
10
32.128200
20
60.592500
11
32.721131
21
60.978791
0
LINE
8
BLACK
10
32.128200
20
60.592500
11
32.034273
21
60.150646
0
LINE
8
BLACK
10
28.975100
20
58.145100
11
31.494190
21
57.607997
0
LINE
8
BLACK
10
28.975100
20
58.145100
11
29.516172
21
60.687740
0
LINE
8
BLACK
10
29.516200
20
60.687700
11
32.034240
21
60.150597
0
LINE
8
BLACK
10
35.833100
20
58.782400
11
35.902847
21
58.406137
0
LINE
8
BLACK
10
35.902847
20
58.406137
11
36.218219
21
58.189390
0
LINE
8
BLACK
10
35.386400
20
54.276700
11
35.392489
21
54.872313
0
LINE
8
BLACK
10
35.392489
20
54.872313
11
35.177182
21
55.405519
0
LINE
8
BLACK
10
35.177182
20
55.405519
11
34.777647
21
55.819086
0
LINE
8
BLACK
10
34.777647
20
55.819086
11
34.231050
21
56.055780
0
LINE
8
BLACK
10
141.899000
20
21.151100
11
139.790010
21
19.674730
0
LINE
8
BLACK
10
140.408000
20
23.281000
11
141.898930
21
21.151110
0
LINE
8
BLACK
10
140.335000
20
18.896800
11
139.789959
21
19.674674
0
LINE
8
BLACK
10
138.298000
20
21.804600
11
140.408050
21
23.280970
0
LINE
8
BLACK
10
138.298000
20
21.804600
11
137.639188
21
22.746515
0
LINE
8
BLACK
10
137.639000
20
22.746500
11
133.952830
21
20.164170
0
LINE
8
BLACK
10
136.648000
20
16.314500
11
140.334960
21
18.896830
0
LINE
8
BLACK
10
136.247000
20
16.888600
11
136.647843
21
16.314455
0
LINE
8
BLACK
10
133.256000
20
20.288500
11
132.682913
21
21.106061
0
LINE
8
BLACK
10
131.986000
20
21.230400
11
132.682912
21
21.106046
0
LINE
8
BLACK
10
132.110000
20
15.822400
11
134.157870
21
17.256440
0
LINE
8
BLACK
10
129.529000
20
19.508000
11
131.985920
21
21.230440
0
LINE
8
BLACK
10
131.413000
20
15.946700
11
132.110176
21
15.822346
0
LINE
8
BLACK
10
131.155000
20
16.314500
11
131.412968
21
15.946730
0
LINE
8
BLACK
10
129.406000
20
18.812200
11
129.529031
21
19.508053
0
LINE
8
BLACK
10
129.406000
20
18.812200
11
129.663968
21
18.444430
0
LINE
8
BLACK
10
129.046000
20
14.838100
11
131.154990
21
16.314470
0
LINE
8
BLACK
10
129.046000
20
14.838100
11
127.555070
21
16.965350
0
LINE
8
BLACK
10
127.555000
20
16.965400
11
129.663990
21
18.444420
0
LINE
8
BLACK
10
133.256000
20
20.287800
11
133.578749
21
20.082183
0
LINE
8
BLACK
10
133.578749
20
20.082183
11
133.952361
21
20.165007
0
LINE
8
BLACK
10
136.247000
20
16.887900
11
135.815546
21
17.298561
0
LINE
8
BLACK
10
135.815546
20
17.298561
11
135.278743
21
17.504739
0
LINE
8
BLACK
10
135.278743
20
17.504739
11
134.703796
21
17.494586
0
LINE
8
BLACK
10
134.703796
20
17.494586
11
134.157910
21
17.256252
0
LINE
8
BLACK
10
227.736000
20
64.045300
11
225.188070
21
63.685467
0
LINE
8
BLACK
10
227.376000
20
66.619700
11
227.735833
21
64.045310
0
LINE
8
BLACK
10
225.320000
20
62.746200
11
225.187708
21
63.685470
0
LINE
8
BLACK
10
224.825000
20
66.259800
11
227.375580
21
66.619633
0
LINE
8
BLACK
10
224.825000
20
66.259800
11
224.663604
21
67.400150
0
LINE
8
BLACK
10
224.664000
20
67.400200
11
220.208420
21
66.773138
0
LINE
8
BLACK
10
220.862000
20
62.119100
11
225.320220
21
62.746162
0
LINE
8
BLACK
10
220.764000
20
62.812300
11
220.861896
21
62.119093
0
LINE
8
BLACK
10
219.645000
20
67.199100
11
219.504771
21
68.188640
0
LINE
8
BLACK
10
218.941000
20
68.614600
11
219.504562
21
68.188621
0
LINE
8
BLACK
10
216.597000
20
63.741000
11
219.070850
21
64.090250
0
LINE
8
BLACK
10
215.970000
20
68.196600
11
218.941270
21
68.614641
0
LINE
8
BLACK
10
216.031000
20
64.167000
11
216.597208
21
63.741021
0
LINE
8
BLACK
10
215.967000
20
64.611500
11
216.030500
21
64.167001
0
LINE
8
BLACK
10
215.544000
20
67.633000
11
215.969979
21
68.196562
0
LINE
8
BLACK
10
215.544000
20
67.633000
11
215.607500
21
67.185855
0
LINE
8
BLACK
10
213.419000
20
64.254300
11
215.966930
21
64.611487
0
LINE
8
BLACK
10
213.419000
20
64.254300
11
213.056521
21
66.828690
0
LINE
8
BLACK
10
213.057000
20
66.828700
11
215.607580
21
67.185887
0
LINE
8
BLACK
10
219.644000
20
67.199100
11
219.838224
21
66.869389
0
LINE
8
BLACK
10
219.838224
20
66.869389
11
220.208699
21
66.773571
0
LINE
8
BLACK
10
220.765000
20
62.812500
11
220.567012
21
63.374276
0
LINE
8
BLACK
10
220.567012
20
63.374276
11
220.182324
21
63.801687
0
LINE
8
BLACK
10
220.182324
20
63.801687
11
219.665437
21
64.053665
0
LINE
8
BLACK
10
219.665437
20
64.053665
11
219.070850
21
64.089140
0
LINE
8
BLACK
10
88.015000
20
80.412400
11
85.528180
21
81.079149
0
LINE
8
BLACK
10
88.688100
20
82.923300
11
88.015001
21
80.412410
0
LINE
8
BLACK
10
85.282100
20
80.161000
11
85.528162
21
81.079103
0
LINE
8
BLACK
10
86.199900
20
83.590000
11
88.688040
21
82.923251
0
LINE
8
BLACK
10
86.199900
20
83.590000
11
86.498085
21
84.701250
0
LINE
8
BLACK
10
86.498100
20
84.701300
11
82.151000
21
85.865470
0
LINE
8
BLACK
10
80.935000
20
81.325200
11
85.282100
21
80.161030
0
LINE
8
BLACK
10
81.116000
20
82.002500
11
80.935025
21
81.325168
0
LINE
8
BLACK
10
81.798100
20
86.479300
11
82.057127
21
87.445028
0
LINE
8
BLACK
10
81.703100
20
88.056200
11
82.057112
21
87.445013
0
LINE
8
BLACK
10
77.641200
20
84.487000
11
80.056050
21
83.838772
0
LINE
8
BLACK
10
78.805100
20
88.834000
11
81.703080
21
88.056126
0
LINE
8
BLACK
10
77.287200
20
85.098100
11
77.641212
21
84.486913
0
LINE
8
BLACK
10
77.404100
20
85.532100
11
77.287154
21
85.098184
0
LINE
8
BLACK
10
78.193100
20
88.479500
11
78.805080
21
88.834041
0
LINE
8
BLACK
10
78.193100
20
88.479500
11
78.076948
21
88.045584
0
LINE
8
BLACK
10
74.916000
20
86.198800
11
77.404140
21
85.532051
0
LINE
8
BLACK
10
74.916000
20
86.198800
11
75.589099
21
88.712340
0
LINE
8
BLACK
10
75.589100
20
88.712300
11
78.076970
21
88.045551
0
LINE
8
BLACK
10
81.798100
20
86.478100
11
81.848058
21
86.098704
0
LINE
8
BLACK
10
81.848058
20
86.098704
11
82.151652
21
85.865749
0
LINE
8
BLACK
10
81.116000
20
82.002000
11
81.153253
21
82.596480
0
LINE
8
BLACK
10
81.153253
20
82.596480
11
80.966146
21
83.140224
0
LINE
8
BLACK
10
80.966146
20
83.140224
11
80.588802
21
83.574134
0
LINE
8
BLACK
10
80.588802
20
83.574134
11
80.055340
21
83.839110
0
LINE
8
BLACK
10
45.893100
20
69.678200
11
43.374010
21
70.212658
0
LINE
8
BLACK
10
46.434200
20
72.220900
11
45.893128
21
69.678260
0
LINE
8
BLACK
10
43.177200
20
69.284000
11
43.374050
21
70.212686
0
LINE
8
BLACK
10
43.915100
20
72.758000
11
46.434190
21
72.220897
0
LINE
8
BLACK
10
43.915100
20
72.758000
11
44.154018
21
73.882480
0
LINE
8
BLACK
10
44.154000
20
73.882500
11
39.752100
21
74.816400
0
LINE
8
BLACK
10
38.775000
20
70.220600
11
43.177130
21
69.283976
0
LINE
8
BLACK
10
38.921100
20
70.905900
11
38.775050
21
70.220630
0
LINE
8
BLACK
10
39.367200
20
75.411800
11
39.575162
21
76.388111
0
LINE
8
BLACK
10
39.190200
20
76.980700
11
39.575168
21
76.388034
0
LINE
8
BLACK
10
35.320100
20
73.205100
11
37.765110
21
72.683871
0
LINE
8
BLACK
10
36.256200
20
77.605100
11
39.190160
21
76.980684
0
LINE
8
BLACK
10
34.935100
20
73.797800
11
35.320068
21
73.205134
0
LINE
8
BLACK
10
35.028300
20
74.237000
11
34.935167
21
73.797792
0
LINE
8
BLACK
10
35.663300
20
77.221500
11
36.256231
21
77.605145
0
LINE
8
BLACK
10
35.663300
20
77.221500
11
35.569108
21
76.779646
0
LINE
8
BLACK
10
32.510200
20
74.771500
11
35.028240
21
74.237042
0
LINE
8
BLACK
10
32.510200
20
74.771500
11
33.050214
21
77.316790
0
LINE
8
BLACK
10
33.050200
20
77.316800
11
35.569030
21
76.779697
0
LINE
8
BLACK
10
39.367100
20
75.410700
11
39.436836
21
75.034420
0
LINE
8
BLACK
10
39.436836
20
75.034420
11
39.752219
21
74.817664
0
LINE
8
BLACK
10
38.920400
20
70.905100
11
38.928068
21
71.490326
0
LINE
8
BLACK
10
38.928068
20
71.490326
11
38.711195
21
72.033938
0
LINE
8
BLACK
10
38.711195
20
72.033938
11
38.302796
21
72.453175
0
LINE
8
BLACK
10
38.302796
20
72.453175
11
37.765050
21
72.684210
0
LINE
8
BLACK
10
179.444000
20
34.988800
11
176.956920
21
34.324697
0
LINE
8
BLACK
10
178.772000
20
37.502300
11
179.444041
21
34.988760
0
LINE
8
BLACK
10
177.203000
20
33.406600
11
176.956938
21
34.324703
0
LINE
8
BLACK
10
176.285000
20
36.835600
11
178.772080
21
37.502349
0
LINE
8
BLACK
10
176.285000
20
36.835600
11
175.986021
21
37.946850
0
LINE
8
BLACK
10
175.986000
20
37.946800
11
171.639960
21
36.782630
0
LINE
8
BLACK
10
172.857000
20
32.242400
11
177.203040
21
33.406570
0
LINE
8
BLACK
10
172.676000
20
32.917100
11
172.856975
21
32.242413
0
LINE
8
BLACK
10
171.028000
20
37.134500
11
170.768973
21
38.100228
0
LINE
8
BLACK
10
170.157000
20
38.454800
11
170.768980
21
38.100259
0
LINE
8
BLACK
10
168.424000
20
33.329800
11
170.839110
21
33.978028
0
LINE
8
BLACK
10
167.259000
20
37.676900
11
170.156980
21
38.454774
0
LINE
8
BLACK
10
167.811000
20
33.684400
11
168.423774
21
33.329859
0
LINE
8
BLACK
10
167.695000
20
34.118300
11
167.811152
21
33.684384
0
LINE
8
BLACK
10
166.905000
20
37.065700
11
167.259012
21
37.676887
0
LINE
8
BLACK
10
166.905000
20
37.065700
11
167.021946
21
36.631784
0
LINE
8
BLACK
10
165.208000
20
33.451500
11
167.695080
21
34.118249
0
LINE
8
BLACK
10
165.208000
20
33.451500
11
164.535165
21
35.965040
0
LINE
8
BLACK
10
164.535000
20
35.965100
11
167.021820
21
36.631849
0
LINE
8
BLACK
10
171.028000
20
37.134100
11
171.260959
21
36.830493
0
LINE
8
BLACK
10
171.260959
20
36.830493
11
171.640369
21
36.780538
0
LINE
8
BLACK
10
172.676000
20
32.917800
11
172.411024
21
33.451262
0
LINE
8
BLACK
10
172.411024
20
33.451262
11
171.977114
21
33.828606
0
LINE
8
BLACK
10
171.977114
20
33.828606
11
171.433370
21
34.015713
0
LINE
8
BLACK
10
171.433370
20
34.015713
11
170.838890
21
33.978460
0
LINE
8
BLACK
10
25.795100
20
78.213700
11
23.245050
21
78.573533
0
LINE
8
BLACK
10
26.157100
20
80.788100
11
25.795150
21
78.213710
0
LINE
8
BLACK
10
23.113000
20
77.631600
11
23.245027
21
78.573515
0
LINE
8
BLACK
10
23.607300
20
81.147900
11
26.157090
21
80.788067
0
LINE
8
BLACK
10
23.607300
20
81.147900
11
23.767108
21
82.285610
0
LINE
8
BLACK
10
23.767100
20
82.285600
11
19.311260
21
82.912662
0
LINE
8
BLACK
10
18.657200
20
78.258700
11
23.113040
21
77.631638
0
LINE
8
BLACK
10
18.754000
20
78.951900
11
18.657163
21
78.258693
0
LINE
8
BLACK
10
18.885300
20
83.476200
11
19.024206
21
84.468386
0
LINE
8
BLACK
10
18.599300
20
85.032000
11
19.024220
21
84.468438
0
LINE
8
BLACK
10
15.002200
20
80.994500
11
17.477110
21
80.645250
0
LINE
8
BLACK
10
15.628300
20
85.450000
11
18.599300
21
85.031959
0
LINE
8
BLACK
10
14.576300
20
81.558000
11
15.002279
21
80.994438
0
LINE
8
BLACK
10
14.639200
20
82.002500
11
14.576229
21
81.558001
0
LINE
8
BLACK
10
15.063100
20
85.024100
11
15.628249
21
85.450079
0
LINE
8
BLACK
10
15.063100
20
85.024100
11
15.001188
21
84.579601
0
LINE
8
BLACK
10
12.089200
20
82.362300
11
14.639250
21
82.002467
0
LINE
8
BLACK
10
12.089200
20
82.362300
11
12.451150
21
84.936690
0
LINE
8
BLACK
10
12.451100
20
84.936700
11
15.001150
21
84.579513
0
LINE
8
BLACK
10
18.885000
20
83.477000
11
18.980814
21
83.106503
0
LINE
8
BLACK
10
18.980814
20
83.106503
11
19.310547
21
82.912274
0
LINE
8
BLACK
10
18.754600
20
78.951100
11
18.721425
21
79.535435
0
LINE
8
BLACK
10
18.721425
20
79.535435
11
18.467159
21
80.062593
0
LINE
8
BLACK
10
18.467159
20
80.062593
11
18.030512
21
80.452319
0
LINE
8
BLACK
10
18.030512
20
80.452319
11
17.477960
21
80.645280
0
LINE
8
BLACK
10
110.101000
20
56.989100
11
122.101000
21
56.989100
0
LINE
8
BLACK
10
122.101000
20
56.989100
11
122.101000
21
16.989100
0
LINE
8
BLACK
10
122.101000
20
16.989100
11
110.101000
21
16.989100
0
LINE
8
BLACK
10
110.101000
20
16.989100
11
110.101000
21
56.989100
 0 
ENDSEC
 0 
EOF